<mxfile host="65bd71144e">
    <diagram id="QC9lww7xjcVp7jGjiyGN" name="cell-state">
        <mxGraphModel dx="2226" dy="967" grid="1" gridSize="10" guides="1" tooltips="1" connect="1" arrows="1" fold="1" page="1" pageScale="1" pageWidth="850" pageHeight="1100" math="0" shadow="0">
            <root>
                <mxCell id="0"/>
                <mxCell id="1" parent="0"/>
                <mxCell id="20" value="" style="rounded=0;whiteSpace=wrap;html=1;" parent="1" vertex="1">
                    <mxGeometry x="10" y="250" width="565" height="220" as="geometry"/>
                </mxCell>
                <mxCell id="2" value="" style="rounded=0;whiteSpace=wrap;html=1;" parent="1" vertex="1">
                    <mxGeometry x="80" y="280" width="280" height="40" as="geometry"/>
                </mxCell>
                <mxCell id="3" value="0" style="rounded=0;whiteSpace=wrap;html=1;" parent="1" vertex="1">
                    <mxGeometry x="80" y="280" width="40" height="40" as="geometry"/>
                </mxCell>
                <mxCell id="4" value="0" style="rounded=0;whiteSpace=wrap;html=1;" parent="1" vertex="1">
                    <mxGeometry x="120" y="280" width="40" height="40" as="geometry"/>
                </mxCell>
                <mxCell id="5" value="0" style="rounded=0;whiteSpace=wrap;html=1;" parent="1" vertex="1">
                    <mxGeometry x="160" y="280" width="40" height="40" as="geometry"/>
                </mxCell>
                <mxCell id="6" value="0" style="rounded=0;whiteSpace=wrap;html=1;fillColor=#a20025;fontColor=#ffffff;strokeColor=#6F0000;" parent="1" vertex="1">
                    <mxGeometry x="200" y="280" width="40" height="40" as="geometry"/>
                </mxCell>
                <mxCell id="7" value="0" style="rounded=0;whiteSpace=wrap;html=1;fillColor=#a20025;fontColor=#ffffff;strokeColor=#6F0000;" parent="1" vertex="1">
                    <mxGeometry x="240" y="280" width="40" height="40" as="geometry"/>
                </mxCell>
                <mxCell id="8" value="0" style="rounded=0;whiteSpace=wrap;html=1;fillColor=#a20025;fontColor=#ffffff;strokeColor=#6F0000;" parent="1" vertex="1">
                    <mxGeometry x="280" y="280" width="40" height="40" as="geometry"/>
                </mxCell>
                <mxCell id="9" value="0" style="rounded=0;whiteSpace=wrap;html=1;fillColor=#a20025;fontColor=#ffffff;strokeColor=#6F0000;" parent="1" vertex="1">
                    <mxGeometry x="320" y="280" width="40" height="40" as="geometry"/>
                </mxCell>
                <mxCell id="10" value="0" style="rounded=0;whiteSpace=wrap;html=1;dashed=1;" parent="1" vertex="1">
                    <mxGeometry x="360" y="280" width="40" height="40" as="geometry"/>
                </mxCell>
                <mxCell id="11" value="" style="rounded=0;whiteSpace=wrap;html=1;" parent="1" vertex="1">
                    <mxGeometry x="80" y="380" width="280" height="40" as="geometry"/>
                </mxCell>
                <mxCell id="12" value="0" style="rounded=0;whiteSpace=wrap;html=1;" parent="1" vertex="1">
                    <mxGeometry x="80" y="380" width="40" height="40" as="geometry"/>
                </mxCell>
                <mxCell id="13" value="0" style="rounded=0;whiteSpace=wrap;html=1;" parent="1" vertex="1">
                    <mxGeometry x="120" y="380" width="40" height="40" as="geometry"/>
                </mxCell>
                <mxCell id="14" value="0" style="rounded=0;whiteSpace=wrap;html=1;" parent="1" vertex="1">
                    <mxGeometry x="160" y="380" width="40" height="40" as="geometry"/>
                </mxCell>
                <mxCell id="15" value="0" style="rounded=0;whiteSpace=wrap;html=1;fillColor=#a20025;fontColor=#ffffff;strokeColor=#6F0000;" parent="1" vertex="1">
                    <mxGeometry x="200" y="380" width="40" height="40" as="geometry"/>
                </mxCell>
                <mxCell id="16" value="0" style="rounded=0;whiteSpace=wrap;html=1;fillColor=#a20025;fontColor=#ffffff;strokeColor=#6F0000;" parent="1" vertex="1">
                    <mxGeometry x="240" y="380" width="40" height="40" as="geometry"/>
                </mxCell>
                <mxCell id="17" value="1" style="rounded=0;whiteSpace=wrap;html=1;fillColor=#a20025;fontColor=#ffffff;strokeColor=#6F0000;" parent="1" vertex="1">
                    <mxGeometry x="280" y="380" width="40" height="40" as="geometry"/>
                </mxCell>
                <mxCell id="18" value="1" style="rounded=0;whiteSpace=wrap;html=1;fillColor=#a20025;fontColor=#ffffff;strokeColor=#6F0000;" parent="1" vertex="1">
                    <mxGeometry x="320" y="380" width="40" height="40" as="geometry"/>
                </mxCell>
                <mxCell id="19" value="1" style="rounded=0;whiteSpace=wrap;html=1;dashed=1;" parent="1" vertex="1">
                    <mxGeometry x="360" y="380" width="40" height="40" as="geometry"/>
                </mxCell>
                <mxCell id="21" value="Dead Cell with no alive neighbours = 0 byte char" style="text;html=1;strokeColor=none;fillColor=none;align=center;verticalAlign=middle;whiteSpace=wrap;rounded=0;" parent="1" vertex="1">
                    <mxGeometry x="80" y="320" width="320" height="30" as="geometry"/>
                </mxCell>
                <mxCell id="22" value="Alive Cell with 3 alive neighbours" style="text;html=1;strokeColor=none;fillColor=none;align=center;verticalAlign=middle;whiteSpace=wrap;rounded=0;" parent="1" vertex="1">
                    <mxGeometry x="80" y="420" width="320" height="30" as="geometry"/>
                </mxCell>
                <mxCell id="23" value="" style="rounded=0;whiteSpace=wrap;html=1;fillColor=#a20025;fontColor=#ffffff;strokeColor=#6F0000;" parent="1" vertex="1">
                    <mxGeometry x="430" y="310" width="40" height="40" as="geometry"/>
                </mxCell>
                <mxCell id="24" value="" style="rounded=0;whiteSpace=wrap;html=1;dashed=1;" parent="1" vertex="1">
                    <mxGeometry x="430" y="360" width="40" height="40" as="geometry"/>
                </mxCell>
                <mxCell id="25" value="Cell State Bit" style="text;html=1;strokeColor=none;fillColor=none;align=center;verticalAlign=middle;whiteSpace=wrap;rounded=0;dashed=1;" parent="1" vertex="1">
                    <mxGeometry x="490" y="365" width="60" height="30" as="geometry"/>
                </mxCell>
                <mxCell id="26" value="Neighbour&lt;br&gt;count bits" style="text;html=1;strokeColor=none;fillColor=none;align=center;verticalAlign=middle;whiteSpace=wrap;rounded=0;dashed=1;" parent="1" vertex="1">
                    <mxGeometry x="490" y="315" width="60" height="30" as="geometry"/>
                </mxCell>
            </root>
        </mxGraphModel>
    </diagram>
    <diagram id="Wo22LjBbXNLVE09bHL2u" name="cell-algo">
        <mxGraphModel dx="610" dy="756" grid="1" gridSize="10" guides="1" tooltips="1" connect="1" arrows="1" fold="1" page="1" pageScale="1" pageWidth="850" pageHeight="1100" math="0" shadow="0">
            <root>
                <mxCell id="GTVSB9ejTsbULP6e9UkJ-0"/>
                <mxCell id="GTVSB9ejTsbULP6e9UkJ-1" parent="GTVSB9ejTsbULP6e9UkJ-0"/>
                <mxCell id="GTVSB9ejTsbULP6e9UkJ-3" value="" style="rounded=0;whiteSpace=wrap;html=1;strokeColor=#330000;" parent="GTVSB9ejTsbULP6e9UkJ-1" vertex="1">
                    <mxGeometry x="380" y="310" width="120" height="60" as="geometry"/>
                </mxCell>
                <mxCell id="qXdlxClXSxS6CgZIMa3E-0" value="" style="rounded=0;whiteSpace=wrap;html=1;" parent="GTVSB9ejTsbULP6e9UkJ-1" vertex="1">
                    <mxGeometry x="10" y="250" width="565" height="220" as="geometry"/>
                </mxCell>
                <mxCell id="38ufTXPrUdhDO6YVpo44-9" value="" style="group" parent="GTVSB9ejTsbULP6e9UkJ-1" vertex="1" connectable="0">
                    <mxGeometry x="70" y="300" width="120" height="120" as="geometry"/>
                </mxCell>
                <mxCell id="38ufTXPrUdhDO6YVpo44-0" value="1" style="rounded=0;whiteSpace=wrap;html=1;" parent="38ufTXPrUdhDO6YVpo44-9" vertex="1">
                    <mxGeometry width="40" height="40" as="geometry"/>
                </mxCell>
                <mxCell id="38ufTXPrUdhDO6YVpo44-1" value="2" style="rounded=0;whiteSpace=wrap;html=1;" parent="38ufTXPrUdhDO6YVpo44-9" vertex="1">
                    <mxGeometry x="40" width="40" height="40" as="geometry"/>
                </mxCell>
                <mxCell id="38ufTXPrUdhDO6YVpo44-2" value="3" style="rounded=0;whiteSpace=wrap;html=1;" parent="38ufTXPrUdhDO6YVpo44-9" vertex="1">
                    <mxGeometry x="80" width="40" height="40" as="geometry"/>
                </mxCell>
                <mxCell id="38ufTXPrUdhDO6YVpo44-3" value="4" style="rounded=0;whiteSpace=wrap;html=1;" parent="38ufTXPrUdhDO6YVpo44-9" vertex="1">
                    <mxGeometry y="40" width="40" height="40" as="geometry"/>
                </mxCell>
                <mxCell id="38ufTXPrUdhDO6YVpo44-4" value="5" style="rounded=0;whiteSpace=wrap;html=1;" parent="38ufTXPrUdhDO6YVpo44-9" vertex="1">
                    <mxGeometry x="80" y="40" width="40" height="40" as="geometry"/>
                </mxCell>
                <mxCell id="38ufTXPrUdhDO6YVpo44-5" value="6" style="rounded=0;whiteSpace=wrap;html=1;" parent="38ufTXPrUdhDO6YVpo44-9" vertex="1">
                    <mxGeometry y="80" width="40" height="40" as="geometry"/>
                </mxCell>
                <mxCell id="38ufTXPrUdhDO6YVpo44-6" value="0" style="rounded=0;whiteSpace=wrap;html=1;fillColor=#a20025;fontColor=#ffffff;strokeColor=#6F0000;" parent="38ufTXPrUdhDO6YVpo44-9" vertex="1">
                    <mxGeometry x="40" y="40" width="40" height="40" as="geometry"/>
                </mxCell>
                <mxCell id="38ufTXPrUdhDO6YVpo44-7" value="7" style="rounded=0;whiteSpace=wrap;html=1;" parent="38ufTXPrUdhDO6YVpo44-9" vertex="1">
                    <mxGeometry x="40" y="80" width="40" height="40" as="geometry"/>
                </mxCell>
                <mxCell id="38ufTXPrUdhDO6YVpo44-8" value="8" style="rounded=0;whiteSpace=wrap;html=1;" parent="38ufTXPrUdhDO6YVpo44-9" vertex="1">
                    <mxGeometry x="80" y="80" width="40" height="40" as="geometry"/>
                </mxCell>
                <mxCell id="38ufTXPrUdhDO6YVpo44-10" value="0" style="rounded=0;whiteSpace=wrap;html=1;fillColor=#a20025;fontColor=#ffffff;strokeColor=#6F0000;" parent="GTVSB9ejTsbULP6e9UkJ-1" vertex="1">
                    <mxGeometry x="240" y="300" width="40" height="40" as="geometry"/>
                </mxCell>
                <mxCell id="38ufTXPrUdhDO6YVpo44-11" value="1" style="rounded=0;whiteSpace=wrap;html=1;" parent="GTVSB9ejTsbULP6e9UkJ-1" vertex="1">
                    <mxGeometry x="240" y="375" width="40" height="40" as="geometry"/>
                </mxCell>
                <mxCell id="38ufTXPrUdhDO6YVpo44-12" value="Selected cell which gets its state maniupulated algorithm&amp;nbsp;" style="text;html=1;strokeColor=none;fillColor=none;align=left;verticalAlign=middle;whiteSpace=wrap;rounded=0;" parent="GTVSB9ejTsbULP6e9UkJ-1" vertex="1">
                    <mxGeometry x="300" y="300" width="290" height="30" as="geometry"/>
                </mxCell>
                <mxCell id="38ufTXPrUdhDO6YVpo44-13" value="Neighbouring cells which get their alive neighbour count incremented/decremented" style="text;html=1;strokeColor=none;fillColor=none;align=left;verticalAlign=middle;whiteSpace=wrap;rounded=0;" parent="GTVSB9ejTsbULP6e9UkJ-1" vertex="1">
                    <mxGeometry x="300" y="385" width="250" height="30" as="geometry"/>
                </mxCell>
            </root>
        </mxGraphModel>
    </diagram>
    <diagram id="2L05hfmxijnWdtjvkA4n" name="roofline-naive-32-ser">
        <mxGraphModel dx="3076" dy="967" grid="1" gridSize="10" guides="1" tooltips="1" connect="1" arrows="1" fold="1" page="1" pageScale="1" pageWidth="850" pageHeight="1100" math="0" shadow="0">
            <root>
                <mxCell id="kbejniJzF6f3wX8Ywy3W-0"/>
                <mxCell id="kbejniJzF6f3wX8Ywy3W-1" parent="kbejniJzF6f3wX8Ywy3W-0"/>
                <mxCell id="kbejniJzF6f3wX8Ywy3W-2" value="" style="shape=image;verticalLabelPosition=bottom;labelBackgroundColor=#ffffff;verticalAlign=top;aspect=fixed;imageAspect=0;image=data:image/png,iVBORw0KGgoAAAANSUhEUgAABuMAAAKHCAIAAAAUo6I9AAAgAElEQVR4Aex9e3gV1b329895nuNXq/Ucb1VLW2o9HrXW26nWqqD1VqtgvVStrfbUtp+tFpUWL8hlS/GKRyEg10DuQML9JiiGIBgQEMJVDCGYAIEkEwgQkuxk7+z5HrM+1zd79s5k9qy5/Nasdz88Opf1W/P+3netNWu9mb3nf+n4hJGBSCTSGupPJBIx6Rb6lEOtp/Pk1GwJqVnruq5OF0ibvmlAwC4YAANgAAyAATAABsAAGAADYAAMyMLAddddV7v/MPv3v2QBDZwZMRBR4GMiRIGMkWJ6BtRsCaasmVOZnqAwHk1NH0fAABgAA2AADIABMAAGwAAYAANgQFIG4FRKKhxggwEwAAbAABgAA2AADIABMAAGwAAYAANgAAyAgVAxQMupjEReCRW7oU6muro61PmpmBw0DZ/q0FREU9XYkz1f+vjpIxTpL4gFA24x0NzcvHHjRrdq66ke9MeemJH3ODQV0U419mTPlz5+CggpYBDplUrFHjV8WOJwKpVqAG4mi57vJps06oKmNHRwEwU0FWFTNfZkz5c+fvoIRfoLYsGAWwzAqXSLSdXqwRgrorhq7MmeL338FBBSwCDSK5WKNRiVR1niEjiVX3755dy5cxcsWLBv3z6l1CKeLHo+cYEcwIOmDkgjHgJNRQRSjT3Z86WPnz5Ckf6CWDDgFgNwKt1iUrV6MMaKKK4ae7LnSx8/BYQUMIj0SqVi5XMq161b9+KLL65cubK0tHTkyJHl5eVKCUY5WfR8yuo4wwZNnfFGOQqaiqijGnuy50sfP32EIv0FsWDALQbgVLrFpGr1YIwVUVw19mTPlz5+CggpYBDplUrFyudUjhgxorW1lYnU0dExatQopQSjnCx6PmV1nGGDps54oxwFTUXUUY092fOlj58+QpH+glgw4BYDcCrdYlK1ejDGiiiuGnuy50sfPwWEFDCI9EqlYuVzKl977TVd16uqqphOr776qlKCUU4WPZ+yOs6wQVNnvFGOgqYi6qjGnuz50sdPH6FIf0EsGHCLATiVbjGpWj0YY0UUV4092fOlj58CQgoYRHqlUrHyOZVvvfWWruujR4/WdT0Wiw0dOlQpwSgni55PWR1n2KCpM94oR0FTEXVUY0/2fOnjp49QpL8gFgy4xQCcSreYVK0ejLEiiqvGnuz50sdPASEFDCK9UqlY+ZzK2bNnl5SUMINy1qxZpaWlSglGOVn0fMrqOMMGTZ3xRjkKmoqooxp7sudLHz99hCL9BbFgwC0G4FS6xaRq9WCMFVFcNfZkz5c+fgoIKWAQ6ZVKxcrnVHZ0dKxfv76iokLX9Y6ODqXUIp4sej5xgRzAg6YOSCMeAk1FBFKNPdnzpY+fPkKR/oJYMOAWA3Aq3WJStXowxooorhp7sudLHz8FhBQwiPRKpWLlcyprUz5KCUY5WfR8yuo4wwZNnfFGOQqaiqijGnuy50sfP32EIv0FsWDALQbgVLrFpGr1YIwVUVw19mTPlz5+CggpYBDplUrFyudUvp3yUUowysmi51NWxxk2aOqMN8pR0FREHdXYkz1f+vjpIxTpL4gFA24xAKfSLSZVqwdjrIjiqrEne7708VNASAGDSK9UKlY+p1IpeeRKFj1fLr3soIWmdliSqww0FdFLNfZkz5c+fvoIRfoLYsGAWwzAqXSLSdXqwRgrorhq7MmeL338FBBSwCDSK5WKlc+pHGn4jBo1avjw4UoJRjlZ9HzK6jjDBk2d8UY5CpqKqKMae7LnSx8/fYQi/QWxYMAtBuBUusWkavVgjBVRXDX2ZM+XPn4KCClgEOmVSsXK51RyeZqbm8eOHZufn8+PYCNYBtDzg+Xfi6tDUy9YDbZOaCrCv2rsyZ4vffz0EYr0F8SCAbcYgFPpFpOq1YMxVkRx1diTPV/6+CkgpIBBpFcqFSurU7l69eqRI0dWVVUppRbxZNHziQvkAB40dUAa8RBoKiKQauzJni99/PQRivQXxIIBtxiAU+kWk6rVgzFWRHHV2JM9X/r4KSCkgEGkVyoVK59T2djY+MYbb5SUlMRiMaWkop8sej59jTJFCE0zZYx+eWgqopFq7MmeL3389BGK9BfEggG3GIBT6RaTqtWDMVZEcdXYkz1f+vgpIKSAQaRXKhUrn1P52GOPjR8/ft68eXO//iglGOVk0fMpq+MMGzR1xhvlKGgqoo5q7MmeL3389BGK9BfEggG3GIBT6RaTqtWDMVZEcdXYkz1f+vgpIKSAQaRXKhUrn1O5LeWjlGCUk0XPp6yOM2zQ1BlvlKOgqYg6qrEne7708dNHKNJfEAsG3GIATqVbTKpWD8ZYEcVVY0/2fOnjp4CQAgaRXqlUrHxOpUme3Nxc0xHsBsUAen5QzHt3XWjqHbdB1QxNRZhXjT3Z86WPnz5Ckf6CWDDgFgNwKt1iUrV6MMaKKK4ae7LnSx8/BYQUMIj0SqVipXcqX3/9daUEo5wsej5ldZxhg6bOeKMcBU1F1FGNPdnzpY+fPkKR/oJYMOAWA3Aq3WJStXowxooorhp7sudLHz8FhBQwiPRKpWLlcyrfTv786U9/Ukowysmi51NWxxk2aOqMN8pR0FREHdXYkz1f+vjpIxTpL4gFA24xAKfSLSZVqwdjrIjiqrEne7708VNASAGDSK9UKlY+p7I2+TNixAilBKOcLHo+ZXWcYYOmznijHAVNRdRRjT3Z86WPnz5Ckf6CWDDgFgNwKt1iUrV6MMaKKK4ae7LnSx8/BYQUMIj0SqVi5XMqTfLg298mQgLcRc8PkHyPLg1NPSI2wGqhqQj5qrEne7708dNHKNJfEAsG3GIATqVbTKpWD8ZYEcVVY0/2fOnjp4CQAgaRXqlUrJROZTQa3bZt265du9ra2qqqqpQSjHKy6PmU1XGGDZo6441yFDQVUUc19mTPlz5++ghF+gtiwYBbDMCpdItJ1erBGCuiuGrsyZ4vffwUEFLAINIrlYqVz6ncu3fvM888M2nSpMmTJw8ePBhOJZ32ip5PRwu3kEBTt5ikUw80FdFCNfZkz5c+fvoIRfoLYsGAWwzAqXSLSdXqwRgrorhq7MmeL338FBBSwCDSK5WKlc+pHDVqVH19PROpqanptddeU0owysmi51NWxxk2aOqMN8pR0FREHdXYkz1f+vjpIxTpL4gFA24xAKfSLSZVqwdjrIjiqrEne7708VNASAGDSK9UKlY+p3L06NFGhfA7lUY2gt1Gzw+Wfy+uDk29YDXYOqGpCP+qsSd7vvTx00co0l8QCwbcYgBOpVtMqlYPxlgRxVVjT/Z86eOngJACBpFeqVSsfE7lyJEjjQqZdo2nsO0zA+j5PhPuw+WgqQ8k+3wJaCpCuGrsyZ4vffz0EYr0F8SCAbcYgFPpFpOq1YMxVkRx1diTPV/6+CkgpIBBpFcqFSufU1lUVFRQUHCk+1NYWJifn6+UYJSTRc+nrI4zbNDUGW+Uo6CpiDqqsSd7vvTx00co0l8QCwbcYgBOpVtMqlYPxlgRxVVjT/Z86eOngJACBpFeqVSsfE5lV1fXkiVLRnR/5s+fH4vFlBKMcrLo+ZTVcYYNmjrjjXIUNBVRRzX2ZM+XPn76CEX6C2LBgFsMwKl0i0nV6sEYK6K4auzJni99/BQQUsAg0iuVipXPqYynfJQSjHKy6PmU1XGGDZo6441yFDQVUUc19mTPlz5++ghF+gtiwYBbDMCpdItJ1erBGCuiuGrsyZ4vffwUEFLAINIrlYqVz6kc3P157LHH+IZSglFOFj2fsjrOsEFTZ7xRjoKmIuqoxp7s+dLHTx+hSH9BLBhwiwE4lW4xqVo9GGNFFFeNPdnzpY+fAkIKGER6pVKx8jmVTJ633nrLtKGUbDSTRc+nqYsIKmgqwh7NWGgqootq7MmeL3389BGK9BfEggG3GIBT6RaTqtWDMVZEcdXYkz1f+vgpIKSAQaRXKhUrq1P55ptvMp34hlKy0UwWPZ+mLiKooKkIezRjoamILqqxJ3u+9PHTRyjSXxALBtxiAE6lW0yqVg/GWBHFVWNP9nzp46eAkAIGkV6pVKysTuW4ceN27dq1f//+SCSilGCUk0XPp6yOM2zQ1BlvlKOgqYg6qrEne7708dNHKNJfEAsG3GIATqVbTKpWD8ZYEcVVY0/2fOnjp4CQAgaRXqlUrKxOZVNT07hx41577bWqqiqlBKOcLHo+ZXWcYYOmznijHAVNRdRRjT3Z86WPnz5Ckf6CWDDgFgNwKt1iUrV6MMaKKK4ae7LnSx8/BYQUMIj0SqVi5XMqu7q6GhoamEhdXV1KqUU8WfR84gI5gAdNHZBGPASaigikGnuy50sfP32EIv0FsWDALQbgVLrFpGr1YIwVUVw19mTPlz5+CggpYBDplUrFyudU5ubmLl++XNf1/Pz8wYMHL1y4UCnBKCeLnk9ZHWfYoKkz3ihHQVMRdVRjT/Z86eOnj1CkvyAWDLjFAJxKt5hUrR6MsSKKq8ae7PnSx08BIQUMIr1SqVj5nMrXX39d1/XW1tZ33nlH13W8UYdOe0XPp6OFW0igqVtM0qkHmopooRp7sudLHz99hCL9BbFgwC0G4FS6xaRq9WCMFVFcNfZkz5c+fgoIKWAQ6ZVKxcrnVDKDcuvWrStXrtR1fezYsUoJRjlZ9HzK6jjDBk2d8UY5CpqKqKMae7LnSx8/fYQi/QWxYMAtBuBUusWkavVgjBVRXDX2ZM+XPn4KCClgEOmVSsXK51S+9tprx48fnzBhwqFDhw4cODBq1CilBKOcLHo+ZXWcYYOmznijHAVNRdRRjT3Z86WPnz5Ckf6CWDDgFgNwKt1iUrV6MMaKKK4ae7LnSx8/BYQUMIj0SqVi5XMqd+7cOXTo0OLiYl3Xt23bVltbq5RglJNFz6esjjNs0NQZb5SjoKmIOqqxJ3u+9PHTRyjSXxALBtxiAE6lW0yqVg/GWBHFVWNP9nzp46eAkAIGkV6pVKx8TqVS8siVLHq+XHrZQQtN7bAkVxloKqKXauzJni99/PQRivQXxIIBtxiAU+kWk6rVgzFWRHHV2JM9X/r4KSCkgEGkVyoVC6dSKbm9TRY931t+g6gdmgbBurfXhKYi/KrGnuz50sdPH6FIf0EsGHCLATiVbjGpWj0YY0UUV4092fOlj58CQgoYRHqlUrFwKpWS29tk0fO95TeI2qFpEKx7e01oKsKvauzJni99/PQRivQXxIIBtxiAU+kWk6rVgzFWRHHV2JM9X/r4KSCkgEGkVyoVC6dSKbm9TRY931t+g6gdmgbBurfXhKYi/KrGnuz50sdPH6FIf0EsGHCLATiVbjGpWj0YY0UUV4092fOlj58CQgoYRHplKGM//vjjd95559133/3444+NCcKpNLKBbSEG0POF6CMZDE1JyiIECpqK0Kcae7LnSx8/fYQi/QWxYMAtBlR2Kr/88suFCxdGIpHVq1e7xac69WCMFdFaNfZkz5c+fgoIKWAQ6ZXhi43H4x999NHJkyf37ds3ZswYY4JwKo1sYFuIAfR8IfpIBkNTkrIIgYKmIvSpxp7s+dLHTx+hSH9BLBhwiwFlncpXXh15+lnf7PNf517Q74zv/Pjc71x4fkVFhVusqlAPxlgRlVVjT/Z86eOngJACBpFeGdbYw4cPT5o06YsvvjAmKORU7tmzZ/DXn/79+0ej0bq6uhdffPHpp582XkPX9by8vJdffvmf//zn8OHDY7HYyZMnhw4dOmTIkKeeeuro0aOmwsbdSOQV4y62KTOAnk9ZHWfYoKkz3ihHQVMRdVRjT/Z86eOnj1CkvyAWDLjFgJpO5cziovOu+rdrR/Tl/64Y1Of8vuc2Nze7RWzo68EYKyKxauzJni99/BQQUsAg0ivDGrt79+66ujpTdkJOJa+rtLQ0NzdX1/W1a9fu2bMn1al88MEHOzo6dF3/85//fPDgwenTpy9atEjX9b1792qaxutJ3YBTmcoJ2SPo+WSlcQwMmjqmjmwgNBWRRjX2ZM+XPn76CEX6C2LBgFsMqOlU/u9TT7nm+e9xm5JtXNDvjDfeet0tYkNfD8ZYEYlVY0/2fOnjp4CQAgaRXhnW2JycnK1bt5qyc8GpbG1t/etf/xqPx1nV9fX1qU5lWVnZo48++re//Y19+fy5557Lzc0d3f1paWkxYlqd/IFTaSSH+DZ6PnGBHMCDpg5IIx4CTUUEUo092fOlj58+QpH+glgw4BYDCjqVX3755bfOPt1kU147ou8lj5/X/7ab3CI29PVgjBWRWDX2ZM+XPn4KCClgEOmVSsW64FTm5uYuXbqUs5bqVMZisV//+tdtbW26rr/00ks7dux46qmn1q1bp+v6nDlzpkyZwmN1XU82KldHIq9U4wMGwAAYAANgAAyAATAABsAAGFCDgY8//vj0M7+Z1qm87safqMEBsgQDYAAMgAF1GXDBqfzNb37T3t7O3cZUpzIajd57772JRELX9VdffbW8vDwrK4u9g3zFihXvvfcej03rVBrPYpsyA/gbBWV1nGGDps54oxwFTUXUUY092fOlj58+QpH+glgw4BYDCj5Tqes6vv0t3n4wxopwqBp7sudLHz8FhBQwiPRKpWJFncpYLDZgwABO2bhx455++unbbrtt8ODBO3bsWLBgATMii4uL//GPf4wcOXLUqFHxeLy5uXnIkCEvvfTSoEGDTL9TiWcq1bXNkTkYAANgAAyAATAABsAAGAAD1dVjx7/77SvPMD5WecWgPud+9+yKigrQAwbAABgAA2QZWLFixfLlyzk80y4/bnNjwoQJNkuGrJioU8k9So828DuVHhHrRbX4G4UXrAZbJzQNln8vrg5NRVhVjT3Z86WPnz5Ckf6CWDDgFgNqPlOp6/orr448+7v/3ucn51zQ74zv/Pjc7/zg/IqKCrdYVaEejLEiKqvGnuz50sfvGGFxcXFDQ4OpMTc2NrIv6ZaVlRV2f1avXq3r+ubNmwsKCvLz89evX89D8vLyjh49qut6dXX10aNH2bug+VnTBq/ZdJztsi8K81NlZWUfffQR32Ubmzdv3rRpEz9o2p0+fXphYeGsWbNyc3PtDOnTpk3jVaVubN26debMmbm5ufv27dN1feXKlSUlJUVFRcbHAdva2kpKSmbPnj1v3jyO/8MPP1ywYIGxwkOHDhV1f7Kzs1esWNHV1aXr+vjx43VdLy0tzc7OZrG1tbWlpaVbtmwpKip6r/tTVFS0ZcuWlpaWuXPnFhUV5efnz5kzh72NJjXZqqqqoqKiuXPn5ufn79ixwwjAtA2n0kQIdp0z4Hj0cX5JRHrMADT1mOAAqoemIqSrxp7s+dLHTx+hSH9BLBhwiwFlnUpd17/88ssFCxaMHDmyrKzMLT7VqQdjrIjWqrEne7708TtGyJzKLVu2zJs3r6ysLC8vr7m5ef78+VOnTj148GBlZaWu67FYjL3+pLS0NNH9mThxIm//u3btWrlyJXMqP/roo507d27btm327NklJSXMLKuoqJg9e3ZeXl5tbS2vuaKiori4uKSkhNmO06dPX7JkSW1tLa/2+PHjn3zySXl5eXNzs67rx44dy8/PX7ZsGQsx7fKo6dOnt7a26roej8ezsrISiYQJzKZNm4qLiwsLCxk25lSWl5d/8sknjY2NRnuxvb09Nzc3kUi0tbUdPny4oaFh/vz5uq4fOXKkpKSEX3HVqlWMpf3798diMV3X9+/fv3DhQmNVnZ2d77333rFjx1jUxo0bmdfJncr58+ezN80wp5IV29D9YdtFRUVVVVVsu7KysrCwUNf11GRzc3OZiRmNRrds2cLKp/0vnMq0tOCgEwYcjz5OLoYYXxiApr7Q7OtFoKkI3aqxJ3u+9PHTRyjSXxALBtxiQGWn0i0O1awHY6yI7qqxJ3u+9PE7RsicyoqKCuY2btiwYfPmzbt372bPVOq6vnbt2qysrF27dvEGv3///sWLF/Pdrq6uKVOmxOPxqqqqKVOmxGKxSZMmMUNz6tSpXV1dU6dO1XX9xIkTX3zxBau5q6uLldF1ffLkyV1dXePGjWPviObVlpWVHTt27MSJE6Wlpbqul5WV7dy5U9f1Dz/8cNOmTaZdHsXNu7a2tokTJ/ILJRIJBmPz5s2JRKK9vX3GjBm6rk+bNu3zzz9fsWIFr4Fv1NbWlpSUvP/++yUlJYcPH96xYwczE3VdN762Oj8/v7y8fMGCBatWrdJ1vbOzc/bs2U1NTUan8sCBA8zl5JWzDe5U1tTUFBQUHD16NK1TGY/HTa+fGT9+fDweNyWr6/qOHTsKCgrKy8sPHDjAH/A0XZTtwqlMSwsOOmHA8ejj5GKI8YUBaOoLzb5eBJqK0K0ae7LnSx8/fYQi/QWxYMAtBuBUusWkavVgjBVRXDX2ZM+XPn7HCLlTuWHDBl3XKyoqNmzYYHQqdV2PRqOTJ09mDwxu37598eLFbJt3gdWrV+/YsaO0tHT16tUtLS1vv/32gu7PjBkzNE0rKCjgJVnNLS0t/GB+fn5LS4vR+2NPRE6aNGlO92fSpEmxWGzJkiUHDhzQdX3jxo2bNm0y7fL6+ReiZ82aVVtbawLT3t6+cePGJUuWLF++nF1x/Pjx77zzzpdffslr4Bv79u0rKipij3Pm5ub25FTm5OQcPHhQ1/XFixfv27fvgw8+qKura25uNjqVNTU18+bNY0+nFhQU5Obmsgf5uVNZW1uraVpRUVFapzIWi2VlZXFg7GvjXV1dpmRZgXg8fuDAAfa1fWOIaRtOpYkQ7DpnwPHo4/ySiPSYAWjqMcEBVA9NRUhXjT3Z86WPnz5Ckf6CWDDgFgNwKt1iUrV6MMaKKK4ae7LnSx+/Y4Q9OZWrV6/u6OiYPXs2a+eTJk3q7OzcvHlz2t/KaGlpKSoqys7ObmlpYY9YsqjGxsaurq7JkycnEokTJ05s2bJl9+7dq1evZgdZGfZMpcmp3LZtG/+VyW3dn1WrVrFnKpcvX75p0ybTLu+M/DFDdsQEpq2tjV2oqalp8uTJ7OnIkydPZmdnt7e380rYBktK13X2AKamaXPnztV1vbGxcc6cObzw+++/v3//fvawZ2Vl5YwZMxYsWFBcXDxu3LgvvviCFYvFYuPHj+e/brlv375ly5YZf6eSfe19zZo1ixYtYs+Q6rpu/PZ3YWEhr62yspLpYko2kUiUlpayX8BMJBJMMo7TtAGn0kQIdp0z4Hj0cX5JRHrMADT1mOAAqoemIqSrxp7s+dLHTx+hSH9BLBhwiwE4lW4xqVo9GGNFFFeNPdnzpY/fMcK0TmVjY+N7771XXV1dXl5e0P0pLy+PxWKvv/76rK8/pscq58+fn5+fzzrF1q1bS7o/7D08FRUVs2bNysvLq6mp4TVXVFSUlJQUFxdv3brV9H1qXddzcnL4l8Hb29tzcnKam5tzcnIWLVo0Z86cjRs3mnZ5ZzSZd7quG8F0dXUVFhYuWbJk7dq1+fn5VVVV7Hcqq6ur586da/qdSl3X169fP3v27Pz8fPZGndLS0lmzZhUWFjY1NXGf8fjx47NmzSopKZk/fz5zCXVdNz1Tqet6fX09Y7K4uHjhwoUnTpzgNZSWljKnkvmqaZ3KkydPlpSU5Hd/5s6dy36LMzXZLVu2FBQUsNf+sIdkOTOmDTiVJkKw65wBx6OP80si0mMGoKnHBAdQPTQVIV019mTPlz5++ghF+gtiZWcgku4TSFJwKgOhPQQXxRgrImLg7KUbgSIiGVnHBp6vNbxez9LH7zPCtO3HZwy9qoYCFgzAqbQgB6cyYwA9PzO+ZCgNTWVQKTOM0DQzvpJLq8ae7PnSx08fYXIPwJ5aDEQiZlMg9Yg/jMCp9Ifn8F0FY6yIpoGzlzrgpB4RSdAUG3i+JjyZ7tLH7zPC1NYSiUR8xpCpiChvZABOpZENbAsxgJ4vRB/JYGhKUhYhUNBUhD7V2JM9X/r46SMU6S+IlZ2BtMu8QJKCUxkI7SG4KMZYEREDZ8/nISjwfEXE0nWdPn6fEaZtPz5jENRU8XA4lYo3ADfTR893k00adUFTGjq4iQKairCpGnuy50sfP32EIv0FsfIywL80F2tp6Th6lO9GIpGopvF/fh7fsG6d19etrq5ml/AzL55UVNNwXfCP9mDsBWzAST2CdoJ2wlqFNQ+mlsN2Mc4HeB+31iu1X8OplHcaSQ45VlzkJBEGBE2FKSRXATQVkUQ19mTPlz5++ghF+gti5WIgEYvF29tjLS18GcM3+Ooi9Qg/5elGQ02N0an06Fp8BetR/ajWfwagqQjngbDH3SXm3ZvwezoEBZKvKUGRXfr4PUWY1rs08cm+/W06iF2yDMCplGsaSRotVlyk5XEEDpo6oo10EDQVkUc19mTPlz5++ghF+gtiiTPAHYFIJNLR1JS6Vkk1BVKPpEZ5cQROpResqlCnp85I6An0mj0+BPXEZOqAk3qkp1gHx73O1wGkjELo4/cIYapHyXhLbS1wKjNqUYEXhlNJfBopEzysuGRSyx5WaGqPJ5lKQVMRtVRjT/Z86eOnj1CkvyCWGgORSKSroyPe2tp57Fg0nTVpWpZwH8G4YSrjzy6cSn94Dt9VPHJGwkdU2ow8ZS/VRUrFYBx5+HZqMbeOeJqvWyAt6qGPXxAhbwN2Go/p9zR4rCAGC/5xynUG4FRSm0ZKjAcrLonF6wE6NO2BGIkPQ1MR8VRjT/Z86eOnj1CkvyA2cAYS8XhXNBo7eZIt0lxfRfhWIZxK36gO2YXgSogI6gp73CGy6S6JABaMdSVfQQwi4fTxZ4rQizaTKQYRRRAryACcysCnkeEBgBVXeLT8OhNo+jUT4fk/NBXRUjX2ZM+XPn76CEX6C2L9ZyDJFLDx1KTgKsK3cDiVvlEdsgvBlRAR1AF7fAgSuW5QsQ7yDQpq2uvSx28foXd/XbOPIS3JOOgnA3Aq/Z9GhvaKWHGFT1poCk3Dx4BIRqr1CNnzpYSppXkAACAASURBVI+fPkKR/oJYPxhIJLo6O+NtbZ3Hj3ccOeLnEsLPa8Gp9JPtMF0LroSImpmy5527JJKF/dhM87Vfsz8l6eNPi9BndzstBn8EwlUyZQBOpR/TSEWugRVX+ISGptA0fAyIZKRaj5A9X/r46SMU6S+I9YiBRCzGl3ZefDku07WED+XhVPpAcigvAVdCRNae2Avr+NNTviIc+hlLH38qQv9vYakY/NQI18qIATiVHk0jVawWK67wqQ5NoWn4GBDJSLUeIXu+9PHTRyjSXxDrFgPMF+hsaelobs5olh+awnAqQyOlz4nAlRAhnLPnv50kAttxLM/XcQ3BBlLGT8fdpsxSsO2H4NXhVLo1jUQ9OlZc4WsE0BSaho8BkYxU6xGy50sfP32EIv0FsY4Z+H9vwmlpYas7gusHnyHBqfSZ8NBcDq6EiJTcXRKpRKJY2VsLHfw93bkoIKSAQaJOESxUOJWOp5EINDOAFZeZEfn3oan8GpozgKZmRjLZV4092fOlj58+wkz6B8o6Z4A7Al89uxSiN+G4tciBU+kWk6rVA1fCpuJ8CDKWV4092fOlgL8nj5K1KwoIKWAw9jJsWzAAp9L5tBKRJgaw4jIREoJdaBoCEU0pQFMTIRntqsae7PnSx08fYUYdBIXtMxCJRLo6OmKtreF+E47FCiSjU3AqM6ILhTkDcCU4FRYbPX25WzX2ZM/XZ/xp3W2LZhbVNJ8RpgVDAUNaYDiYygCcSvuzSpTshQGsuHohSMLT0FRC0XqBDE17IcjytGrsyZ4vffz0EVp2CJzMgIFE90u6+dKuJ2sgdaaOI1FNg1OJZuCMAbgSRt4yHX9UY0/2fP3E7+wW5idCY8s3blPAYMSDbQsG4FRmMMtEUWsGsOKy5kfGs9BURtWsMUNTa36sz6rGnuz50sdPH6F1j8BZawa4L6Dsm3AsViAZnYJTmRFdKMwZUNyVcGYnKcue7K3FC/z8LibYllij8gIhb642NyhgsAkVxeBUWk8ycTYDBrDiyoAsSYpCU0mEygAmNM2ArJSiqrEne7708dNHmNIJcMCKga5YLN7eHmtp6WxudmVdh4UKYwBOJVqCMwaUdSWYweSMNB6lGnuy5yuO35Vmw9tP6oY4wtQ6Mz1CAUOmmJUtD6fSasaJcxkxgBVXRnRJURiaSiFTRiChaUZ0mQqrxp7s+dLHTx+hqQtg18RAIh5395ETZRck1onDqbTmB2d7YiD0roSn40/o2TM1G9nzFcTvw1/XBBGa9HK2SwGDM+QKRsGpNM05seucAay4nHNHNRKaUlXGOS5o6pw7XVeNPdnzpY+fPkKR/hLKWOYLxPEmHE3zc9UEp9JPtsN0LbgSImqqxp7s+drE76m7bd3ebCK0rkTwLAUMgimoEw6nMpQT6WCSwoorGN69vCo09ZLdYOqGpiK8q8ae7PnSx08foUh/CUcsexNOvK2Nr+7UWSTQyRROJR0t5EISGleCjz8+PPjGJQ4Nezwj6w3Z8+0Jv59thj7DPbFkjRxnA2EATmU4JtIkssCKi4QMroKApq7SSaIyaCoig2rsyZ4vffz0EYr0F3ljuSmAN+EEsjhJvSicylROcMQOA5K6EmwIspOgp2UkZc8xJ7Lna8LPb2SOCXE90ITQ9frtVEgBgx2cKBPVNDiV8k6kySHHioucJMKAoKkwheQqgKYikqjGnuz50sdPH6FIf5EoFm/CIb4oglNJXCCy8KRzJYh4lExQ6dgTbIfy5kvQlEyrBQWGKWBISw4OpjIAp1KiiTR1qFhxUVcoc3zQNHPOqEdAUxGFVGNP9nzp46ePUKS/UI7Fm3BSlwSUj8CppKwOZWxkXQluLdH5Zm6qjmTZS4XqyhFJ8+VNiD5+CggpYHCluapQCZxKyhNpybBhxSWZYDbgQlMbJElWBJqKCKYae7LnSx8/fYQi/YVULPMF8CYcSdc2cColFS5w2HRcCW4nBc6JfQB02LOPWaQk8Xx7dbeJ449qGgWEFDCItFKlYuFUkppIyw0GKy659UuHHpqmY0XuY9BURD/V2JM9X/r46SMU6S/BxuJNOGFaz8CpDJOafuYSuCvRq7vkJxuZXitw9jIFLFieWr6ZutvU8KfKQQEhBQypzOBIWgbgVAY7kQ7V1bHiCpWc3clAU2gaPgZEMlKtR8ieL3389BGK9Bf/Y6U2BdJO03GQMQCnEi3BGQM+uxJsCHIGlWCUz+wFzgCRfPmNLFNCiOC3gE0BIQUMFhThlJEBOJX+T6RDe0WsuMInLTSFpuFjQCQj1XqE7PnSx08foUh/8SE2EonE29tjLS14Sbdxch++bTiV4dPUn4z8dCUyfQLOHwZEruIneyI43Yr1P1/HpmTalP3HnxaGxUEKCClgsKAIp4wM+OpUDh069M0339R1/cCBA4MGDXrhhReGDh3a3t5uMZeNRF6xOItTpBjAiouUHK6Agaau0EiqEmgqIodq7MmeL3389BGK9BcvYhPxeFc06u7qzjgtxjZNBuBU0tSFPiovXAk+/oTPmjQJ6gV7pkuQ2pU9X/r4KSCkgIFUs6cMxj+ncunSpaNGjWJO5bBhw3bu3Knr+syZM0tKSizmsnAqLcihdgorLmqKiOOBpuIcUqsBmoooohp7sudLHz99hCL9xZVYbgp0HjsWbWqiPKUGNu8YgFPpHbfhrlnclWBDULhZ6ik7cfZ6qpnmce/y5TcyTxP3Dr9bsCkgpIDBLT5DX49PTmVdXd1LL720a9cu5lQ+/PDD8Xhc1/WtW7eOHj3aOJddnfyBU2kkh/g2VlzEBXIAD5o6II14CDQVEUg19mTPlz5++ghF+ovD2ESiq7Mz3tbWefy4yh5B6FcgGSUIpzIjulCYMyDiSvjjLnGoBDdE2COYTq+Q3Mo3qDuXW/h7JcpxAQoIKWBwTKBqgX44lfF4/O9//3tTUxN3Kh955BHmVFZUVLz66qvGuWyyUbk6EnmlGh8wAAbAABgAA2AADICBkDLAHYFIJBLSFJEWGAADdBngQxBdiEAmAwOsIcmAFBjBgAQM+OFU7tix469//evIkSOfffbZ+++/v6ysbOTIkdu2bdN1PT8/f968eUan0rSNZypNhFDexbMhlNVxhg2aOuONchQ0FVFHNfZkz5c+fvoIRfqLRSzehKPakxGC+eKZSkEClQ238/xU6H9u0rH6dthzXDnBQPv5cmubVOOxjz8o8ikgpIAhKP7JXrd0+fJ33n77nf/5n1XLlxtB+uFU8qkqf6ayrq5u0KBBQ4YMGT58eDQa5QVSN+BUpnJC9oiyKy6yiogDg6biHFKrAZqKKKIae7LnSx8/fYQi/cUYizfhGCff2M6UATiVmTKG8owBoytB012irJSRPco43cJmkS8pR7KnfC3w9xTi83EKCClg8Jl24pdrra//YMmSI7W1lRUVb735phGtr06lcc5qcxtOpU2iKBRTZ8VFgW1/MEBTf3j28yrQVIRt1diTPV/6+OkjdNxfuCmAN+EYp93YdsYAnEpnvKkcxb+HqzIJgrmr5umk5stvZIJM+hOeit+f69q/CgWEFDDYZ0ydkrW7d0+cMGHHxo3GlOFUOp6EI9DMQIhXXOZUldmHpuGTGpqKaKoae7LnSx8/fYQZ9JfkN+EY55rYBgOCDMCpFCRQqXCjuwRXQkR61dhjLUeEsWBj6etFASEFDMG2E5pX375hQ82uXSZscCozmISjqDUDoVpxWaeqzFloGj6poamIpqqxJ3u+9PHTR2jdXxKxGDcFpPhynGkSjF1ZGIBTKYtSPuPk409P14Ur0RMzdo6rwx5rSLLnSx8/BYQUMNjpfaqVmTF16qa1a01Zw6m0noTjbAYMyL7iyiBVZYpC0/BJDU1FNFWNPdnzpY+fPkJTf2HLuc6Wlo7mZtOEErtgwDsG4FR6x224a4YrIaJv+Njj1nbaP63Jni99/BQQUsAg0iuVioVTaZqEY9c5A9KtuJynqkwkNA2f1NBURFPV2JM9X/r46SNkb8KJtbSwBZ5SU2QkS4cBOJV0tAgECTeYMr06XIlMGTOWDwF7Gd25ZM+XPn4KCClgMPYybFswAKdSZNGK2CQG6K+4kuBixwYD0NQGSZIVgaYigqnGnuz50sdPECF3BL565KSpyWIGiVNgwDcG4FT6RnXgF+JDkCtI4EqI0Cg1exl5lIwlqfONahp9/BQQUsAg0iuVioVTKbJoRWwSAwRXXEn4sJM5A9A0c86oR0BTEYVUY0/2fOnjJ4Ewkejq6Ii1tnYeP95x5IhSk2AkKwsDcCplUUoQZ9rv5IrUCVdCBfbccrdlby308VNAGAiGDR9/vL6sjHdG0y4/bnNjzsyZh/futVlY6mJwKkUWrYhNYoDEiisJEXZEGYCmogzSi4emIpqoxp7s+dLHHwjCRPdLuvnSznVrQOppMcDTZABOJU1dHKPybfwJxJVwTAu1QCnYc/EWJkW+Fo2EPn63EM4qKDjwxRcmKg5WVpYuXx7VtNrduwtycvJmzFizciUr09bQMG3y5E1r1vAnT3Oys+urq9nZ+urqGdOmmWoz7vKajQf5dntjI9+OatpHy5Z9sGSJ8UhU00zWpGk3e8qU/Jycory8GdOmpb5VxlRVVNMsnMqWw4eLi4oKc3NnTJu2c9OmqKYtX7RoVkFBQU5O3Z49vKrlixbNmDq1KC+vKC/PiL/m888LcnIKcnKmTZ68dMGCtoaGqKZljR0b1bQPlyyZNnkyK1y1ffuHS5ZsXLOmICdnQlbWhKysgpycjWvWNNXWlhQVFeTk5GZnFxcWNtXWRjUtNbvPP/usICenuKgod/r0inXrOKrUDTiVIotWxCYxEMiKKwkBdtxmAJq6zWjw9UFTEQ1UY0/2fOnj9w0h8wVieBOOpqVOhXGEPgNwKulrZI3QRTvJ+kKms245I6ZqFdklxZ4P7japfB20Mfr43ULInMqNa9bMmTlz5bJlOdnZDdXVc2bOnDJx4r6dO3OnTz+6f39U0/Zs3cpoXP3BB3NmzjQ6lds+/XTF4sXs7IrFi7euX//ZJ5/MzM+fXVi4pds727Rmzcz8/Jzs7Krt23nN7OCsgoL1q1czD27hnDlV27dzsbQvv1z9wQdrVq5s6LZBG/fty83OXjxv3uzCwvVlZaZdHpU9ZQoD3FpfP+7dd9sbG01g1q9ePTM/Pz8nh/l6zKncu3377MLCtoaGKRMn8qqO7t+/b+fOqKbt3b59QUnJgcrKubNmRTXt8N69swoKeLGFc+YcrKzku2yj5dChCVlZDfv2sd11q1Yxc5M7lXNmzlzbbf4yp5IVKy8tLS8tZdsFOTmff/YZ2965aVP+jBmMJVN2M6ZNYybm8bq6jd32MQtJ/S+cSpFFK2KTGPBtxZV0Vex4yQA09ZLdYOqGpiK8q8ae7PnSx+8dwq5YLN7ejjfhpE58cURGBuBUyqhaVNO4uxQUfreckaDwB3vdANljLcfn9APM15VM6eN3CyFzKjetWcPcxvJVqzZ8/PH2DRtKly9vb2yc/N57HyxZMruwkPl6B774Yun8+ZvWrDE6lW0NDZPee6+1vr61vn7Se++dPHx44vjx7Y2N7Y2NUyZO5PafVlOzY+NGVnNbQ8PECRPYQ4UTJ0xoa2gY+847xw4cMGr30bJljfv2NdXUfNj9WOVHy5ZtXb8+qmnvL1y4vqzMtMsDuVN57MCB97KyvrqQAQx7JLO9sfHYwYPZU6awZyo//+yzwtzclkOHeCXGjeLCwvHjxh2qqqpYt455i1FNm/zee7zM7MLCubNmzSoo+Oj99/nB6h07mK3Jj7AN7lRWbduWN2NG/d69aZ3K1vr6CVlZxtissWNb6+tN2UU1bcu6dXnTp69ZubJ6xw7jE53GWLYNp1Jk0YrYJAa8W3ElXQY7PjIATX0k26dLQVMRolVjT/Z86eN3ESF3BCKRSAfehINnJ8PFAJzK1CUctSN8CCIFzC1nhFRSvoEJhL1APEpGaSD5uqgmffxuIeROJXuab9OaNeWlpdxPHPPWWycOHfrKgpww4URd3cz8/ON1dSanMqpppe+/v2Xduor160vff7+ptvbtt96aN3v2vNmzs6dMqduzJ2/6dC4Nq7mptpYfzJ0+vam2dpLB+4tqWmt9/cQJE4oLC4sLCyeOH3+yvn7hnDnVO3ZENW3dqlXry8pMu7x+/v3oory8qu3bTWCOHTy4btWqhXPmLJ0/n7mNc2bOzBo79qNly3gNqRv7d+9mz2CmdSoPVlYeO3gwqmnzZs/+oqKChVdt2zZn5syopp08fDhvxowZ06axS/x/p3L79ro9ewpyctI6lSe7Hwg1IskaO7atocGUHSvQWl9fvWPHR8uWsecujVHGbTiVIotWxCYx4OKKK6le7ATHADQNjnuvrgxNRZhVjT3Z86WPXwRhJBLBm3CMM1psh5gBOJXExQ3qy9290uKWM9LrhUJZwGv2qLnbXufrdSOhj98thOmdyo0b2ROC2VOmsIcNp06a9EVFRd6MGcx/zJ4y5VBVFcdwpLa2ICenMDf3SG1tW0MDf+TwYGUlf3yyqaZm45o127tr/uoxzAkTmIjsmUoewg5uLi/nvzL52SeffPbJJyuXLq3ofqZy6fz568vKTLu8PfCnDtkRE5jmAwfYhQ5VVTEAc2bOPPDFF0V5eeyL3ryer77wvm0b+7HOo/v3T5s8uW7PnpKioqimHaysnF1YyEtuWrv2RPfzmEvnz/9882Z2/GR9fdbYsfznLCsrKhbPm2f8nUr2PfeyFSvmFxezh0ajmmb89nd+Ts6OjRtZbTs3bSrKyzN++5sdb29s/GDJEvYLmO2NjRPHj+/pydCopsGpFFm0IjaJAZEVV1JF2CHDADQlI4VrQKCpCJWqsSd7vvTxZ4SQvQkn3tZGbXXH577YAAMeMQCn0iNiM62WDz5krUlTRtyVMB3Hrh0GPGWPYBPyNF87hAuWoY/fLYRpncqDlZUTsrK+2LJlz9at7LUw/I06UU1LfaYyqmlzZ83i33fetHbtrIIC/oXoTWvWFOXlffU7ldu28Zo3rVnDyjBH0uRUTp86lX8Z/NjBgzOmTm2orp4+der84uLZhYXryspMu1xuk1P5FVoDmLaGhvwZMxbOmbP6gw9ys7M/37yZ/U7lkdraaZMnnzh0yPg7lW0NDXNnzWIv5/liyxb2JpyivLz8nJxDVVXcdqxYvz57ypSivLz5xcXG71/v3707b8aMvOnTZ+bnz5s9W6up4SEfLlnCnEr2xfm0TuWR2trZhYW52dm52dklRUXs5ylTs9u4Zk3e9OnsPT/8Ny45G8YNOJUii1bEJjGQ0YorKRI7VBmAplSVcY4LmjrnTtdVY0/2fGniNy71+XZPzZIX6GhuNs7esA0GlGIATqWLcvNRxbjRU/2sTE9n6R93yxmhn6kXCNOyZ2w2fNvi6rwMQWvSBDttvqYylHfp46eAkAIGyq2IFDY4lT2tDnA8YwZorgkzTgMBBgagqYGMkGxCUxEhVWNP9nxp4o9EIrwRMoTGI/xNOJ3NzfTXdaRmtAATYgbgVLooburAknqEvwzHxesGUhVcCRHa07KX2lqMR7gvKXLdoGLT5hsUGAfXpY+fAkIKGByIq2YInEq+XsCGKAM014SiWakdD03Dpz80FdFUNfZkz5cmfqMvWV1dnYjH+dLOuN5Tc1aKrMFAWgbgVKalxdlB0zgT7vEHroSzRsKi0rJnaj/M1GblU0+JXN3/2LT5+g/D8RXp46eAkAIGxxKrFginUmTRitgkBmiuCZMgYidDBqBphoRJUByaioikGnuy50sTP/MF4q2tPRkEOM7m4uABPPBVWUNNDdqDW+2B2UlGPo0Gk/E4558/YsnOSnScuxIhy4tL4Gle1dXVqfUbj/Btf/B43Q7T5stS45kaO4vXeDKtnz5+9EfK7SfT9uZDeTiVIotWxCYxQHNNmAQROxkyAE0zJEyC4tBURCTV2JM9XyL4Ld6Ew2btppkrX/JhAwyAAcYAnqkUbwk9WS1stSleP80auDNCEx5xVJw9403KuM3wpx4hnldP8Hi+PRUgfpw+fgoIKWAg3pDowINTKbJoRWwSA0TWhEmYsCPGADQV449iNDQVUUU19mTPN0D83BToOHrUNOczLurYjNl4xFQYu2AADEQ1DU5lps2ADUFpo1IHnNQjaQNlPAhXQkQ1fiMzVpLaWlKPGMtLtC17a6GPnwJCChgk6hTBQoVTKbJoRWwSAwGuCZNwYMc9BqCpe1xSqQmaiiihGnuy5+sn/kQsFm9vj7W0dPT2Jhy+9jNuBDsXxNXBAHEG4FTaF8jCo2SVGEcevm2/frlKwpWwqVfalpCWPV7SuGHzKsSLpc2XOGYjPPr4KSCkgMGoGrYtGIBTKbJoRWwSA36uCZMujB3PGICmnlEbWMXQVIR61diTPV9P8bvyJhzMmC1mqDgFBjgDcCo5FXwjfD4RT83FDYyxdsjs6aFI1diTPV/6+CkgpIDBTq9EmaimwakUWbQiNokBT9eESVfCjl8MQFO/mPbvOtBUhGvV2JM9X3fxM18g3traeexYtKnJlUkkZsyu0IhKQs8AnMpw/5qkdw0YY6yR20zdbdXYkz1f+vgpIKSAwdgrsW3BAJxKkUUrYpMYcHdNmFQ1dgJiAJoGRLyHl4WmIuSqxp7s+Qri52/C6Tx+nC3wLKZTzk5hxuyMN0SpxoDKTmWm7pJqbcM6X8XH2J4elrQmjZ9VjT3Z86WPnwJCChh4F8OGNQNwKkUWrYhNYkBwTZhUF3ZoMABNaejgJgpoKsKmauzJnq8D/D6bApgxW09ScRYMMAbUcSr5EATpXWFAzTHWrVakGnuy50sfPwWEFDC4MripUAmcSpFFK2KTGHCwJkyKxw49BqApPU1EEUFTEQZVY0/2fO3gj0Qi/E04/k/7MGP2n3NcUUYGFHEqBZ+Ak1FZrzGHfozlpqQXjSf07Jman+z50sdPASEFDKaGh92eGIBTKbJoRWwSA3bWhEkB2CHPADQlL1HGAKFpxpQZAlRjT/Z80+JnL+nmq7uepkf+HMeM2R+ecRXZGQiZU8nHHy/cJdm1dhd/+MZYP9tM+Nizbl2y50sfPwWEFDBYt0Oc5QzAqTSsQbEpxkDaNaFYlYgOmAFoGrAAHlwemoqQqhp7sufL8HNToKO5mc9+iGxgxkxECMAgzoDUTiUbgogzHFZ4oRlj+Y3MT6VCw55N0mTPlz5+CggpYLDZIFEMTqXIohWxSQzIvqZNSgY73QxA0/A1BGgqoqlq7EmabyIeZ1/orq6uJu4RYMaMiTgYsMOApE4l8fHHDvOyl5F0jCXSciRlz3GjlT1f+vgpIKSAwXETVS0QTqXIohWxSQxIuqZNygE7yQxA02Q+wrAHTUVUVI09WfJNxOP8eRPjN+Poz0fpI1RtWox8aTJA36nkQxBNApVFJd0YS8SjZA1GOvYE27ns+dLHTwEhBQyCDVWdcDiVIotWxCYxIMuaNgk0diwZgKaW9Eh5EpqKyKYae2TzTXR1ffUmnNbWzuPHO44c6WnSRn8+Sh9hT9ziOBjwkwHiTqXxDyR+0oJr9coA2TGWW9uUGw9Z9nrV3VkB2fOlj58CQgoYnLVPBaPgVIosWhGbxADZNW0SSuxkwgA0zYQtOcpCUxGdVGOPTr6JRKKrszPe1sZXd3ZmbPTno/QR2uEZZcCA1wwQcSr5+EPZXfJaC7nqpzPGythm6LDnT6uTPV/6+CkgpIDBn/YcgqvAqRRZtCI2iQE6a9okWNgRYACaCpBHNBSaigijGnvB5ituCtCfj9JHGIKZLlIIAQOBOJVsCAoBeyqnEPgYy29kMqoQOHs+kyZ7vvTxU0BIAYPPDVvey8GpFFm0IjaJgWDXtElQsOMSA9DUJSIJVQNNRcRQjT2f803EYvH29s6WFvaSbvEnUOjPR+kjlHeCC+RhYsBnpxIeZWgaj89jbMhajs/sBd7qZM+XPn4KCClgCLypywIATqXIohWxSQz4vKZNujZ2vGEAmnrDa5C1QlMR9lVjz+t82Uu6+SMn4takae5Ffz5KH6GJUuyCgUAY8M6pNI4/6I+BiOvpRf3U1PVbmKfM2KncT/bs4PG6jOz50sdPASEFDF635NDUD6dSZNGK2CQGvF7TJl0MO74wAE19odnXi0BTEbpVY8/9fLvfhBOJRDqPHYs2NXk9l6I/H6WP0GuNUD8YsMOAi06lhZ2E/mhHC7nKeKGp0d2Wi41M0XrBXqYY/Cwve7708VNASAGDn61a6mvBqRRZtCI2iQH317RJ1WMnAAagaQCke3xJaCpCsGrsieeb6Orq6uhgL+n2/2tx9Oej9BFKPccF+NAwIO5UcnfJghP0RwtyJD0lrqn/dy46VIuzRycXO0hkz5c+fgoIKWCw0xpRJqppcCpFFq2ITWJAfE2bVB12CDAATQmI4DIEaCpCqGrsOcg3kUhwR8Di2SV/ZmD056P0EfqjFK4CBqwZyMip5EOQdZ2pZ9EfUzmR/YiIpip7lEx3EfZkbDmy50sfPwWEFDDI2DsCwQynUmTRitgkBhysaZPisUOPAWhKTxNRRNBUhEHV2LOZL3sTTqylpePo0UCmMj1dlP58lD7CnrjFcTDgJwP2nUqRP5CgP/qpqT/XsqmpY3fbnyyCuopN9oKC5/p1Zc+XPn4KCClgcL3phrVCOJUii1bEJjFgc02bFIMd2gxAU9r6OEEHTZ2w9nWMauz1lG8iFutqb+dLOxFrwNPZFf35KH2EngqEysGATQZSnUovxh/0R5tySFTMjqZkb2GB82yHvcBBughA9nzp46eAkAIGFxttuKuCU/n1AhT/F2agpzWtcMWoIDAGoGlg1Ht2YWgqQq1q7PF8E/E48wU6mpslmhXRn4/SRyiR3IAaYgYaamp8sJPQH8PXhIyaeuFuh48xY0ZG9ozHw7ote7708VNASAFDWHuQ63nBh1eMrgAAIABJREFUqRRZtCI2iQG+pk06ih2ZGYCmMquXHjs0Tc+LvaMKsdfVFY9Gq6urO48dY6s71+cfPlRIfz5KH6EPMuESYMCCAe4ubVi3zqKYK6fQH12hkUglrOVAUxE5VGNP9nzp46eAkAIGkV6pVCycSnvLU5SywYBCa3gbbISjCDQNh47GLKCpkY1Mt8PMXvKbcNjjS7LP5+jjp49QqTkxkg2WAW5KpsJI/fZ3ahnxI+iP4hxSqMH41zVoKqKIauzJni99/BQQUsAg0iuVioVTmelCFeV7ZCDMa/gekw75CWgaPoGhqYimYWKPv6S788SJnt6EI/t8jj5++giVmhMjWbIMwKkkK02wwCzcbQYMY6yIQKqxJ3u+9PFTQEgBg0ivVCoWTqXIohWxSQyEaQ2flJjCO9A0fOJDUxFNZWePv6S719VdONZ49Oej9BEqNSdGsv4wwMcf+z89CafSH2nCdxWMsSKaqsae7PnSx08BIQUMIr1SqVg4lSKLVsQmMSD7Gj4pGex0MwBNw9cQoKmIptKxl4jFuCngYHIj+3yOPn76CB00G4SAASMDbAgyHnGwDafSAWlhCnF8I8MYK9IMVGNP9nzp46eAkAIGkV6pVCycSpFFK2KTGJBuDZ+EHjvpGICm6ViR+xg0FdGPPnuJeLwrGo2fPNnR3NzR1GT/kaW0Ux/Z53P08dNHmLZh4CAYsMOAKx4luxCcSjuEh6OMY1MybfoYY9PSYvOgauzJni99/BQQUsBgswOiGJxKkUUrYpMYoL+GT4KLHRsMQFMbJElWBJqKCEaRve6XdPOlnaA1aZoVyT6fo4+fPkJTk8AuGEhlwKPxx3ghOJVGNkK87e4tLKppGGNFWotq7MmeL338FBBSwCDSK5WKhVMpsmhFbBIDFNfwSQCxkzED0DRjysgHQFMRiUiw9/VLujuPH+84csTTKYvs8zn6+Okj9LSBoXJJGXDdTuqVBziVvVIkVwEf3G1GCMZYkYahGnuy50sfPwWEFDCI9EqlYuFUiixaEZvEAIk1fBIi7IgyAE1FGaQXD01FNAmEvUQi0dXZGW9r6zxxgq/u/JmpyD6fo4+fPkJ/WhquIgUDfPyBUymFXqRA+t9mWPoYY0WagWrsyZ4vffwUEFLAINIrlYqFUymyaEVsEgOBrOGTEGDHbQagqduMBl8fNBXRwDf2usTehOPWPEb2+Rx9/PQRutWWUI90DDBfkghsPFNJRIhMYXB3O9NAt8pjjBVhUjX2ZM+XPn4KCClgEOmVSsXCqRRZtCI2iQHf1vBJV8WOlwxAUy/ZDaZuaCrCu3fsJWKxrvb2WEtLR3NzVNOCevzENAGSfT5HHz99hKYmgV0VGCDlUTLC4VTSb3iBm5JpKcIYm5YWmwdVY0/2fOnjp4CQAgabHRDF4FSKLFoRm8SAd2v4pMtgx0cGoKmPZPt0KWgqQrSL7PGXdNNc3bHpkezzOfr46SPERDnEDPDBh8ifRiyohlNpQQ6FU2SbEMZYkeahGnuy50sfPwWEFDCI9EqlYuFUiixaEZvEgItr+KR6sRMcA9A0OO69ujI0FWFWhL1EVxf3BaJNTVJMNWSfz9HHTx+hFA0VIG0yQNZO6hU/nMpeKfKnAL+LydKWMMaKNAzV2JM9X/r4KSCkgEGkVyoVC6dSZNGK2CQGRNbwSRVhhwwD0JSMFK4BgaYiVGbGXiLR1dERa21lL+lmCzy5Zhiyz+fo46ePUK4WC7Q9MSDj+GPMBU6lkQ0/t2VvORhjRVqLauzJni99/BQQUsAg0iuVioVTKbJoRWwSA5mt4ZNCsUOUAWhKVBgBWNBUgDzdmj32km7pHjmxmPTIPp+jj58+QovmgVM0GeBDEE14zlDBqXTGm0iU7B4lyx1jrEgbUI092fOlj58CQgoYRHqlUrFwKkUWrYhNYsB6DZ9UFDuSMABNJREqA5jQNAOyUoqmssde0s3fhBOyCYTs8zn6+OkjDFmTDn06snwnN1Mh4FRmypj98tzaDmXjwRhrvyWkllSNPdnzpY+fAkIKGFL7Go6kZQBOZcpKFAecMpC6hndaE+KoMABNqSjhHg5oKsJldXV1IhaLd7+km6/u0t5cw3FQ9vkcffz0EYajJYcvCz7+hNJdStULTmUqJ46PKNJmGD8YYx23k6imqcae7PnSx08BIQUMIr1SqVg4lSKLVsQmMQAHJImOUOxA01DImJQENE2iw8ZOIh7npoBq8xvZ86WPnz5CpebEZJNlQxBZeD4Ag1MpTjK/kYlXJVENGGNFxFKNPdnzpY+fAkIKGER6pVKxcCptrFNRxB4DcEDs8SRTKWgqk1r2sELTXnlKdHV1dXTEW1s7jx2LNjUZPQLV5jey50sfP32ESs2JCSZrHH8IwvMNEpzKTKlGy2GMYYzNtOUYy6vGnuz50sdPASEFDMZehm0LBuBU9rpoRQG7DMABscuUPOWgqTxa2UUKTdMwlUh0dXby500svhmn2vxG9nzp46eP0GIGiVPuMsCHIHerDUdtcCrt6wiP0sgVxlgjG5luq8ae7PnSx08BIQUMmfZEZcvDqUyzaMUhZwzAAXHGG+UoaEpZHWfYoKmu6/wl3Z0nTnQcPWp/BqDa/Eb2fOnjp4/Qfu9ASREGLP5AIlJtaGLhVKZKya1tNJ5UcvgRjLGcCgcbqrEne7708VNASAGDg86oZgicSmeLfUSlYQAOSBpSJD8ETSUXMA18ZTXt+vpNOB3NzY4fOVFtfiN7vvTx00eo5uTYu6zhLjnjFk5lVNPgSDpoPBhjHZDGQ1RjT/Z86eOngJACBt7FsGHNAJzKNCt5HHLGgLIOiDO6pIiCplLIlBFIdTRNxGKumwKqzW9kz5c+fvoIrSeROGvNAB+CrIvhbK8MqOxUohX12jwsCmCMtSCn11OqsSd7vvTxU0BIAUOvXQ8FGANwKjNa46OwFQPqOCBWLITrHDQNl55fZRNiTRPxeFc0Gjt5svPYsY6mJi+eQFFtfiN7vvTx00eI6bJjBvAEnGPqUgPVcSrhS6aqL3IEYyzYs8+A7K2FPn4KCClgsN8mFS8JpzJ8RkRgGYXYAQmM06AvDE2DVsD964dJU/6Sbr6089oaUG1+I3u+9PHTR6j4LNlO+r6NP3bAhLWMIk6l17ewsDYPi7wwxlqQ0+sp1diTPV/6+CkgpICh166HAowBOJXuGwHK1hgmB0RZEU2JQ1MTISHYlVtTw0u6O44c8f9Grtr8RvZ86eOnj9D/Xkb/irCT/NcoZE4l3G3fmhDGWBGqVWNP9nzp46eAkAIGkV6pVCycyhA4D1RSkNsBocIiLRzQlJYebqCRS9NEIpGIxWJtbewl3Wx1F+BNWrX5jez50sdPH2GA3Y3apbm7RA2YCnikdioDv3Op0EJ6yhFjbE/M2DmuGnuy50sfPwWEFDDY6X0oE9U0OJVuLP1RRzcDcjkgEM0OA9DUDktylaGvaZcHb8Jx636v2vxG9nzp46eP0K2+I1c9MCWp6SWpUwmPMvCGhDFWRALV2JM9X/r4KSCkgEGkVyoVC6dSLpOBNFr6Dghp+kiCg6YkZRECRVDTRCwWb2+PtbR0NjcTvwGrNr+RPV/6+OkjJN4lvYCHL3d7wapgnfSdSrjbghJ7FI4xVoRY1diTPV/6+CkgpIBBpFcqFQunUmjNj2AjAwQdECM8bDtgAJo6II14CAVN+Uu6+dJOFmtAtfmN7PnSx08fYYjnxNKNPyHWotfUiDuVstzCeuU5fAUwxopoqhp7sudLHz8FhBQwiPRKpWLhVBJ3FWSCR8EBkYkvGbBCUxlUygxjIJqyl3QzXyCQN+G4dV9XbX4je7708dNH6FbfoVAP7CQKKjjDQMSphLvtTL4AozDGipCvGnuy50sfPwWEFDCI9EqlYuFUZrbIR2kLBgJxQCzw4JQ4A9BUnENqNfikafdLumOtrZ3HjzNrMhweQVDzmw1lZdPGj3/71Vc/XLTIzzlKUPm6lSN9/PQRuqVFgPVwdylADLi0IAOBOJWs5QgiR3iwDGCMFeFfNfZkz5c+fgoIKWAQ6ZVKxcKppGYjSIzHJwdEYobkgw5N5dOsN8Teacpe0s1NgXBYk6YJQSDzm4d+c+/Zff6tz/VnXdDvjPMuOuuyKy6u3LzZBMyj3UDydTEX+vjpI3RRDh+qCvf44wOBZC/hs1MJj5JsS8gUGMbYTBkzlleNPdnzpY+fAkIKGIy9DNsWDMCp7G1Zj/O2GfDOAbENAQVdZgCaukwogepc1DTx9Uu6O8i/CcfiLpjRKf/nN88MevLca0+/dkRf/u+Sx8+7oO+3M4LtuLD/+TqGmjaQPn76CNMSS+dgKP8iQodeOki8cyqN7jb6Ix3F3UICTUWYVI092fOlj58CQgoYRHqlUrFwKgk4B2GB4KIDEhZKpM8DmkovYUoCIpoaX9LNV3dK3TJ9nt/U7937rbNO4x4l3+hz/VnTsrJ8YN7nfF3PiD5++ghdF8WVCtUcf1yhTtJKXHQqLdxt9EdJm4cFbGhqQU6vp1RjT/Z86eOngJAChl67HgowBuBUpqzjccApAyIOiNNrIs5bBqCpt/wGUXtGmrKXdMMU4DMGn+c3Hy5ceN5FZ3GDkm98945///MT/81Rebfhc76uJ0IfP32ErovioEI2BDkIREhoGBB3Ku3cyNAfQ9NgeCLQlFPhYEM19mTPlz5+CggpYHDQGdUMgVMZhFUQ0mtm5ICElIOwpQVNw6aorltryl7SHQ/dm3DcusH7PL+BUykonM96OUBLH6GDpFwMgUfpIplSV5WRU2nHlEzLBvpjWlqkPghNReRTjT3Z86WPnwJCChhEeqVSsXAqw2dEBJaRtQMSGCxcWIABaCpAHtFQs6bdL+mOt7XxpZ3FN+OUujumTdbn+U3P3/4+E9/+TiuQ6aDPepmubmeXPkI7WYiXwfgjzmG4a7DvVIrcwtAfw9eKoKmIpqqxJ3u+9PFTQEgBg0ivVCoWTiVRN0FGWGYHRMYcgDmZAWiazEcY9r7SNJFgvkDn8eNK3fDEk/V/fvPMoCe/fR3eqKM5085/vTLFSR9hphnZLC9iJ9m8BIqFiYFUp9ILd1vZ/himpmLKBZqaCMloVzX2ZM+XPn4KCClgyKgbqlwYTmUYrAciOcDVIiKEizCgqYtkBlhVIpFIxGKxtrbOEyf46k7lO5/j3AOZ3zzxf357dp9/63P9WRf0O+O8/zjrsisurty82XEKGQUGkm9GCK0L08dPH6E1w5mexfiTKWMozxhoqKnxwd1WrT+q0LqgqYjKqrEne7708VNASAGDSK9UJzYSicCpDNA9CNul4WqFTdHeftMwfPmGKaOuWIybAsYFHu7QIvf4oNjbUFY2LStrzOjRHy5cKII/09ig8s0UZ0/l6eOnj7Anbu0cZ0OQnZIoAwZ6YoDfyDasW9dTGbeOh7s/usWSXPVAUxG9VGNP9nzp46eAkAIGkV4Zylh+ozdlB6cyTNZEwLnAqQxYAA8uD009INWrKhPd1mSspaWzudk00Bt3cYc2spHptmrsyZ4vffz0EWbaR1h5eJTOeFM8qqe1SlTTUr/97QVXYe2PXnAlS53QVEQp1diTPV/6+CkgpIBBpFeGL9b4PI0pOziVXrkGCtYLVyt8okNTypom4vGuaDR28qTF6s404kc1DXfoVE7sH1GNPdnzpY+fPsJeewcffyzmmr1WggJgwJoBOJXW/OBsTwyEYIztKTUfjqvGnuz50sdPASEFDD50XoKXcDBdhFNJ2YiQDBtcLckEswEXmtogyb8iia4uPspHm5qc3YRwh3bGG4tSjT3Z86WPnz5CU39hQ5DpIHbBQEYM/P8bmWb3ZVlwKjNiGIU5A9KNsRw5hQ3V2JM9X/r4KSCkgIFC7/YBg/gfsOFU+ucyhP5KcLXCJzE0DVjTRKKrszPW2tp5/HjHkSOueAS4Q4vcm1VjT/Z86eOnj5D3F1fGH14bNtRhwJWWA6dSnQbjbqYSjbHuJu5KbaqxJ3u+9PFTQEgBgyvdk2wlDv4Y2VMucCoDNiLCdHm4WmFSk+UCTX3WNNFtTfIhXvyPUalDP+7QqZzYP6Iae7LnSx8/TYR8CLLfNVASDKQy4IpHyaqFU5lKL47YYYDmGGsHOYUyqrEne7708VNASAEDhd7tCgavp4twKn02IsJ8Obha4VMXmvqgKXtJd6ylpcPyTTiu3FHwO5WCNKo2v5E9X/r4CSL04g8kgv0O4cQZ4GsV7xoPnEribYAsPIJjLFmuUoGpxp7s+dLHTwEhBQypfU2WI97d5dMyAKfSByNClUvA1Qqf0tDUC00TsVi8vT3W0sJXd2lHZ48O4g4tQqxq7MmeL338ASLk44/P806RDohYIgz432a8diorN2+eNn78M8888+GiRURIBgxXGAhwjHUFf7CVqMae7PnSx08BIQUMwfZrB1fnM0YHsSIhcCq9MCIUrROuVviEh6auaJqIx/kQ3+H0TTgiA70xFndoIxuZbqvGnuz50sfvG0I2BGXa4FEeDBgZ4Dcy40F/tj11KocPG3L6maf2uebsC/qd8Z3Lz7mg77c3lJX5kxeu4jUDvo2xXicSSP2qsSd7vvTxU0BIAUMg3dn+RenMGOFUumJEoJKvGICrFb52AE2daZro6urq6Ii3tnYeOxZtaqIz4uPb3/bv02lLqja/kT1f+vh9QEhq/EnbrXCQJgOkWo53TmXWO299+6p/u3ZEX/7vikF9zvveOfV799LUBagyYsCHMTYjPHIVVo092fOlj58CQgoYyI4DpO77UU3zyamsq6t78cUXn376abbsP3DgwKBBg1544YWhQ4e2t7dbeAGRyCsWZ3GKFANwtUjJ4QoYaGqXxpQ34fj/5Tibtz3coW0SlbaYauzJni99/O4iZFNMsoNP2j6FgwQZoLZWiWqad07lKd/412ue/x63KdnGudeePmb0aILSAFKmDLg7xmZ6ddnLq8ae7PnSx08BIQUMgY8MfLpIfMbok1O5du3aPXv2cKdy2LBhO3fu1HV95syZJSUlFl4AnEoLcqidgqtFTRFxPNC0Jw6NL+nuOHo08FuOfQC4Q9vnKrWkauzJni99/PQRpvYCHAkNA7KsVbxzKis3bz67T9IDlcypvOTx827q/9PQCK1yIhhjRdRXjT3Z86WPnwJCChhEeqWzWOKOZE9J+eRU6rpeX1/PncqHH344Ho/rur5169bRo0cbvYDVyR84lUZyiG/D1SIukAN40NRIWtfXb8LpaG4m+MhJT6O86biad2gTCY53VWNP9nzp43eGkBtMjlsyAtVkQNK1CpxKNZurK1k7G2NduXQIKlGNPdnzpY+fAkIKGHwbHGSfLgbjVD7yyCPMqayoqHj11VeNXkCyUbk6EnmlGh8wAAbAQEAM8CE+EokEBAGXBQNgQF0G+BCkLgXI3A0GWENyo6aw1dHTt7+HDRsWtlSRDxgAA2AADISXgfDd6INxKkeOHLlt2zZd1/Pz8+fNm2d0Kk3beKbSRAjlXTx/R1kdZ9hU0zQRj3dFo/GTJzuamwN/SbdHf3BT6m+JrnOoGnuy50sfvzVCeZ+Ac73roUL7DHB3234I/ZLe/U7lV2/UuTLpC+B4ow799mAfofUYa78eNUuqxp7s+dLHTwEhBQyujyfsvu96tYFX6JNTOW7cuKeffvq2224bPHjwjh076urqBg0aNGTIkOHDh0ejUQsPBU6lBTnUTqnmalHj3ws8odeUv6SbL+1Cbw2E8g7t261UNfZkz5c+foZQnfHHt66q7IXCegvzzqmMatrwYUNOO/PUPv91zgX9zvjO5edc0PfbG8rKlG1CIUuc/l2AMuGqsSd7vvTxU0BIAYPjXm+cLob1dm8kxyen0rGHAqfSMXX+B4be1fKf0sCvGEJNE4mujg420HccOWIcDRXZlvoOHbhGqrEne75k8fP5JVmEgfc1ALBmwLhcsS4ZjrOeOpVRTavcvLkkL2/QoEEfLlwYDsaQBWMAY6xIS1CNPdnzpY+fAkIKGOz3Snavt18+ZCXhVAbuBYUHQAhdrfCI4zCTEGjKXtIdb2vrPHGi4+hRxUf8qKbJdYemdsdVjT3Z86WGn7tLvGFTQ8iBYYMUA7hzee1UMrnRH0k1e1fAQFMRGlVjT/Z86eOngJACBju9Evf9qKbBqXTo4CAslYEQuFqpSSl+RFJNu2Ix7gjwZ5fs3BVUKCPLHZqmFqqxJ3u+AeLnQ5B1Sw4QoTUwnCXCANYqTAg4lUQapHQwMMaKSKYae7LnSx8/BYQUMJh6pc0ZoylKhV04lYo7UW6mL6mr5SYFoatLFk0TsVhXe3uspaWjuVmFgVskR4J3aJF0fI5VjT3Z8w0Kv/0/kASF0OeOg8vZYQBrFQuW4FRakINTFgxgjLUgp9dTqrEne7708VNASAGDsevZnzEaoxTZhlMZOm8puIRkcbWCY0i+K5PV1PiSbqzuMrpdUbtDZwQ+8MKqsSd7vl7j54OP44mm1wgD7zIAYJMBx03IZv2yF4NTKbuCQeHHGCvCvGrsyZ4vffwUEAaFQXzGKNKXJY2FUymfeUQWMVlXiyxj9IHR0TQRj8ejUT7KSzrgUoAd1B2aQu7iGFRjT/Z8Xcfvup3kOkLxRo4aPGWA38Vcb0uewg68cjiVgUsgKQCMsSLCqcae7PnSx08BoT8Y2L1epPchFr9TSd8pkgkhHVdLJtZoYw1S0+6XdMdaWzuPH2cv6ca6zpWblj93aFegEqxENfZkz9dF/B5NOl1ESLC/ABL3JUGFIANwKgUJVDYcY6yI9KqxJ3u+9PFTQOg1Bo+miyIdWd5YPFNJ2yiSCl2QrpZUREkE1k9N+Uu6+dIO1qQXtxav79BeYKZTp2rsyZ6vA/w+jz8OENLpDkBizQBuYdb8ZHQWTmVGdKEwZwBjLKfCwYZq7MmeL338FBC6iIHPGB10LoTYYQBOpUSuEXWofrpa1LkICz6vNU3EYvH29kgk0nH0qJ0BC2XEGXDxDi0ORroaVGNP9nzt4A/WTrKDULpuohpgvlYJti2Fm3Y4leHW17vsMMaKcKsae7LnSx8/BYRuYcAdX2RssRkLpzIslhKBPLx2tQikqBwE1zU1vqSbr+5sjlYo5goDbt2hXQEjXSWqsSd7vhb4iYw/Fgil6x3qAMb6xH+t4VT6z3k4rogxVkRH1diTPV/6+CkgzBQDny7i1i8ymDiLhVOpnPfkXcKuu1reQUXNNhkQ15S9pJuP8s7GKUS5yECmd2gXLx2CqlRjT/Z8OX42BBFsgRwhQWyAZGIANzITIX7uwqn0k+0wXQtjrIiaqrEne7708VNAaI0BN3qREcP1WDiVNh0bFOudAXFXq/droIS/DDjQlL2kO3byZOexY9Gmpqim4W9Qrg/cIhVa36FFalYhVjX2ZM+3urqarEfJ+ovsDIe112OtQk1ZOJXUFJEFD8ZYEaVUY0/2fOnjp4DQAgNWrCLDhRexcCr9NX5CfTUHrlao+QhDcnY0TXR1dXV0xFpb+dIOA70Xg7VbdVrcod26RIjrUY09ifJNO/7Qx08fYYi7c0+p4RbWEzMBHodTGSD5Ul8aY6yIfKqxJ3u+9PFTQMj/hk38L9kiPTc0sXAqw2AnEcnBjqtFBCpg2GQgrabsJd3/b3w/ciQ0o6EiiVCYJchLtWrsUc7Xjp1EGT/rBfQRyttbe0We1t3uNQoFAmEATmUgtIfgohhjRURUjT3Z86WPPyiExhljUBhEemLoY0e+9NJ3zj+/zwUXRIYONSYLp9KmY4NivTOQ1tXqPQwlCDPANWUv6Y61tLCXdOPPUMZhVK5t3KFF9FKNPYL5cnfJjo4E8Ztg00doAiz1rnGtInUiCoKHU6mg6K6kjDFWhEbV2JM9X/r4fUaYdsboMwaRDqhIbMuhQ88/++z+zz//YMGCs886y5g1nErCLpFs0LirJRtw4E3DAHtJNx/iscAzjptSb+MOLSKfauwFni8fgpypFjj+XmHTR9hrCvQLCLYi+gmqgBBOpQoqe5EjxlgRVlVjT/Z86eP3DqH9G713GET6GmI3lJVdftllcwsKjFTAqUzj0eCQMwbgVDrjjUjUV2/CaW+PRCIdzc18jMBozqkIzQY0FZFSNfaCzVf8DyTB4rfT0ugjtJMFnTJ8rSLeeOgkBSRRTYNTiWbgjAGMsc54Y1GqsSd7vvTxe4Qwozu+RxhEOhpio5pWkpe37qOPTFTAqSRiE4UBBpxKuVQ0vqSbr+5MAwRGcxMhIdiFpiIiqsaeP/ny8SejuaYdHf3BbwdJT2XoI+wJOZHjrrcZInkBhokBOJUmQrBrkwGMsTaJSltMNfZkz5c+fkGErkwXBTGk7Sk4KM7ATddfnz1hgqkeOJVymUuk0cKpJC2PrrOXdPNR3jQWpN3FaJ6WFqkPQlMR+VRjz4t82RAkooL9WC/w27+6nZL0EdrJwv8yGd3I/IeHK7rOAJxK1ylVpEKMsSJCq8ae7PnSx58pQi/+GJkpBpEehFhBBoJxKidMmDC4+/Poo49OnjzZwt+JRF6xOItTpBiAU0lKDl3X2Uu6421tsRMnot0v6c7UI8BoLjjCEgyHpiKiqMaeu/lmOv6IKMVi3cUvjie1BvoIUzH7f8T/luN/jriiNQNwKq35wdmeGMAY2xMzdo6rxp7s+dLHbx+hd/d9+xjs9BGU8ZSBYJxKZujEYrHnnnvu+PHjFv4OnEoLcqidglNJQRH2km42vouP8hjNPR1/A6kcmorQrhp7jvPlQ5AI2+KxjvGLX9pmDfQR2kzEo2LidzGPgKFanxmAU+kz4aG5HMZYESlVY0/2fOnjT0XIp4tePD6ZtvGnYkhbDAcpMBCkU5mXl7dy5UqTubM6+QOn0sQP5V04lYGow61J45tw3BpcMJq7xSSdeqCpiBaqsecsX9+mm71K6Qx/r9W6WIA+QheTtajK/7WKBRicIsgAnEorHpiBAAAgAElEQVSCokgBCWOsiEyqsSd7vvTxV1dXBz5FdIWln1x9tUjPmvTuu+PHjOE1mHb5cZsbjzzwwK6NG20WlqtYYE5le3v7Y489lkgkTOZOslG5OhJ5pRofMAAGemCAr+56OI/DYAAMgAGvGODjTyQS8eoaqDekDKDNhFRYpAUGwAAYAANgwMwAnzGaT2Syf+eddy5fvtwUsWLFisGDB5sO2tzdu3cvK7l79+4HHnjgF92fO++8c9u2bdY1XHHFFT0V4HWyAoMGDfrLX/5iKvzaa6/985//5AdNu1dffXX//v1vu+226667bsyYMbxYTxsDBw5ctWpVT2fHjBnz85///LrrrisqKuJltm7d+vjjj1966aX8CNtYtGhR/+7PVVdd9d///d+VlZXV1dV9+/atrq5+6qmnrrrqqqqqqurq6uLi4qeeeuqNN964+eabL+r+3HzzzW+88cann356zz333HzzzT/72c/uvvvuTz/9tLq6OjWdGTNm9O/f/+67777hhhuysrJMGIy7gTmVpaWlEyZMMNmUqbt4pjKVE7JH8EylR9Kwl3TzId7PP4a48ncnPwHjWr0yAE17pciigGrsGfNlQ5AFOQRPGfEThBfVNPoI3eUtkBuZuymgtkAYwDOVgdAe7EUrN2+ek58/7PnnP1y0yDES1cZYx0SlDVSNPdnzpYO/pxmjIMJf3XPP5jVrpowb98gDD7z8j3/0v/HGys2bf/Pgg9dceeXaDz6YMXHiwF/+8v6BA/OnTo1q2isvv/yre+4Z/PTT/3XVVVFN42fHjRsX1bTrr732j48/Xrp0KWv5Kxcv/uPjj7PthbNm7fj000N79tw/cOCv7rnn8d/8pr2xccLbb99799133HprwbRpUU1jz1SaDprq/GqOt337qyNGvPHKK5WbN0c1rWrr1lv69XvyiSfuHzhw/Jgxpl3eB6+/9tqDX3wR1bSWQ4cu7Nu3vbGRg2epfbx8+Z233vrAwIHP/OUvUU1jz1SWLVt2/8CBrfX111x5Ja+qobq63w03tDc2Hq6q2lBWxo+vWbHii88+u+rHP+ZHopp2tLb2kosv3lNRwQ6Oe/PNbevWRTXtogsvjGrai88995sHH3zrn/+Malrp0qUvPvccK/bu66+/+/rrbPvOW29dPHs2214wc+btP/85o9qUTr8bbqjZtSuqadqXX07ploOFpP43MKdy8uTJixcv7tXZgVPZK0V0CsCpdEsL9pLueGtr5/HjHd1vwolqWiBPywveUVJHHBwJnAFoKiKBauyxfHuacYow6U8sfb3oIxRRSt6WI5I1Yr1gAE6lF6xSrnP4sCFn9/m3PtecfUG/M75z+TkX9P22cZltH3m4x1j7PDgrqRp7sudLAb/1fV8QIXMqp2Vl/WPQoKimjX3jjcljx5bk5Y186aWThw//6NJL2xoa2hsbr7nyyhN1dT/+0Y+imranouLcc84xnr388sujmvb9733vcFUV7xdNNTW/vOOOJ594omDaNGar/XPYMGZKFkybdriqavLYse2NjQ3V1T+77jruVJoOmuqMatqwIUOqtm79cudO5usNe/75ounTo5r23FNPjR8zxrTLwXCn8nBV1aX/+Z9G8MyFXFpSUrllS1TTrrz88hN1dY888MDi2bPvuv32o7W1vBK2sWrp0vsGDPjLH/94/8CBGw1OJTtrcio/Xr780V//2lSD0an8aMmS2265ZfemTWmdypZDh/7zP/7DGH7RhRe2HDpkSieqaflTp956881vvPLKx8uXtzc2GkNM24E5lTY9HTiVNomiUAxOpWMVjC/pZkO89UBv6sbe7QreUbwDhpodMwBNHVOnwhNwpvFH9tZCHz99hM76C5FbmDPwiCLIAJxKgqJ4Bykve/JZl5x+7Yi+/N8Vg/p866zT6vfuzfSiYR1jM+XBWXnV2JM9Xz/xm6aLNhuYIELuVLKH+KZlZb37+uvMqazZtevb55zzu4cf/t3DD//suuu2rVt32y23MFQXX3SR8ew111zTUF19ZbdfaYJdvX17wbRpN9900+LZs//4+OOr33+fFxj35pt/fPzxp//8Z+busWcqTQdNdZ6oq7v8sssevPfeB++990eXXnr84MEnHnvs4+XLo5o27s03x48ZY9rl17r+2mvvuPXWe37xi7vvvLN06VIj+J9dd11DdfWK+fN//+ijT//5z+d/+9tNNTWPPPDAD3/wg2HPP89r4BsfLFhw5623ssc5b/rZz/hxtmFyKj9asuSRBx6IatqxAwduu+WWfjfcwOrkz1SWLl26ff36O2+9Na1TefzgwQv79jVe4qILLzx5+LApHVbgRF3dx8uXD3v+efbcpTHKuA2n0rG5hEAzA3AqzYxY7vM34QTysKRxFLDYFryjWNSMU0ExAE1FmA8fe9bjj+z50sdPH2Gv/cXZcqXXalEADBgZgFNpZCP02//7G6dc8/z3uE3JNr57x78PGfxMprmHYIzNNGUXy6vGnuz5eorferpos9UJIkzrVM7Jzx/+wgut9fXcd9taXt68fz/zDfft2HHuOecYz37wwQdRTeOFGfIlxcXvz53LtoumTx/yzDOjhw+f/t57UU2bmpVVUV7Oyu/49NMruh/V/MnVVx/as8d00FRnzqRJ08aPZ3XOmDhxxsSJQ//+98Ls7KimPfWnP40fM8a0yznkDyGyI0bwW8vLo5p2+WWXNVRXn6ir+26fPo379j3ywAOb16y5+84713anxuuJalrNrl3MqWyorr6h+2lQ41kT4OMHD1504YXb169nZT5YsODJJ54wPlPJviw/atiw3z/6aNpvf99x661zCwpY+IKZMwfcdZfx29/seFtDwwvPPnvy8OGoprU3Nv7o0ktTHwXlIOFUWppJOJkJA3Aqrdli1mRnSwt7SbcUj5wI3lH4QIMNOgxAUxEtQsMed5es2ZA9X/r46SM0tRAp7lwmzNgNAQNwKkMgos0U6vfu/dZZp5lsymtH9L3k8fOuvPqrr21m9E+6MTaj7LwurBp7sufrBX6b00WbTVEQYVqncmt5+SUXX/z+3LnZEybcN2DAfQMGDH/hhaimDXnmmYfuu2/Y88+zr4Hzs88++2yqU7n/889/dc89A+66674BAwbcddfebdsOV1UN/OUv2e9Uthw6dPvPf/7EY4+NHj78ln79lhQX/+Tqq1vr600HTcbfjT/9Kf+CeUN19U3XX1+5efONP/3p7x999IGBA7Peesu0yzk0OZVRTePgWWrPP/vsfQMGPPOXvzz1pz8Nf+EF9juVtbt2Xfdf/9VUU2P8ncqopo0ZPXrAXXf9vH//DxYs4Lbj5LFj7/nFL751+un3/OIXa1as4JfetHr1bbfccuvNN997992/e+SRfTt28JAXn3uOOZUnDx++8vLL0zqV+z///P6BA2/p1++Wfv0euu8+9j361HSmjBt368033zdgwC9uu43/xiXHYNyAU2ltLuFsBgyo41TyUdu4kcrUV2/CaW83ljH2PSm2Be8oUuSoGkhoKqI4EfaMowrf7imvXgv0FBiCb7sT0Ysaw7xJGDcsQLJTrHCvxVAADHjBAJxKL1ilWSecSjq60L+HusuV7Pmm4jfe5fm2BWle3+hTEVqAETy1pLi4raHh2IED115zjbEqPzEYr4ttBwzAqUz1l3DEIQNKOZUmjiKRiK7r7CXdsZMnO48dizY1sQ7pytPyDvq2KyEYzV2hkVQl0FREDiLspY4qqUdYmj0dt0kCkXxtok0tRh9/IAhTW4XpiJ31TCrbOAIGvGMATqV33BKsGd/+JiJKIHeoAHOXPd9U/Kabu/ULWlMLu65FKkLXL8ErfHPUqLtuv/3uO++ck5/PD4bgb/DGXEK/DafS5Dhh1zkDSjmVn3322eTJk1977bURw4aNGDq0f/Jn2JAh4fg3aNCgcCSCLDgD0JRT4WCDCHv9+/c3gTeOQKZTIrtE8nWcAn38gSBM2344yaln+SlsgIGgGPjHs8/+8YknvL56IP3R66RkrP/eAXd/46x/vaDfGfzfudeefuq3vvGPzCel0FSkAajGnuz5puLv37//s3/964P33vvkH/7AWkL//v35HyMjkYhI83AQm4rQQSWCIRQwCKagTjicSufGHCJNDITbqdyzZ09hYeGzzz573XXXRSKRM8888/LLL3/5a0cyrEs7jObhuxlAUxFNibDHfEljIh4NQUTyNWaa0TZ9/IEgZK3F6G571H4yEguFwYAFA3AqLcgJ5al+N/3sG6efcvr5p572vVNOP+fU08745h8ff9xBpoGMsQ5w0gxRjT3Z82X4n/3rX3/9q1/d8NOf9v3e9/7lX/7llFNO+cEPfvDYI4+wNhbs7Z4CwxQw0OzvBFHBqTS5bdh1zkDInMojR468//77kUjkrrvuOvPMM88777x777ln9MiRv/vd7yKRSNfJk10nT4bjK94Wj477+ZS+BQyccpEBaCpCZuDs8b+Em7Lw6Ds7gedrSjPTXfr4fUNo/PGp1NaSeiRTqlEeDHjKAL797Sm9NCuv3Ly5JC9v2JAhHy5c6Bihb2OsY4SUA1VjT9J8tS+/fH/u3Fdefvn2228/79xzzzn77F/ecceIF1/87W9/++KLL5oaWLC3ewoMU8BgEgW7PTEAp9K5MReyyBMnTixbtqy8vNxxXrI7lW1tbWvXrv2f//mfh3796+9///vsb1A33XTTww8/XFddzaxJ9l84lT0NKDhOnwHcoUU08pO9nkzJtD8z5NHU0898RXTpKZY+fh8QGj1KRlRqa0k90hOlOA4GAmEATmUgtIfgoj6MsSFgqacUVGNPlnyPHzy4ZsWKd19//dFf//o/fvjDb51+et++fW+44YaHHnpo77ZtRjVTb+6pR4zlvd6mwDAFDF7zHJr64VQ69uVCFVhbW3v++ec/9NBD55xzzowZM5zlJp1TefLkyVWrVr3xxhu/+tWvLr/88lNPPbVPnz7PPPVUfnb27ooKozVp2uYOgnEjNIOCMRGM5kY2wrENTUV09I0966mkceTh2yJ59RTrW749ARA8Th+/uwhtNgZezLghSDXCwYCnDMCp9JTeEFfu7hgbYqLSpqYae2TzbWto+Ozjj6eMG/fHxx+/8vLLv/GNb1xz5ZVPPvHEtPHjt5aXjxw5ksmXit94l+fbabX252AqQn+ua7wKBQxGPNi2YABOpTNTLmxRCxcuZG+v/v3vfz9q1Chn6dF3KuPxeEVFxZQpU/7whz9cdtllp5122s39+j0/ePBDDz305JNP8iclTb6kxS7/9rdFH5P6FEZzqeVLCx6apqXF5kEv2KMwd+wpfS/y7elaXhynj58+Qi90QZ1gIFMG4FRmyhjKMwYwxoq0BNXYI5Vv5ZYtRdOnD3766Zuuv/60b37zkosvvvLKK3/5y1/++c9/Hj58eFpZSeEni5A+S2mpU/MgnEpnplw4o9avX3/FFVe0tLQ4S4+mU1lTU1NSUvL3v//9xhtv/OY3v3nuuedeffXVAwcO3L5pU+zECQsX0s4pOJVqjptSZ407tIh84uwxX1IEg5+x4vn6iTb1WvTxO0NI2d1OVQFHwIA4A3AqxTlUswZnY6yaXKVmrRp7weZ7aM+eBTNnDhsy5I5bbz3z3//99NNPv+SSS14dMeLDhQuP1NSkqpN6JFj8qXhSj1BASAFDKjM4kpYBOJXOTLlwRmVnZ69evdpxbkScymPHjq1cuXL06NEDBgw455xzzj///PsGDnx91KjS5ctffvllO/6j/TJwKtMOKzhImQHcoUXUEWFPLo+SsSSSrwjPbsXSx98rQpiSbjUG1CM1A3AqpZYvQPC9jrEBYqN/adXY8znfIzU1KxcvfuOVVx4YOPB73/3uGd/61q033/zic8898sgjQ4YMcdA8fMYvKUL6LDkgNqwhcCod+3IhDJw3b97f/vY3x4kF5VR2dHR8+umnWVlZjz766A9/+MNTTz31+9//Pvtd4X/84x/2bUcHJeFUhnVkDHFeuEOLiGuHPW4tWf/WpAgM32Lt5OsbGAcXoo/fGmEImpAD1RACBlIZgFOZygmO2GHAeoy1U4PKZVRjz+t8T9TVla9cmfXWW7975JFLLr6YvSDhpz/96QMPPLB70ybxluY1/nAgpM+SOM+hqQFOpWNfLoSBNTU1W7ZscZyYn05lZWVlQUHB008//ZOf/OSUU04599xz//SHP2RPnOjKd7rtW5ZwKkMzFKqTCO7QIlqnZc8HO2lDWdm08ePffvXVDxctEsGfaWzafDOtJMDy9PEzhGFytwOUG5cOMQNwKkMsrqep0b8LeJq+YOWqsed6vu2NjVvLy6eNH//kE09cc+WVp5xyyo8uvfS/f/vbie+8s6GsrLW+XlAgU7jr+E31i+9SQEgBgziTitQAp9KxL4dAMwOeOpVHjhxZunTpiBEj7rjjjjPOOKNPnz4P3nff7bff/oc//MH173TDqeTDH0ZzTkVoNqCpiJRG9ri7JFKhndjf/u7X5373rD7XnN3n+rPOu+isH191aeXmzXYCxcsY8xWvzf8ayOLn7jZZhP6LhSuCAQsG4FRakINTFgxgjLUgp9dTqrHnSr57t22bnZMz5Jln+t944+mnnfaDvn0fvv/+O++884knnnj55Zd75VykgCv4RQD0GksBIQUMvRKFAowBOJVmuw37jhlw16mMRqPr1q0bO3Ys+073v/7rv/bt2/fGG2+cN2tWXXW1fTPR05J4phIjqXQM4A7tTDLmS/rP3jODnjz32tOvHdGX/7vk8fMu6PttZ1lkGuV/vpkitC5PDX+qu00NoTWfOAsGgmIATmVQzMt+XYyxIgqqxp6zfBuqq9+fO/eVl18ecNdd55177qmnnnrR/2Xvy8OiuNL17x93XDG4jXvU6Gi8GhccMyQmbtEYNSGucU+MxC0hg2I0mhEjJEyMZkwUFReCC7LJDgoiKKCALIoCShBkl71lL4Wobf+em7pTv56mu+nuU939nTofj8/cU6fOOfW+71ff1899U1Vn5MgZM2aE+/lV5OWR6K/vXMPw63sVkvEQEELAQKIhU3PRqTTYl8OJqgoQOpVyufzevXunTp3atGnTxIkTu3TpMtHKauO6dR7Hjn3xxRfPm5uN6jkatjg6lUyVS2mQxV9ofePIu0v8LBOrV5Wf3/3PLwkepdAYPPnP7q6u+hIxYLyJ+RqAUPsUM+Jva0qqhWpGhGrxYCcqAFMBdCphxgU+KqyxJDFiTT0d+TaWlcVFRPzk4rJ88eLhw4ZZWFhMnTzZwc7O28Njy5YtJIITztURP+FVSKZDQAgBA4mGTM1Fp1LVbsNjgxUwwKksKSkJCAj4+uuvp0+bZmFh0atXr3HjxvFPyD+prTXMPTTlLHQqmSqX0iCLv9Ca4ihYS8KbuW1Hmli96NDQASP/LBiUQmPIe702fLa2LTzRe0zMVzL4tdxCKhxpV1iFDh6iAkZSAJ1KIwkr+WWxxpKEmDX1NPF9XFV169q1E4cOrVuzxmrcuK5duw4cOPD1119fsGCBnZ3dk+pqEpFFnKsJv4iXIFwKAkIIGAhlZGc6OpUG+3I4UVUBXZzKhoaGy5cvf//99zY2Nn379rWwsHj11Ve/2737UlhYXXm5KU1GUa6FTiU7tVIyTPEXWgil7naSMMXE6qFTKShvWMPY8dLF3daO3NgItV8dz6ICtCiATiUtkYKGE2ssSURYU0+Z729paZ4nT9pv2vTWG2907dq1d+/eq5Yu/WXv3utRUU3l5SSqGm+uMn7jXYVkZQgIIWAg0ZCpuehUqtptrB03Nzc7ODgsW7YsNDSUkLtap1Llc5MWFhbTp07d7uCwdOlSBwcHUexCMy6CTiVT5VIaZPEXulUmU36hW6+wmlg9zW9/98a3v3UJnOjxMsDd1o5TdITaL4dnUQFKFUCnktLAmR021liSEDCl3sOcnBMnTux0cJg1Y0aP7t0HDxq00MZm1qxZa9as+eabb0hkNNlc+PGCgBACBpPdErRfCJ1KQncO+vRt27a1hejm5mZnZ7dx48YnT55s3bo1Li7u8ePHXl5ebUfq1cM7lSqfm/zTn/7Uv3//SZMmzZ8/P+vmzWdNTWY0FkW/NDqVtFdABvGz9gstPPUmSqxNr95m+03938AddWSGhU/EeBnsbmtHLiJC7RfCs6gA1QqgU0l1+MwIHmssifjSVk9WVHQ5JOSf33670MZm8KBBXbp0GTFixLRp00J8fB7m5JDoZq658OMFASEEDOa6Q6i7LjqVenlxoAc/f/48MzPTw8Pju+++i4+P57EuWbJEoVBER0dv2LBhxYoV+fn5kZGRjo6OCoXCy8vL0dFx0aJF+fn5hMT4z01u2LBh+rRpHTp0GPGXv6xcvvyX/fsTr16l4nOTBjuY6FRSV/IQMFO/0NJ4Au6zjav7DO45ePKfB03rMeDVP782YVRuerpp7mTa7xYD8AvWtug3j9qQGYBQ7TrYiQpIWwF0KqUdX+OxwxpLoq3E1GsqL78eFfXL3r2rli59dcSIrl27vvXGG/abNv3vW9729q0yGe184eOHgBACBpKsZGouOpWEHp05pxcVFR07duzw4cNVVVUKheLAgQPz5s27cOFCamrqqFGjGhoaFArFokWLWltbp0yZ8vz587KyMplMduTIkTlz5qxdu/azzz47ffr0999/7+HhoVAoAgICrl27piMflc9N9u3b99VXX33nnXc+/vhjGj83iU6lpqqH1VyTMvT2SzKmJnOXzKVealycu6vrTy4u0aGhprz3zMVXLI664DeNI6mJkS4INc3FflSAHQXQqWQn1uIyxRpLoift6j2prr6TmOh++PBGW9tJVlZdu3YV3vP7/PPPH1dVqYhDO1/4+CEghIBB5cbDQ00KoFOpozUHbtgPP/ywePHi8PBwT0/PVatWvXjx4tq1a59++qlCoWhtbZ05c+bjx4/lcvlHH32kUCg++eSTOXPmLFiw4MyZM0lJSStWrOD5eHl51dTUTJ48efv27e+++259fb0mnr///vuNGzcOHjy4atWqESNGdOjQYejQodsdHM6fO1eUk8M7fQUFBQZbfpROxGcqNVUW7AergAR+oY30Hq4uIZOAerrQFMbQzlcLfsHdFsiapaEFoVnw4EVRAZgKoFMJMy7wUWGNJYkRjerlpqd7e3hs/fLLqZMnW1hY9OzZc+zYsT+5uMRFRDSWlWlXg0a+yozg44eAEAIG5ahhW4sC6FRqsuag9HMct2fPnnXr1rm7uwuYysrK3nzzzRcvXgg9CoWC47hBgwYtW7bs/fffX7ly5YkTJ2praz/77DNhTENDw9/+9rfm5uaVK1f+/e9/X7FixcmTJxUKxbNnz8rLy1VWe/HiRU5OztmzZ+3s7F5//fWuXbtOtLLauG7d/Pnzv/jiC7Wfm0SnUkumUXoKqzmlgdMCm+qYmtGj5CWlWj0td4WmU7TzFfCb/c6RqsKaeGE/KiCuAuhUiqsnO6sJvwLsUBaRKRXqVeTlhfv5fbtz57zZs/v26TOgX78P581z3rXrk08+2blzp15qUMFXCyP4+CEghIBBSxDxlLIC6FQKPh6UxtOnT11cXFasWHHp0iWFQrFp0yb+pewZM2Y8fPiQRxkXF7dhwwa+ferUqQ0bNuzZs0ehUIwbN45/6VuhUIwdO/bevXtbt25VKBRHjhzZvn37P/7xD1tbW35WdXV1S0uLCufKysqQkJBvvvlm5jvvdOrUqVevXuPGjZszZ46On5tEp1I5taTRxmoujTgqs6AlpkAeeVOWTgLfMFKh0+4hLXeLJiIFBQVgPUoeM+0Ka1Ie+1EBcRUwtlOZm57ufvjw5s2bo8PCxEWOq5lXAayxJPrDVK+2uDgmPPxHZ+cl8+cPHTKkc+fOw4cPnzp16ooVK4qzs6XHV3dGMOOljB8CQggYlDXBthYF0KlUMevMf7hv375Tp061tLS8++679+/f/+qrry5dutTU1PT+++8Lb2fn5+e//fbbPNbIyMiSkhL+0NbW9tq1a3K5PD4+/m9/+1tqaup3332nUChevHiRmZlZVlamQq+pqenKlSs//PDDggULunXr1rdvX5t5877bvftSWJgBn5tEp1JLplF6Cqs5pYHTApuKmJr304G0q6cFv76nqLhbeFKCta1888DHDx+hvvcMjkcFjKGAUZ3K3Y7bLXtbDJ7UZ9C0Hi+P6ztoWP/UuDhjsMA1Ta8A1lgSzYGox1VWJsXEuO7f//GKFaNHjfrTn/5kPWmS3fr1p9zc7qakkBBUmQuErwoq3Q/h44eAEAIG3WPK+Eh0KlW8O5MeFhQULFy4cNq0aQcOHBAuvHLlSv7ZybCwsG+++aapqentt9/++OOP+Q1whGEzZswIDQ3lD4OCgubMmaNQKI4dOzZx4sQFCxa4uLjIZLJnz56pvNP9+++/p6WlHTly5JNPPhk1alS3bt2GDh361ltvLV26VPjcpMGfjESnUnrVBKs5xtSoCqh1l4x6RcLFWcsIyHyVHUlNYYWMn8cMH6EmbbEfFTClAsZzKl1/3t9/Yk/rb4cJ/ybYDx4wtG9Vfr4pCeK1jKQA1lgSYc2lXktNzd2UlFNubnbr11tPmtS1a9exY8ZMnDjRxsZm06ZN3377LQkpLXPNxVcLJL1OwccPASEEDHqFleXB6FQK1p8pGomJiQsXLpwzZw5vMq5cubKkpOTFixcymUy4/JYtW5KTkxUKRW1t7cyZM+/du7du3Tr+uUgrKythWHV19eLFi99555158+b9+OOPjx8/VigUT58+FQbwDeXPTQ4cOPBPf/pTv379/vrXv548cuROSoraz02iU6m7ArijDsvVk1LuZvyFBv4eri4BNaN6usATfQxAvoK7rQtZgPhVYMNHqAIYD1EBsyhgPKeyc9dOk74eKtiUfKOfteVPLi5mYYoXFVcBrLEkeppSveLsbL/Tp7dv3jx9ylNzX7cAACAASURBVBTLl15S3gmnvrSUhIXuc03JV3dUuo+Ejx8CQggYdI8p4yPRqVRx9kQ+zM3NXbx48fz58/ldufktuZ89e2Ztbd3Q0DBlypS4uLhVq1Zt3LjxyZMn/LX9/f1//PFH3pp88803S0tLJ0+e3NLSkpWV9e677+qCT/lzk5aWlq8MHbp0yZJ/7d1ra2vLyWS623D6jsRnKqVXTbCaY0zFUkCXJ+DEupbx1mEtI8zOVy9fsm3czY6/LSSVHvgIVQDjISpgFgWM5FTmpqf3GfwfD1TyTuXoNQOmTn/TLEzxouIqgDWWRE+jqlddUBAZGOi8a9eH8+YN6Nevb58+82bP/nbnztWrV+u7Ew4JR+W5RuWrfCEjteHjh4AQAgYj3QDSWxadSl2sP8PHLFiwoLCwUKFQfPDBB4WFhcLHJb///ntfX98PP/zQxcVFoVAcOnRo7969/GUeP3781ltv5ebm+vr67tixQ6FQhIWFbdiw4Ycffqirq1MLRflzkwMGDOjSpcuIESOmT5++atUqWWmpvoajwePRqZRegcBqjjHVVwHBWpKGNalCn7WMMC9f8lvIvPhVbh61h/ARqoWNnaiAiRVAp9LEgkvmclhjSUIprnqNZWVxERE/ubgsX7x4+LBhnTp1euWVV95+++1ly5blZ2aS4BRrrrh8xUKl+zrw8UNACAGD7jFlfCQ6lWqtPz06FyxYoDy6ubm5qqpK6Pn999/lcnlCQsKyZcuePn06bdo0/tnJiIgIR0fHgwcPHjlyRKFQ/Pbbb7a2to8fP/by8lIoFHl5eVu2bDlw4EBra6uwlHJD+XOTvXv37tChw9uTJzv8/e++Z8/m37tnsNVIOBGdSulVE6zmGNN2FSC3k9q9BJwBrGWEafgaz902DX6S+xM+QhJ2OBcVEEsBIzmVrTIZvv0tVoxgroM1liQuhOo9rqq6de3aiUOH1q1ZYzVuXIcOHSZZWW20tXU/fPhOYmJLTQ0JNmPMJeRrDEh6rQkfPwSEEDDoFVaWB5vTqQwMDFy6dKmyAde27eTk3LbTvD0ZGRl2dnb89jUKhWLu3LnZ2dnOzs6Ojo5Pnz69du2ah4eHMsKGhoavv/56/fr1u3fv3rNnT1hYmEKhuHLlyrffftvU1DRlyhRPT8/ly5dHRETI5fKjR48qzxXayp+bfP311zt37jx+3Li//vWvH3744Z2UlKeNjYQmoyjT0amUXinBao4x1aSA4C5pGiDJftYywhh8+TvHNLeHMfCLixw+QnH54mqogGEKGM+p/N8ddaz+4wVw3FHHsBjBnIU1liQuBqj3W1qa58mT9ps2vfXGGxYWFqNHjZowYcL777+/YcOG3bt3k4AxwVwD+JoAle6XgI8fAkIIGHSPKeMjzeZUFhUVOTs7r1mzRjDj1DYgOJUlJSX8hyN5hC0tLW+88UZBQcHQoUO3bNmyZ8+ejz76qLi4eMuWLd7e3m1ZCM9Fjho1qrq6+u233/bz85s7d+7du3cVCkVTU1NYWFheXl7bicLnJof98YR8jx49XnvttX/t3XstOtqon5s02LVEp1J61QSrOca0VSZj05RUG3rWMkJcvqb0KPnwiYtf7S1B2AkfISFBnI4KiKKA8ZzKVplst+P2l3pbDH6976BpPV4e13fQsP6pcXGiwMZFzK4A1liSEOii3sOcnMBz53Y6OMyaMaNH9+49evQYM2bM7NmzY8LDa4uLSa5u+rm68DU9Kt2vCB8/BIQQMOgeU8ZHmsepfPbsmYODQ0NDQ1unMv4//0zpVFZVVWn6EGR1dbVCoUhKSlq+fLmjo2Pfvn2bmpo2btyYkJBw8eLFLVu2KBSKGzdubNy4UcVwbGhosLKyCgoKcnZ2/uKLLxQKRXV1tb+/f2lpqcpIhULBcdyVK1d++OGHBQsWDBgwoHfv3vPmzNnzj39cDA425ecm0anUXQHc+5vxAkojfX1/oZl6ubvdgOqrXrsLAh9gGF/B2jb7zWMYflMGBT5CU6qB10IFNClgVKeyVSbLTU/3P3vW3t4+OjRUEwbsp1EBrLEkUVOrnqyo6HJIyD+//Xahjc3gQYN69+r13qxZu7ZtC/Hx2bFjB8nlzD5XLV+zo9IdAHz8EBBCwKB7TBkfaR6n8vDhw6mpqQqFQhenssBUf05OTv/85z+Fq508eTI/Pz85OfnTTz/929/+dvfu3Tlz5sTGxhYUFMyePTsoKOinn37atWtXWlralClTCgoKfvvtNysrq4KCgoCAgISEBGGdhISEn376KSAgQOgRGrm5uWFhYd9///2SJUtGjhzZoUOHwYMHv/nmm0uWLImPjxeGYQMVQAVQAWMroOwuGftauL60FXBycpI2QWSHCqACqAAqgAowokBOTk5QUNCePXsWLlw4fPhwCwuLoUOHTp48+aOPPtqyZQsjIiBNVAAVML0CZnAqnz17Zmtru+ePv5kzZ54+fbrt04VCj8meqXzw4MHly5fXr1/v6uqakZGhUCgGDhwYFBSUnZ391Vdfbdmy5fr160uXLuVf2Xb94++3335btmyZQqGYMGHCixcvFArFjBkznj9/HhMTk5OTI1BQaTx48MDb23vz5s0vv/xyhw4dxo8bt27t2pNHjsD53KTuTxSqjMS3v6X33z3wvztJOKZmf96NRm1ZywjtfJXdbZjR1I4fAmb4CCGohBhQAfJnKlPj4twPH3b8+uvosLCq/Hy1kmI+qpWF6k6MqQHhe1JdfScx0f3w4dWrV0+ysurQoUP//v3XrVlz4tChW9euPamuNmBNKqbQfrfAxw8BIQQMVKQDBJBmcCqVnbu2z1Qqn1UoFMZzKltbW0NDQ7OyshQKxWeffbZv3z5nZ+cJEybcv39/+fLljx8//vzzzxcuXJicnPzDDz/4+PgcOHDA1dWV/2Dljz/+uHr16hcvXlhZWW3fvv3kyZMcx6kgFw5ramrCw8MdHR1nv/tujx49Xhk6dNmSJe+99x7Yz02q+I+6H6JTCSGlxcWA1VxcPSGsJrhLEMBQh4G1jFDmy985dIVMGT9M5PARwtQNUbGmAIlTmRoXN37siPHj+q/55NU9e8ZMmzrE0rKL49cObTXEfGyrCe09GFMdI5ibnu7t4bH1yy+nTp7czcLi1REjVi1dOm/evHXr1jWWlem4CO3DaL9b4OOHgBACBtozxWT4zexUCnaepoZhTmVNTU1kZOT+/fsPHDjQ3NzML15eXh4dHV1fX69QKJYtW7Zjxw5fX99Ro0Y1NTVNmDCBHzNu3LgnT57Y2trGx8fv3Lnz+PHjX3755YkTJx48eLBs2TKO49577701a9b4+/sHBARowsxxXHx8/P79+5csWWJpadmlS5cRI0ZMnz6dls9N6m5NqoxEp9JkeWuyC2E1N5nUxriQYEoqPz6JMSWRmjX1eL40epR8lOHHCz5CknzBuaiAWAoY7FS6u7paWnYOCXlLofhI+Fdfv2D+h6+MH/uqysOVmI9ixQvOOhhTTbGoyMsL8fFx3L79vVmzevfqZWlpOXr06FmzZl0OCZEVFfGzWFOPdr7w8UNACAGDpqzEfhUFJOhUvnjxomfPnidOnEhJSfnuu+927NihUCjOnz+/cuXK06dPW1tbv3jxYsOGDSEhIQqFYseOHREREa+99tqzZ88UCsXy5cuTkpIKCwtnzpz5/fff//7778OHDw8KClIoFIcOHdJkTT579iw9Pf3YsWNr167t06dPly5d3rS2tv/iC69Tp3IzM1XsPAkfolOpkl0SOMRqTlcQlR1JTcgxppqU0aVf2uopW9v8vUQ7X/j44SPUJS9wDCpgbAUMcypz09OHDO595867gkep3NhsP/rLjbbKyDEfldWQRhtjKsSxtrg4Jjz8R2fnJfPnDx0ypEf37rNmzNjp4BB47tz27duFYcoN1tSjnS98/BAQQsCgnGXY1qIA9U5lcXHxxIkTHz16pGwjzpgxo7i4WKFQ+Pr68u9rJycn5+fnnz17dtiwYTk5Oe7u7q6urgqFIjg42MnJyc7OztPTs7Gxcfbs2T///LNCodi3b19MTIxCoWhqalJeWWgLn5t88803u3Tp0qdPHysrqw8++OBmYuLvDQ0StiO1UEOnUkumUXoKqzkVgRMMJl3QYkx1UUnTGOmpp93dpp0vfPzwEWrKBexHBUypgGFOpc28mb/8MkHZnVRu19cvGDK4Z2pcnEAE81GQQjINlmPKVVYmxcS47t//8YoVo0eNsrCwEDZutbe31yXErKlHO1/4+CEghIBBl+zDMa0yGWVOZXFxsbe3t2AX8ruHf/HFF5cuXVLu3LFjx+zZsxcvXvzBBx+sX7++vLw8MzPzgw8+SE5O/sc//nHu3LnMzMzVq1crFIrS0tL333//0aNHmzZt+uqrr4qKiqqrq5WXEtrC5yaHDx/euXNnS0vLJQsX7nNxib10qam6Wot/x84pdCqlV1OwmgOMKeGruBhTkphKRj0d3W3a+cLHDx8hSb7gXFRALAUMcyotLbvU1y9QdidV2nv2jHFUepoM81GseMFZh6mYttTU3E1JOeXmZrd+vfWkSR06dOjbt+/a1auPHjiQGhf3uKpK37gwpV6rTEY7X/j4ISCEgEHfTGR2PGVOZWVl5VtvvSW4hwqForW1NSgo6LvvvlPuDAwM3Lp1K99z/vz5nTt3enh4fPfdd83NzevXr3/jjTfu3bv3ySef8APy8vKU5wpt5c9NDh48uEePHrNnzZo6dWqov39VcTE7/qPuTNGplF4dwWoOKqaEHiXPBWNKElMa1dPRlFQrC418lYnAxw8fobKe2EYFzKWAAU7lH69+91SxJlUOQ0Lespk3XSCF+ShIIZmG5GNanJ3td/r09s2bp0+ZYvnSS8OHDVu+ePGcOXM+++yz+tJSwjhKXj0VfWjnCx8/BIQQMKjceHioSQHKnEqFQjFy5Ej+m5KCpVhaWmpjYyMc8k9KzpgxQ6FQyGSyzz77zNPTs66ubtmyZfb29mVlZSUlJc+fP1cez7dVPjf5pz/96eWXX37jjTdY+9yk7takykh0KjWlGb39WM3NEjvBWtL+Zq5h2DCmhunGz6JOPcJbiDq+KsGFjx8+QhVJ8RAVMIsC6FSaRXYJXFR6Nba6oCAyMNB5164P580b0K9ft27dRo0aNXPmzE8++aS6oEDckElPPe360M4XPn4ICCFg0H4f4llBAfqcyoULF2ZkZKj4jMLm3UL/sGHD5s+f/+mnn0ZFRQmdbRvC5yZffvnlLl26jBk9+tOPP3Y7eJDlz02q+I+6H6JTKeSVZBpYzU0TSkI7SS+QGFO95FIZDFY9I7nbYPmqxEXTIXz88BFq0hb7WVMgNS7O/fBhx6+/jg4LU9ky2wRSGOBUtspk+Pa3CUID/BISqLH1paVxERE/ubgsX7x4+LBhnTp1mj5lyvbNm/1Ony7Ozjaq/hJQTy99aOcLHz8EhBAw6HVbsjyYPqdy79697u7uguf4/Pnz9PT01157bfXq1fxmOPypp0+fCmOUG8LnJme/+26PHj0sLS1Hjx797rvv4ucmdXckNY1Ep1J6pQSruVFjKrhLRr2KyuIYUxVB9DqEo55p3G04fPUKkzAYPn74CAUxscGsAqlxcePHjhg/rv+aT17ds2fMtKlDLC27OH7tYEpBDHMq291RZ+gQ3FFHZso4mv5aNNbYx1VVqXFxRw8cWLt69dgxY7p27Wo9aZK1tfWiRYv+/ve/t9TUmExGGtUjEYd2vvDxQ0AIAQPJXcrUXPqcyitXrnz44YdHjhz59NNPt27dWl1d/d133126dKm2tlbZkRTaT548iY+P379//+jRoy0tLTt37jx71qxdO3bg5yY1GY4G96NTKb3agdVcxJjyvqSICxq2FMbUMN34WWZXz8Tuttn5kgSLiq/j064wYYBwOnwF3F1dLS07h4S8pfyFx/r6BfM/fGX82FdN9nClYU7lH5+q7H3nzrvK4IX2Zvv/+XKjrXIIMB+V1ZBGm5aY/paW5nnypP2mTW+98UbHjh379u07ceJEficcrrLSXLGgRT2x9KGdL3z8EBBCwCDWHSv5dehzKhsbG7///vtLly49evRIsCOVG8+fP8/MzHR3d1+/fv348eO7du36prW1/Rdf4OcmDbYgdZyITqX06gVWc1FiCsSj5LlgTEliakr1TGxKqpXFlHzVAiDshI8fPkLCEOB0qhXgnb6iovcFd0+5sdl+tIrTZzyyhjmVrTKZJqd1wfxXxr02UsVpxXw0XgTNtTLYmD7MyQk8d26ng8OsGTN6dO8+dMiQJfPn/+jsvHbtWvKdcMRSG6x6YhFUWYd2vvDxQ0AIAYPKjYeHmhSgz6lUNiWFdmFhoZ+f39atW99+++0OHTr06dPHysoKPzepo8Mo1jB0KjWlGb39WM31ip1gLYGyJlUoYExVBNHr0GTqmebl7na5m4xvu0gMGwAfP3yEhimPs6ShQLtvTw8Z/B9vTxuPtcFOZatMlhoXN27siAnj+3+65lUnpzHTpw3p3r2L49db2qLFfGyrCe09cGIqKyq6HBLyz2+/XWhjM3jQIAsLi5EjR86YMWP16tUVeXkwdYajnmn0oZ0vfPwQEELAYJr7WQJXodWprK2tjYyMdHJyGjFiRJcuXQYPHrxk4cJ9Li74uUmxbEcD1kGnUgIVQYUCVnMVQVQOITuSKlCFQ4ypIIUBDWOoJxjcBuAx9hRj8DU2ZuX14eOHj1BZT2yLpUBuerqwO41Yaxpjnf/6r/9SfoiybXvPnjGO27cb49Iqa5I4lfxS/7sjkKur4/bt0aGhKo9SCtfCfBSkkEzDjDFtKi+/HhX1y969q5YufXXEiI4dO06dPNnBzs7bwyM3PZ0Khc2onln0oZ0vfPwQEELAYJbbm8aLUuNUPnnyJCEh4cCBA8uWLn3llVd69OgxfPjwqVOn4ucmDbAUjTQFnUoaS4B2zFjNNelDo0fJc8GYaoqpLv3k6tF155Dz1UVV442Bjx8+QuNFh9mVP7eztextMXjynwdN6zFg5J+HDB+YGhcHUI3UuLghg3u2dSeVe0JC3rKZN90E4MmdSl1AYj7qohJdY0wZ0yfV1XcSE90PH95oazvJysrCwmKSldXrr7++YMECOzu7J9XVdElHxbeexZXUlHeLuMj51eDjh4AQAgZjRF+Sa1LgVE6aNKlv377//d//PWDAgM12duc8PO5nZBjJa8NlSRRAp1J6NQKreatMBvmRNwNuOYypAaIJU0jUo8uj5CmT8BVEM2MDPn74CM0YPkleerfj9sGT/2z97TDh39gNgwYN66/pKT8zivDHRyrRqZT41thmvMFMc2lj19jc9HRvD4+tX345dfLkjh079unTZ8KECa779yfFxDSVl5uGo/GuYmz1jIfcsJVp5wsfPwSEEDAYdn8yOIsCp/LkkSPJ8fEkDhrONY0C6FRKr4JgNQfyuUARby2MKYmYuqgnWNsSuHl04Uuip7HnwscPH6GxY8Ta+p27dpr09VDBpuQb/awtf3JxASiFlN7+1kVezEddVKJrjOgxrcjLC/Hxcdy+/b1Zs3r36jV40KCFNjYuu3dfDgmpLS6mS5x20YquXrtXNO8A2vnCxw8BIQQM5r3PKbo6BU6laVw2vAq5AuhUUpT5OkJlp5pLyV3SHlx2YqpdB8POqlVPAo6kJjXU8tU0GGA/fPzwERoWVlq+w2gYO4NnpcbFDRj5Hw9U8k7lyGX93pk5xeBljTex3R11hg4x0Y46FwIDx48bZzym/MpSzUdj6wZ5ffKY1hYXx4SH/+jsvGT+/KFDhvTu1WvEiBHTpk1buXLldpN8pNWM8pKrZ0bwBlyadr7w8UNACAGDATcnm1PQqeTIHTpcgVcAnUrpFRGpVnMa38MV6+6SakzF0kf7OsrqCe629ilUn1XmSyMR+PjhIzQg7m2/w0jL9hEGkNVrihancv6CeXotZZrBf7wA3ruo6H3lb1MK7c32//PlRlvTIEGn0jQ6S+8qBtRYrrIyKSbGdf/+j1esGD1qVIcOHQYPHmy/aZPnyZO/paVJTyItjAxQT8tq8E/Rzhc+fggIIWCAnwtAEKJTiU6laAqgUwkkq0WEIb1qzrJHyd8Y0oupiDe8lqX4O4c19WjnCx8/fIRakkLtKbXfYRw59hW1gxnspOvt71aZzN3V1dKyc0jIW4JBqVB8VF+/YMH8V8a9NtJkn9dEp5LBZBGFsi41tqWm5m5Kyik3N7v1660nTepmYWE1bty6NWvmz5//+eefP66qEgUJjYvooh6NvDRhpp0vfPwQEELAoOkOxH4VBdCpFM2nwycr0alUyS4JHNJbzYXn3ST8Zq5hNxi9MTWML/ksZXebNfVo5wsfP3yE+mYQdU6cvgQJx6t1cmHuqCMwTY2LGzd2xITx/T9d86qT05jp04Z0797F8estwgATNNCpNIHIkryEphpbnJ3td/r09s2bp0+Z0qlTp969e48fP37evHnXo6Iay8okKYUBpDSpZ8BSVEyhnS98/BAQQsBARTpAAIlOJTqVoimATiWElBYXA73VHA1KTXcCvTHVxEisfl3cbdbUo50vfPzwEeqVX9S93awXO7EGf25n+1Jvi8GT/zxoWo8Br/558PCBqXFxYi1uvHVS4+LcXV0dt2+PDg012aOUAh10KgUpsKGXAkKNrS4oiAwMdN6168N587p16zagX78P581z3rUrMjBQVlSk15rsDBbUY4Qy7Xzh44eAEAIGRhKKnCY6laL5dPhMJTqV5AkJbQUqqrlgMEFTDyYeKmJqGukMsLNZU492vvDxw0eoVzKiU6mjXP+749C/XT8dpzA+DJ1Kxm8AA+gXZ2cHeHra2dnNnD69R/fuPbp3Hz58+NSpU5cvX75t2zYDFmRwisR+odqNIO184eOHgBAChnZvRRzAK4BOJTqVoimATqX0ygq0ao6mJPk9Bi2m5IwMWEH5hW69prOmHu184eOHj1CvBGmVyfDtb30Vw/G6KIBOpS4qMT6muqAgIiDAedcum7lzB/Tr161bt1GjRn311VcRAQHVBQWMi2MYfen9QmnXgXa+8PFDQAgBg/b7EM8KCqBTKZpPh89UolMp5JVkGqCquQFPwEkmECISARVTEXlpWkpcd5s19WjnCx8/fISaMktTv9rvMOKOOprkwn4dFUCnUkehmBpWX1oae/HiTy4uyxYtGj5sWI/u3WdOn77TwUH5qUnp1VhThpg19WjnCx8/BIQQMJgyi6m+FjqV6FSKpgA6lVTXArXgzVLNBWsJrUm1QSHsNEtMCTEbPF30W4gp9VplMtr5wscPH6EB2df2O4y56ekGrINTUAFBAXQqBSlYbnCVlSmxsUcPHPh01aqxY8Z07Nhx8ODBb7755uLFi7PT0tQqI8kaq5apMTpZU492vvDxQ0AIAYMxslWSa6JTKZpPh89UolMpvRphmmouup0kvUCIyMg0MRURsC5LmczdlqR6WhSmnS98/PARark9tJziv8P4k4tLdGiolmF4ChXQUQF0KnUUSmLDWmpqspKTT7m5fbF+vfWkSR07dpwwduy6NWuOHzx4Mz7+cVVVu3ylWmPbJS7KANbUo50vfPwQEELAIEp6srAIOpXoVIqmADqV0isZRq3mgrskPd0gMzJqTE1DnL9zTHMtlatIQD0VRtoPaecLHz98hNrvEDyLCphGAXQqTaMzhKs8yMjwO316m7399ClTLF96aeRf/rJq6dK5c+euW7fO0dFRX4RYY/VVTHk8a+rRzhc+fggIIWBQzjJsa1EAnUrRfDp8phKdSi2ZRukpsao5mpJwbgCxYmoWRmb0KHm+VKtnQMho5wsfP3yEBtw2OAUVEF0BdCpFlxTOghV5eeF+frt37Jg3e3bfPn0sLS1Hjx49a9asqOBgWVERIU6ssSQCsqYe7Xzh44eAEAIGkqxkai46lehUiqYAOpXSqx2iVHN8uRvUjSFKTE3ACKa7TYt6YgWIdr7w8cNHKNa9hOugAiQKoFNJoh60ubXFxTHh4XudnJbMnz90yJDevXq9N2vWrm3bgr29t2/fLi5arLEkerKmHu184eOHgBACBpKsZGouOpWi+XT4TCU6ldKrHXpVc8FaQmsS8p2gV0zNRQTsLUSFeiJGjXa+8PHDRyji7YRLoQIGK4BOpcHSQZjYVF6eFBNzaN++j1esGD1q1Evdug0dOnTy5MkfffTR5s2bjYoQayyJvKypRztf+PghIISAgSQrmZqLTiU6laIpgE6l9GqH9moO1k6SXiBEZKQ9piJeSJelqHO3Qamni8KEY2jnCx8/fISEtxBORwVEUQCdSlFkNNkiLTU1dxIT3V1dN9raTrKy6tChw8CBAzfa2rq7ut5JTHxSXW0yJFhjSaRmTT3a+cLHDwEhBAwkWcnUXFhO5c6dO5OSkhRKf05OzvisIi0KoFMpvdqhqZqb/XOB0pPaZIw0xdQEACRw25hRPRMEqO0laOcLHz98hG3vCuxBBUyvADqVptdc3ytq2Qmnqbxc39XEGo81lkRJ1tSjnS98/BAQQsBAkpVMzYXlVJ48edLZ2dnHx0fwKtGppMWmlHMcOpXSqx3UPfImvRCIzshcv9DSeALXXOqJfhvouCDtfOHjh49Qx1sFh6ECRlUAnUqjymvY4kbdCccwSG1nYY1tq4nuPaypRztf+PghIISAQfccZHwkOKdSoVAc/OOPNyvRqUSnErICrY8eSayCqNhJWM0lFt9WmczYMZW2u21s9aDdb7TzhY8fPkJo9yTiYVMBdCohxN2UO+GIxRdrLImSrKlHO1/4+CEghICBJCuZmgvRqVQoFD4+Ps7OzgqFAp1KyD6dCjZ8ppLe2iG4SyoUsJqrCCKBQ9FjquJuS0AiLRREV0/LtSCcop0vfPzwEUK4DxEDKoBOpVnuATPuhCMWX6yxJEqyph7tfOHjh4AQAgaSrGRqLlCnUqFQYNWelQAAIABJREFUJCUlffPNN05OzjdTU/EfFQokJCRQgVNEkGnJyTT+431JXZAnJCToMgzHUKSAWDEV3G2KuJNDFUs9ciSmWYF2vvDxw0domjsNr8KIAk7ffrv+s88M+PfBBx/06dPHgIn8lODAQF0UxnxMSUo67+PzraPjksWLR48eze+E8/rrr3/r6HjexyclKUkXGUGNwZiShIM19WjnCx8/BIQQMJBkJVNz0alEG1Q0BdCphF87dPcoeS5YzeHHVF+EBsSUTVNSrbAGqKd2HVo6aecLHz98hLTcq4iTCgXQqQQYptCgoB9cXFavWjXRysqia9dhw4Z98P77X2/btmHDhqTr1wEC1gsS1li95FIZzJp6tPOFjx8CQggYVBINDzUpANSpxLe/VV6spuIQ3/6G8zy2YC0RvpmLT8jDialYSPSNKeEtJBZsIOvoqx4Q2AbDoJ0vfPzwERp88+BEVEBEBfDtbxHFfJiTE+ztvWvbtvdmzerdq1ePHj3GjBkze/bstWvX1hYXi3ghCEthjSWJAmvq0c4XPn4ICCFgIMlKpuZCdCpxRx0qfMm2INGpNGPtMJKdhNXcjDE10qU1xVQsd9tIsIEsq0k9IPBEh0E7X/j44SMU/abCBVEBAxRAp9IA0YQpsqKiqOBgl927F9rYvDxwoIWFxbzZs3fv2BHu51eRlycMk2QDayxJWFlTj3a+8PFDQAgBA0lWMjUXnFPp7Ozs4+PDb/yNO+q0dQMh96BTafraIbhLRro0VnMjCWvGZYWYGsndNiM1E1xaUM8E14JwCdr5wscPHyGE+xAxoALoVOp1DzSWlV27dOnnvXtXLV068i9/sXzppelTprz99tvLli1zcHDQaynaB2ONJYkga+rRzhc+fggIIWAgyUqm5sJyKnfu3JmQkCDYlOhUQvYl22JDp9LYtYP3JY19FeX1sZorqyGNtrHdbWmopIkFaxlBO1/4+OEj1JQL2I8KmFIBdCq1q/24qupmfPzxgwfXrVkzYezYjh07Dho0yNra+pSbW1ZycktNjfbpEj6LNZYkuKypRztf+PghIISAgSQrmZoLy6lU9ij5tpOTc1tHDHtgKoBOpVFrh1megMNqbtSYGntxwZRUvnkwpiSys6Ye7Xzh44ePkCRfcC4qIJYC6FS2VTI7Le3siRP2mzZNtrbuZmExdsyYT1etOnrgwMaNG7nKyrbj2ezBGksSd9bUo50vfPwQEELAQJKVTM1Fp5KD6frRiAqdSlFqh1p3SZSVDVgEq7kBoplxirIjqQkGxlSTMrr0s6Ye7Xzh44ePUJe8wDGogLEVQKeyVSZ7mJMT4Om508Fh5vTpPbp379mz59ixY+fMmWNra1tfWmrsEFC6PtZYksCxph7tfOHjh4AQAgaSrGRqLjqV6FSKpgA6lQbUDtO/0K0XSKzmesllrsGCu60LAIypLippGsOaerTzhY8fPkJNuYD9qIApFWDTqdSyE051QYEp9af3WlhjSWLHmnq084WPHwJCCBhIspKpuehUiubT0fgUpLiY0anUq3YA9yh5LljN9YqpaQYT3jkYU5IwsaYe7Xzh44ePkCRfcC4qIJYCjDiVuBOOWDeMsA7WWEEKAxqsqUc7X/j4ISCEgMGAZGRzCjqV6FSKpgA6lZqKiF6PvGlaxCz9WM3NIrumixJ6lPyyGFNN8urSz5p6tPOFjx8+Ql3yAsegAsZWQKpOpaadcBYtWsT4Tjhi3VFYY0mUZE092vnCxw8BIQQMJFnJ1Fx0KkXz6cR9PpHG1dCpVFs7dPl0oNqJEDqxmpslCoK1bYybB2NKElPW1KOdL3z88BGS5AvORQXEUkBKTqXyTjgdO3YUdsJJiY3FnXDEumGEdbDGClIY0GBNPdr5wscPASEEDAYkI5tT0KlEp1I0BRh3Ko3qLpmrPGE1N43yxnAkNSHHmGpSRpd+1tSjnS98/PAR6pIXOAYVMLYCVDuVxdnZyjvhDB82TNgJZ9euXcaWjvH1scaS3ACsqUc7X/j4ISCEgIEkK5mai06laD4djU9BiouZKafy/97DffRI2vUCq7lR4yu420a9isriGFMVQfQ6ZE092vnCxw8foV4JgoNRASMpQJdTWV1QEBEQ4Lxrl83cuQP69evWrduoUaOcd+2KCAjAnXCMdIdoWhZrrCZldOlnTT3a+cLHDwEhBAy6ZB+OaZXJ0KlEp1I0BRhxKnl3iTd5W9GplMmwkuqowP+52+ZWDH+hdYyX2mGsqUc7X/j44SNUmwjYiQqYWAHgTmV9aWnsxYs/ubgsW7Ro+LBhPbp3nzl9+k4Hh+XLl2/bts3EWuHllBXAGqushr5t1tSjnS98/BAQQsCgbyYyOx6dStF8OnGfT6RxNYk5lcLzbsrWpEpc0KlktnTqRRyIR8ljxl9ovWKnMpg19WjnCx8/fIQqKYCHqIBZFIDmVHKVlSmxsUcPHPh01aqxY8Z07Nhx8ODBb7755uLFi7PT0swiEV5UrQJYY9XKomMna+rRzhc+fggIIWDQMQFxGDqV7DqVT+rq7mdlFefmqrhvBh9KwKl0cnLSiz46lVhDlRVQcbeVT8Fp4y80SSxYU492vvDxw0dIki84FxUQSwGzO5UtNTVZycmn3Ny+WL/eetKkjh07Thg7dt2aNccPHrwZH/+4qkospriOuApgjSXRkzX1aOcLHz8EhBAwkGQlU3PRqWTUqayrqDjwr3/5+/r+tH9/ekqKXvacpsH0OpWCwaSJmqZ+dCqZKpdtyYJ6WLItPLU9+AutVhYdO1lTj3a+8PHDR6hjauAwVMCoCpjFqXyQkeF3+vQ2e/vpU6ZYvvTSyL/8Zfz48XPnzl23bp2jo6NR+eLiYimANZZESdbUo50vfPwQEELAQJKVTM1Fp5JRp/K3jIzY6Gg5x4UEBMTFxGhy4vTqp8KpNNiUVCsFOpVMlUtlsjR6lDx+/IVWjqO+bdbUo50vfPzwEeqbIzgeFTCGAqZxKtPT08P9/Hbv2DFv9uy+ffpYWlqOHj3aZffuqOBgWVGRMXjhmsZWAGssicKsqUc7X/j4ISCEgIEkK5maG6P0p/jj74033igpreT//RffZcb/dXJyVusQYacoCpTk5R1zc2upqxNlNfhOpb4vd7crCzqVLJRLwd2WBln8hSaJI2vq0c4XPn74CEnyBeeiAmIpYCSnsra4OCY8fK+T05L584cOGdKzZ8/3Zs3atW3bypUrt2/fLhZ4XMeMCmCNJRGfNfVo5wsfPwSEEDCQZCVTc2NiYvj/NzwmJgadSuaer7yVnFyYk9OuH6fjADhOpWAtiW5NqkiBTqXky6WTk5PEOOIvNElAWVOPdr7w8cNHSJIvOBcVEEsBsZxKrrIyKSbm0L59H69YMXrUqJe6dRs6dOjkyZM/+uijzZs3Yz6KFS8462BMSWLBmnq084WPHwJCCBhIspKpuehUMudOKntt927fjggLU+4haZvRqTS2I6lJFnQqJVMuld1tyZBSSwR/odXKomMna+rRzhc+fvgIdUwNHIYKGFWB6uLi1Bs3DLhE251w+vfvL+yE86S6WnlNzEdlNaTRxpiSxJE19WjnCx8/BIQQMJBkJVNzlV7+xmcqOeZcy9ry8vKCAk02nL79pncqBXdJX6hijUenktJyyd85lIInhI2/0CQCsqYe7Xzh44ePkCRfcC4qIJYCejmVbXfCWbV0qfadcFLj4twPH968eXN0WFhVfr5YsHEdsyuANZYkBKypRztf+PghIISAgSQrmZqLTiVz7qRYJl3bdYzqVJrdlGzLV85x6FRSVy5Z9ij5YOEvNMlNy5p6tPOFjx8+QpJ8wbmogFgKaHcqK/Ly2u6EM2vWLF12wkmNixs/dsT4cf3XfPLqnj1jpk0dYmnZxfFrB7GQ4zrmVQBrLIn+rKlHO1/4+CEghICBJCuZmotvf6NTKZoCxnMqzfVyt1p3UrkTnUqw5VKwtqX3oUlCzfEXmkRA1tSjnS98/PARkuQLzkUFxFJAxalU2Qmnd69e/E44wd7eeu2E4+7qamnZOSTkLYXiI+Ffff2C+R++Mn7sq/hwpVjhM+M6WGNJxGdNPdr5wscPASEEDCRZydRcdCpF8+mUDSw22+ROpbK7RIWG6FSCLZdoUGoKDf5Ca1JGl37W1KOdL3z88BHqkhc4BhUwtgIP8/LOnDqlaSccw66em54+ZHDvO3feFTxK5cZm+9Efr/jIsJVxFhwFsMaSxII19WjnCx8/BIQQMJBkJVNz8e1vdCpFU8AAp5K3JqkwJdWCRKcSQrkUDG4IYOBjwF9okhixph7tfOHjh4+QJF9wLipgsAJPqqvvJCa6u7putLWdZGXVoUOHgQMHbrS1dXd1vZOYqLITjmFXsZk385dfJii7k8rt+voFQwb3jA4NNWxxnAVEAayxJIFgTT3a+cLHDwEhBAwkWcnUXHQqRfPp1DpZTHXq5VTS7lHykUWn0sTlEk1JcsHxF5pEQ9bUo50vfPzwEZLkC85FBfRS4P6tW16//upgZzd18uSXunUbPWrUxytWvP/++xs2bHiYl2fY3t9aAFhadqmvX6DsTqq09+wZ47h9u5YV8BR8BbDGksSINfVo5wsfPwSEEDCQZCVTc/HtbxadyhvXrgX4+cVfuSKukarWqRSsJbDfmiQRAZ1KU5ZLfKFbFLXxF5pERtbUo50vfPzwEZLkC85FBbQr8DAnJ9jbe9e2be/NmtW7V68ePXqMGTNm9uzZMeHhtcXFynNVvlOpfMqw9h+vfvdUsSZVDkNC3rKZN92w9XEWEAWwxpIEgjX1aOcLHz8EhBAwkGQlU3PRqZSaU5kQF9dUU6PivqUmJl4MDQ0PCWmtr8/JzIyNjpZz3J3U1N8bGlRGkhzyTqUkHUlNsqBTaYxyqexuG2N9xtfEX2iSG4A19WjnCx8/fIQk+YJzUQEVBWRFRVHBwS67dy+0sXl54MC+ffrMmz17944d4X5+FXl5KoOVD9GpVFYD27orgDVWd63ajmRNPdr5wscPASEEDG1zDXvUKoBvf1PsVD5raqooKkpPTo6LiSnMyeHdtOCAgNb6+gf37oUHBwf4+cnKynKzsq5GRck5LiMt7WpUVPL167eSkzVZbwb3C+6SwSvQOBGdSrVlRd9OfFhSX8VIxuMvNKqnuwK03y3w8cNHqPvdgiNRgbYKNJaVXbt06ee9e1ctXTryL3+xfOml6VOmvP3228uWLXNwcGg7XlOP6E5lq0yGb39rUltK/VhjSaLJmnq084WPHwJCCBhIspKpuehU0uRUPq6tzUhLS4qPrygslHNcUny8l6dnTmZm6YMHR1xdH9fWyjnuvI/P7w0Np3799VlTU31lZXNNTUpCwrmzZ0MCA0ODgm6npBTdvx/k7y/nuKqSktTERMP8Qd6XVJmr9u1vlTESO0SnkqRcCu42ySI4V18F8BdaX8WUx7OmHu184eOHj1D5/sc2KtCuAo+rqm7Gxx8/eHDdmjUTxo7t2LHjoEGDrK2tT7m5ZSUnt9TUtLuC2gHGcCrb3VFn6JCeqXFxavFgJy0KYI0liRRr6tHOFz5+CAghYCDJSqbm4tvf1DiV+dnZHu7uGWlpOZmZvl5eTTU1hTk5IQEBco77vaHh7KlTrfX1co7z8/aWc1xwQMC5s2d9vbxup6QU5+YG+PnxFmFGWtrz5ubzPj4RYWGep08/zM/X1zpU61Hyi6BTKb3aIVY1R1MSzr0hVkzhMDIlEtbUo50vfPzwEZoyv/BalCqQnZZ29sQJ+02bJltbd7OwGDtmzKerVh09cGDjxo1cZaUopIzhVP7xqcred+68q/J5Sv5ws/3/fLnRVhTwuIgZFcAaSyI+a+rRzhc+fggIIWAgyUqm5qJTCdGprCgsvH71qoqNeOzoUe7RI2VjsaW+/ucDB/x9fb09PQPPn7+ZlCQ4lfywx7W1J48ff1JXF3j+fERYWICf380bN/hTDVVVTxsblVdTaQvWku7fnUSnUnq1Q5Rqji93g7oxRIkpKEamBMOaerTzhY8fPkJT5hdeixYFNO2Es3bt2vrSUmOwMIZT2SqTubu6Wlp2Dgl5S9msrK9fsGD+K+NeG1mVn28MLrimKRXAGkuiNmvq0c4XPn4ICCFgIMlKpubi298gnMrq0tKbSUmVRUVyjisvLPT39S3OzY2OiHje3MwbiM+bm4+4uvLt/OzsyxER53185BzndvQo/9L3/7aPHGmtr/f18pJzXEpCwuWIiCuXLoUGBvKzmmpqtO+fo7sjqeJpCofoVEqvduhVzZXdbelJIRlGesVUMqzFIsKaerTzhY8fPkKxcgfXoVoBlZ1wLCwsdNwJRyzWRnIqW2Wy1Li4cWNHTBjff8H8V5ycxkyfNqR79y6OX28RCzmuY14FsMaS6M+aerTzhY8fAkIIGEiykqm56FSawal82tgo2Ityjit98MDn3Ln83347e/p0RWFhbHR00f37NaWlFX8Yl4IP6HroUEtdnZzjSvLyqoqLfc6da6qpCQ0MLMzJed7cXJiTc/L48WdNTbxT+by5uaKoqL6yUpiuqSG4S5oG6N6PTqX0aof2ao4PS9IYce0xpZGRKTGzph7tfOHjh4/QlPmF14KjgFg74YjFyHhOJY8wNS7O3dXV3t4+OjQUH6UUK2oQ1sEaSxIF1tSjnS98/BAQQsBAkpVMzcW3v03qVEaEhfl6efn7+uZnZwsO4LUrV+7dvi3nuKL790MCA2MvXw7y97925UqAn19iXJwwLDY6OuriRf4py8riYvcTJ5pqatISE48fO+br5RV/5UpzTY2c47S80y2YkuSPTwqolBvoVEqvdmiq5vy9JD2+LDDSFFMWuJNzZE092vnCxw8fIXnW4ApUKGCknXDE4m5sp5LHifkoVrzgrIMxJYkFa+rRzhc+fggIIWAgyUqm5qJTaVynUvbw4XkfH59z53jP8deTJ5WtPb6dd/duSGDg8+bmlISEY0eP3k1PDw0KknPcs6Ym9xMnhPHPmpqiIyI83N29zp6NDA+vq6jQ7ksKE4WGkQxKYX10KqVXO5TdbemxY5MR/kKTxJ019WjnCx8/fIQk+YJzgStggp1wxFIAnUqxlGRtHayxJBFnTT3a+cLHDwEhBAwkWcnUXHz727hOpb+vb1VJiZzj/H19ywsLz54+fTc9PcDP78qlS8oPP16PjfX39b2bnn7aw+NJXZ37iROt9fWcTHbGw0PwAXVvKLtLus8iH4lOpQRqh8oL3VjNJRBTFQoYUxVB9DpkTT3a+cLHDx+hXgmCg+ErEODpudPBYeb06T26d+/Zs+fYsWPnzJlja2trpJ1wxBIEnUqxlGRtHayxJBFnTT3a+cLHDwEhBAwkWcnU3DqlP8Uff2+88UZJaSX/77/4LjP+r5OTM7mDZtQV+O9CCpdoqatrrK4WDs/7+MgePpRz3PWrV69GRcVfuZKWmPisqena1avXrlwRhtVVVDypq3tcW+vt6SnnuMKcHD9v78Dz5/k9doRhahu8L6n2lIk70amkt3YI7rYKBazmKoJI4BBjShJE1tSjnS98/PARkuQLzoWgQHF2tuBOdu7c2WbuXOdduyICAqoLCiDA0xEDOpU6CoXDVBTAGqsiiF6HrKlHO1/4+CEghIBBrzRkebCSUVmHTqVOz1dWFBZeDA2Vc1xaYqKc47zOnq0qKYmLjr4aFfW0sbEwJyc9OVmwCPN/++20h0dCbOyF0FB/X1+hv7K4OMjfX85xt27ceN7cnJOZeerXX/19fSuLi4Ux7TbgeJQ8VHQqaSkl/J2jC1qs5rqoRNcYjClJvFhTj3a+8PHDR0iSLzjXLApUFxREBAQ479plM3fugH79BvTrZzN37syZMz/++GO63Ell9dCpVFYD27orgDVWd63ajmRNPdr5wscPASEEDG1zDXvUKoBOZfvuZF1FxfXYWME3/L2hwf3EiUdlZQd//vnShQux0dH+vr615eWXLlzIvHlTGCY06ioqqoqLG6qqgvz9K4uL/X1972dl+Xl75927J+e49OTk1vp6YbDahvC8m7E/NKn26rp3olOpNsdAderuUfKwsZqDCp8oYDCmJDKyph7tfOHjh4+QJF9wrmkUqC8tjb148ScXl2WLFvXs2bNz587Dhw+fOnVqgKdncXa2aTAY+yroVBpbYamujzWWJLKsqUc7X/j4ISCEgIEkK5mai07l/3cqG6uruUeP1BpzTX9sq12cmxvg53c1Kuqn/fuf1NaGh4QU3b9/Pyvr0oULco4rycsLDwlpO/3ShQt309OD/P0f/GFNFufm3k5JeVRe3nakph7gBqUAG51KOLVD2d0mQYXVnEQ9mHMxpiRxYU092vnCxw8fIUm+4FwjKcBVVqbExh49cODTVavGjhnTzcJisrW1/aZNZ0+cyE5LM9JFzbssOpXm1Z/eq2ONJYkda+rRzhc+fggIIWAgyUqm5qJT+f+dypSEhJs3bgi+W05m5vPm5oaqqsjw8FO//tpSX/+/H50sK5NznK+XV+mDB3dSU5Pi45tqajzPnJFzHP+sJW9Z8htz80vVVVTcunGD31dHWFxtQ9ldUjsAeCc6lWasHSo74YiFBKu5WErCWQdjShIL1tSjnS98/PARkuQLzhVLgZaamqzk5FNubl+sX289aVI3C4v+/ftPmjTpww8//Pzzzx9XVYl1IbDroFMJNjTAgWGNJQkQa+rRzhc+fggIIWAgyUqm5qJT+X9Opezhw7x798KCg5OvX68oLJRz3IF//eve7dtVJSVRFy9eunCh6P594TuSydevJ1+/XlVSwn968pib2/PmZjnHnfHweNbU9CA7u/qP/b61G4u8L6l9DF1n0ak0fe0Q3G0jXRqruZGENeOyGFMS8VlTj3a+8PHDR0iSLziXRIEHGRl+p09vs7efPmVKp06devfuvWrp0p/37r126VJjWRnJyjTORaeSxqhBwIw1liQKrKlHO1/4+CEghICBJCuZmsuuU/l7Q8NvGRn85tqhQUEJsbFx0dHH3NyqS0sD/Pxa6+svhIb6eXuX5OVdu3o18+bNpPj45OvX+Q9WXo+NDfL3f97cfNzN7XJExM0bN1ra+9akiudIywvdKrC1H6JTadTaYWxTUi14rOZqZaG6E2NKEj7W1KOdL3z88BGS5AvO1UuBiry8cD+/3Tt2zJs9u2+fPi8PHLjQxmbWrFlr1qyRFRXptZT0BqNTKb2YmoYR1lgSnVlTj3a+8PFDQAgBA0lWMjVXmk5lU01NblZWQlxcUnx8S10d7681VFU9uHfv8R9fovT39Y2OjMy6deuIq+uTurpjbm78GLejR1vr60MDAwtzcmIiI9OSkiLCwm4mJckePvT39W2prz935kxwQMDd9PS76enabTv+rOAuSdKaVFEAnUqj1g4jvd+tHTNWc+360HgWY0oSNdbUo50vfPzwEZLkC87VrkBtcXFMePheJ6cl8+f36NGjS5cuI0aMmDZtWrC398OcHO1zWTuLTiVrEReLL9ZYEiVZU492vvDxQ0AIAQNJVjI1V4JO5fPm5n0//ngzKan0wYO4mJjoyEg5x91NTw88f/52Sor7iRPPm5vDg4Oz79yRc1x0ZOT9rKyjR448a2qSc1yAn19xbu6j8vKzp07Fx8Q8bWw8dPDgvdu35RyXfP26ijGn9pAFR1ItcTnHoVMpSu1QdrdFWZBkEazmJOrBnIsxJYkLa+rRzhc+fvgISfIF56oo0FRenhQTc2jfvo9XrOjTp89L3bpNnTzZwc7O69df79+6pTIYD5UVQKdSWQ1s664A1ljdtWo7kjX1aOcLHz8EhBAwtM017FGrAPVO5fXYWG9Pz19PnizOzRUctDMeHrV/bK6ddesW/752SV6erKzsTmrqoV9+qS4puXXjBu88Zt+5ExsdfTE09E5q6pPaWs8zZ5Li4+UclxAb+yA7W85xT/79SKawuNqG4C6pPctIJzqVanNMeyd/52gfY8azWM3NKL6RLo0xJRGWNfVo5wsfP3yEJPmCc1tqau4kJrq7um60tZ1kZWVhYTFw4MDXX399wYIFdnZ2T6qrUSIdFUCnUkehcJiKAlhjVQTR65A19WjnCx8/BIQQMOiVhiwPpsyprC0vz7x5UzD+akpLfc6dk3NcRWFh4PnzQn90ZKTnmTPnfXy8PT3DgoMbqqoqioq8PT1L8vKuXLqUkZZWUVQU5O8v57i6igpvT89mmexCSEjUxYu15eVNNTXCOmobaEqqlQWfqdS3jgD3KHk6WM31DSv88RhTkhixph7tfOHjh4+QJF/YnNt2J5zx48fzO+E0lZezqQk5a3QqyTVkcwWssSRxZ0092vnCxw8BIQQMJFnJ1FzKnMrG6moPd3fBKXvW1MS/tZ2TmXntyhWh/97t21EXL/KHd9PTYyIj05OT42JiWurqwoKD3U+cqCwqCg4I4AfUPHwoTGy3wfLL3e2Kg89Uqq0dgrVtlg9NqoWkeydWc921omUkxpQkUqypRztf+PjhIyTJF0bmqt0Jx2X3btwJR8QbAJ1KEcVkaimssSThZk092vnCxw8BIQQMJFnJ1FzKnEo5xx0+dIh3JwXjrFkm8zx9ulVp9+26ioozHh5yjmuuqQkNCrqTmso9euTv6xsZHl5fWVlXUaGygrCU0FB2l4RObGhXAJ1KtbWDRoNSIILVXJBCMg2MKUkoWVOPdr7w8cNHSJIvUp2rvBPO0CFDhJ1wVq5ciTvhGCno6FQaSVjJL4s1liTErKlHO1/4+CEghICBJCuZmkufU+nn7V1RWKhsmfn7+lYWFyv3yDnu0C+/+Hp5hQQE5N29q3JK7SE+LKlWFr06GXcqld1tyRQRrOaSCaVABGMqSGFAgzX1aOcLHz98hAakifSmqOyE07FjR9wJx8RRRqfSxIJL5nJYY0lCyZp6tPOFjx8CQggYSLKSqbn0OZXXr169deOG4KCVPnjg5+1988bZcI2KAAAgAElEQVSNsODgG9euCf1PGxuFtpaG4C5pGYOndFSAKaeSv3NaHz2Sdr3Aai69+GJMSWLKmnq084WPHz5Cknyhd+6T6mqVnXAmWVnhTjhmDCg6lWYUn+pLY40lCR9r6tHOFz5+CAghYCDJSqbm0udU5mdn+5w7l5KQEBIQEHXxYtH9+3ExMbl37zbLZNoNNTQltetDfpYRp5K/kXi50KlkqlxKgyz+QpPEkTX1aOcLHz98hCT5Qtfc+7duef36q4Od3dTJkzt27NinT58JEyYc2rcvKSYGd8IxeyjRqTR7CCgFgDWWJHCsqUc7X/j4ISCEgIEkK5maax6n8vHjx66uru+8846ivT8nJ2cVB+1JbW28btakykQ8NLYCEnMqBWtby5cB0KlkqlxKgyz+QpPEkTX1aOcLHz98hCT5Anzuw5ycYG/vXdu2vTdrVu9evYYOGbJk/vy9Tk5r166tLS4GDp41eOhUshZxsfhijSVRkjX1aOcLHz8EhBAwkGQlU3PN41Tm5OTk5+cvXbq0PaNS0dapbNduEwymdkfiAHEVkIBTqcWUVKsVOpVMlUtpkMVfaJI4sqYe7Xzh44ePkCRfoM2VFRVFBQe77N690Mbm5YEDLSwsRo4cOWPGjNWrV1fk5UFDi3iUFUCnUlkNbOuuANZY3bVqO5I19WjnCx8/BIQQMLTNNexRq4B5nEreoFTrVMb/51+7TqXyq7hqvSTsFBR4Uld3PyurODdX6BG3Qa9TabC7jU6l2rKCnZAVwF9okuiwph7tfOHjh4+QJF/MPrexrOzapUs/7927aunS3r17d+rUafqUKdvs7f1On36QkWF2eAhAdwXQqdRdKxyprADWWGU19G2zph7tfOHjh4AQAgZ9M5HZ8RQ4lQUa/nh3ScNJ7FZVICsra//+/WfOnPnxxx8vX76sepqZY8GUZIYxEkUFUAFUABVABZhQIC8vLyIiYu/evStWrBgzZoyFhYWVlZW1tfWiRYtiYmLy8/OZUAFJogKoACqACqACqAAqQLkC4JxKlffBnZycBWtJ3zdzxX1gkPbVfsvIiI2OlnNcSEBAXEyMMejAf6ZS9FsIn6lk9j/y0Esc/1siSexYU492vvDxw0dIki+mmZudlnb2xAn7TZsmW1t37Nixb9++EydOtLGxSYmN5SorTYMBr2JsBfCZSmMrLNX1scaSRJY19WjnCx8/BIQQMJBkJVNzzeNUXrx4cevWrVOnTt26dWtoaKiKO6l82O7b38Zw3CS8Zkle3jE3t5a6OmNwhONUmszdRqeSqXIpDbL4C00SR9bUo50vfPzwEZLki5HmPszJCfD03OngMHP69M6dOw8fNmzZokU/ubjEXrxYX1pqpIvisuZVAJ1K8+pP79WxxpLEjjX1aOcLHz8EhBAwkGQlU3PN41Qqe5Ha2+hUimsp3kpOLszJEXdNYTUzOpWiPywpkNLeQKeSqXIpDbL4C00SR9bUo50vfPzwEZLki1hzVXbC6dunj7ATTnVBgVhXwXUgK4BOJeToQMaGNZYkOqypRztf+PghIISAgSQrmZqLTiWn3YqS2Nl7t29HhIUZiZTpnUrh2UkjMWp3WXQqmSqX0iCLv9AkcWRNPdr5wscPHyFJvhg8t+1OOK+88gruhGOwnhKYiE6lBIJoFgpYY0lkZ0092vnCxw8BIQQMJFnJ1Fx0KtlyKmvLy8sLCto14AwbYFSn0uympFpN0KlkqlxKgyz+QpPEkTX1aOcLHz98hCT5ovvcx1VVN+Pjjx88uG7Nmgljx3azsLCeNOmL9esXLVqUlZzcUlOj+1I4UpIKoFMpybCagBTWWBKRWVOPdr7w8UNACAEDSVYyNRedSracSrV2m1idxnMqzfVyd7vKoFPJVLmUBln8hSaJI2vq0c4XPn74CEnyRftc3AlHuz54VlkBdCqV1cC27gqwXGN1V0nTSNbUo50vfPwQEELAoCnjsF9FAXQq0akUTQFyp1J4cBKsNaniXaJTqVJQ8BC+AvgLTRIj1tSjnS98/PARkuSLytzi7GzcCUdFEzzUUQF0KnUUCoepKMBUjVXhTn7Imnq084WPHwJCCBjIc5ORFdCpFM2nU/GwGDw0wKnkrUl6tUKnkpFCKSWa+AtNEk3W1KOdL3z88BGS5Et1QUFEQIDzrl02c+cO6NdvQL9+o0aNmjlz5scff4w74ZAIy+BcdCoZDLoolKVdY0WRSMsirKlHO1/4+CEghIBBS9LhKWUF0KlEp1I0BfRyKmn3KHl3FZ1K5WqCbSoUwF9okjCxph7tfOHjh49Qr3ypLy2NvXjxJxeXZYsW9ezZs3PnzsOHD9/p4BDg6Vmcna3XUjgYFVBWAJ1KZTWwrbsCEquxuhMXZSRr6tHOFz5+CAghYBAlPVlYBJ1K0Xw6eh8MFAu5WqeSuhe69VIDnUoWqqTEOOIvNElAWVOPdr7w8cNHqD1fuMrKlNjYowcOfLpq1dgxY7pZWEy2trbftGnx4sXZaWna5+JZVEB3BdCp1F0rHKmsAO01VpmL6dusqUc7X/j4ISCEgMH0uUzpFdGpZMKpvHHtWoCfX/yVK3rZcPoO5p1KWj4xqS87tePRqaS08LEMG3+hSaLPmnq084WPHz5ClXxpqanJSk4+5eb2xfr11pMmdbOw6N+//6RJkz788MPPP//8cVWVyng8RAVEUQCdSlFkZHAR6mosqBixph7tfOHjh4AQAgZQaQ4ZDDqV1DuVCXFxTTU1Kj5aamLixdDQ8JCQ1vr6nMzM2OhoOcfdSU39vaFBZaRYh8Kzk2ItSMU66FRCrm6ITa0C+AutVhYdO1lTj3a+8PHDR9gqkz3IyPA7fXqbvf30KVM6derUu3fvVUuX/rx377VLlxrLynTMHRyGCpAogE4liXosz6WixoINEGvq0c4XPn4ICCFgAJvy0IChU0mTU/msqamiqCg9OTkuJqYwJ4f38oIDAlrr62tKSyPDw/19fXOzsnKzsq5GRck5LiMt7WpUVPL167eSk8U1/tR+ZVLt29/iXhfaauhUQqtoiKddBfAXul2JtAxgTT3a+cLHDxNhRV5euJ/f7h075s2e3bdPn5cHDlxoYzNr1qw1a9bIioq0JAieQgWMpAA6lUYSVvLLwqyxtMjOmnq084WPHwJCCBhoqQBmx4lOJWin8nFtbUZaWlJ8fEVhoZzjkuLjvTw9czIzSx88OOLq+ri2Vs5x53185Bx39vRpTibjLcuUhIRzZ8+GBAaGBgXdTkkpun8/yN9fznFVJSWpiYmEZp9aj5JfE51Ks+ez6ACwmosuqdkXxJiShIA19WjnCx8/EIS1xcUx4eF7nZyWzJ/fo0ePLl26jBgxYtq0acHe3g9zckhSBueiAqIogE6lKDIyuAiQGkup8qypRztf+PghIISAgdKCYHrY6FTCdSrzs7M93N0z0tJyMjN9vbyaamoKc3JCAgLkHPd7Q8PZU6da6+vlHOfn7S3nuOTr18+cOuXt6Xn18uXCnJwAPz/ePcxIS3ve3HzexyciLMzz9OmH+fk6OpXC29y6f3cSnUrTJ7Cxr4jV3NgKm359jCmJ5qypRztf+PjNhZCrrEyKiTm0b9/HK1aMHjXqpW7dpk6e7GBn5/Xrr/dv3SLJEZyLChhDAXQqjaEqC2uaq8ZKQ1vW1KOdL3z8EBBCwCCN+mACFuhUgnAqq0pKkq9fz717V9lGPHb0KPfokXJPS339zwcO+Pv6ent6Bp4/fzMpSXAq+WFPGxsvhobez8oKPH8+IiwswM/v5o0b/KmGqqqnjY3Kq6m0dXckVSYKh+hUmiBjTXwJrOYmFtwEl8OYkojMmnq084WP32QIte+E86S6miQvcC4qYGwF0Kk0tsJSXd9kNVaSArKmHu184eOHgBACBkmWC2OQQqfS/E5lcW5ukL9/ZXFxgJ9f3r/NyufNzUdcXXkTMD87+3JEBP+Wt9vRo/xL33KOcztypLW+3tfLS85xD/PzA8+fv3blis+5c/wGO001NbrsnyM8OykYjgY30Kk0Roqad02s5ubV3xhXx5iSqMqaerTzhY/fqAhxJxySZMe5oBRApxJUOCgCY9QaS5EOhkFlTT3a+cLHDwEhBAyG5SODs9CpNIVT+by5ufmP7bl/y8jw8/Y+e+qU8vci01NSUhIS5Bx349q1rFu3BKPQ9dChlro6OceV5OVVFRfzFmRoYGBhTs7z5ubCnJyTx48/a2rinUo5x8nKyqpLS4XpbRuCKUn++GTbxeUch06l9CoIVnOMqfQUIGHEWkbQzhc+fnER4k44JNmNcyErgE4l5OhAxiZujYXM1BjYWFOPdr7w8UNACAGDMbJVkmuiU2lcpzI1MdHP29vXy4v3Io8fO/asqelZU9Oxo0cFs+/3hobggABfL69fT57MvHlT6I+Njo66ePF5c7Oc4yqLi91PnGiqqUlLTDx+7Jivl1f8lSu8+6n9nW5hNTnHGcmgFC6BTqX0agRWc4yp9BQgYcRaRtDOFz5+QoS4Ew5JOuNcihRAp5KiYIGCSlhjQXExPRjW1KOdL3z8EBBCwGD6XKb0iuhUGtepDDx//lF5ueDlPW1sbK2vz7x5MzoyUuiUc5znmTNP/nh88rSHR2N1NX/qWVNTdESEh7u719mzkeHhdRUVco7TxZc09rOTysiV2+hUUloFtMDGaq5FHEpPYUxJAseaerTzhY9fX4RN5eXCTjh9+vTBnXBI0hnnUqQAOpUUBQsUVH1rLCjwZgfDmnq084WPHwJCCBjMntq0AECnktSpFF6+5j27lro6wWqUc1xsdHRSfHxoUFBYcHB9ZSX/Qcmrly/7ennlZGYKNp/bkSO8Bel19iw/TDjVboP3JdsdZoIB6FTSkva648RqrrtWtIzEmJJEijX1aOcLH3+7CJ9UV99JTHR3dd1oazvJysrCwmKSldXrr7++YMECOzs73AmHJJ1xLkUKoFNJUbBAQW23xoJCCw0Ma+rRzhc+fggIIWCAlulg8RjXqXz48KG9vf2OHTv+8Y9/tLS0KP79d+TIka1//K1ater48eP/7lbzf52cnE1gsel1iYrCwouhoXKOS0tMlHOc19mzVSUlcdHRV6OinjY2FubkpCcnCwvez8q6dOFCS11d0f37586cER6KrCou5nfIuXXjxvPm5sybN8/7+IQFBWWkpQlz223A8Sh5qOhUgs1zg4FhNTdYOrATMaYkoWFNPdr5wsevFuH9W7e8fv3Vwc5u6uTJHTt27NOnz4QJEw7t25cUE9NUXk5yA+NcVIBSBdCppDRwZoettsaaHRUtAFhTj3a+8PFDQAgBAy0VwOw4jetUOjo63rt3T6FQ+Pj4+Pv7qziRz549c3BwaGxsVOlXPoTgVNZVVFyPjRV8w98bGtxPnHhUVnbw558vXbgQGx3t7+tbW15+6cIF5a9MCuOFxnE3t8KcnHNnzuRkZgb4+fGb56QnJ7fW1wtj1DbM9Ta3WjBaOtGpNHs+iw4Aq7nokpp9QYwpSQhYU492vvDx8wgf5uQEe3vv2rbtvVmzevfqNXTIkCXz5+91clq7dm1tcTHJHYtzUQFpKIBOpTTiaHoW8H8FTK+J7ldkTT3a+cLHDwEhBAy65yDjI43rVC5fvvz58+cKhSIjI8PFxUXZglQoFGfPno2JiVHpjP/PP1M6lY3V1dyjR2qduKY/du4uzs0N8PO7GhX10/79T2prw0NCiu7f55+a5HfoDg8JUZn+e0ODl6fnbxkZ0RERsdHR/Nvfd1JTax4+VBmp5dDYO+FoubRep9CplF41wWqOMZWeAiSMWMsI2vmCxS8rKooKDnbZvXvOnDkvDxxoYWExcuTIGTNmrF69uiIvj+QWxbmogCQVQKdSkmE1ASmwvwIm4E5+CdbUo50vfPwQEELAQJ6bjKxgXKdyxYoVvFN5586df/7zn8qmZEtLyyeffPLixQvlToVC8Z9GZbyTk3OBqf4iIyOjoqKEq127di0/P//evXt+fn7Hjh3Lzc09depURkZGQUGBh4dHampqdHT0xYsXs7OzT5w4UVBQkJeXd+TIkYKCgpSUlKysLGGdjIyMy5cvp6amCj2aGsrPTmoag/2oACqACqACqAAqQJcCOTk5gYGBe/bsWbhwYe/evTt16vTmm29u3LjRzc0tMTGRLi6IFhVABVABVAAVQAVQAVQAFTCqAsZ1Kvfs2ZOZmalQKDw9PYOCgpRNyatXrx45ckS5R23bZM9Uyh4+zLt3Lyw4OPn69YrCQjnHHfjXv+7dvl1VUhJ18eKlCxeK7t/39/WtLC6Wc1zy9evJ169XlZT4+/rKOe6Ym9vz5mY5x53x8HjW1PQgO7u6pKTdpxGhfWWyXcDtDsBnKqX33zfwvzthTKWnAAkj1jKCdr5mxP+4qupmfPzxgwfXrVkzYezYbhYW1pMmWVtbL1q06Msvv2ypqeHvQzMiJEkEnIsKmFgBfKbSxIJL5nJYY0lCyZp6tPOFjx8CQggYSLKSqbnGdSrLy8vt7e23b9++e/fu1tbW0tJSW1tb3pE8fvx4eHi4WndSudN4TuXvDQ2/ZWRUFhXJOS40KCghNjYuOvqYm1t1aWmAn19rff2F0FA/b++SvLxrV69m3ryZFB+ffP06/8HK67GxQf7+z5ubj7u5XY6IuHnjRkt735pUsfloeaFbBbb2Q3QqpVc7sJpjTKWnAAkj1jKCdr4mxp+dlnb2xAn7TZsmW1t37Nixb9++EydOPHrgQEpsLFdZqfbGMzFCtRiwExWArwA6lfBjBBMh1liSuLCmHu184eOHgBACBpKsZGqucZ1KZc/RsLZhTmVTTU1uVlZCXFxSfHxLXR3vrzVUVT24d+/xH1+i9Pf1jY6MzLp164ir65O6umNubvwYt6NHW+vrQwMDC3NyYiIj05KSIsLCbiYlyR4+9Pf1bamvP3fmTHBAwN309Lvp6dptO/6s8gvduoynegw6ldKrHVjNMabSU4CEEWsZQTtfY+PXshNOfWmpLneasRHqggHHoALwFUCnEn6MYCLEGksSF9bUo50vfPwQEELAQJKVTM2VoFP5vLl5348/3kxKKn3wIC4mJjoyUs5xd9PTA8+fv52S4n7ixPPm5vDg4Ow7d+QcFx0ZeT8r6+iRI8+amuQcF+DnV5yb+6i8/OypU/ExMU8bGw8dPHjv9m3+jW9dbERJPiypC3E5x6FTKb3agdUcYyo9BUgYsZYRtPMVHb+wE85CGxtRdsIRHSHJ7Y1zUQGwCqBTCTY0wIFhjSUJEGvq0c4XPn4ICCFgIMlKpuZS71TGX7ni7+vr4e5ekpcnGGpnPDxqy8vlHJd16xb/vnZJXp6srOxOauqhX36pLim5deNG8vXrco7LvnMnNjr6YmjondTUJ7W1nmfOJMXHyzkuITb2QXa2nOOe/PuRTGFxtQ3h2Um1ZxnpRKdSerUDqznGVHoKkDBiLSNo50uOv7Gs7NqlSz/v3btq6VJ+J5zpU6Zss7f3O336QUYGyb3EzyVHSI4BV0AF4CuATiX8GMFEiDWWJC6sqUc7X/j4ISCEgIEkK5maS5lTWVtennnzpmD8lRcWBgcEyDmuLD+fb/CnoiMjPc+cOe/j4+3pGRYc3FBVVVFU5O3pWZKXd+XSpYy0tIqioiB/fznH1VVUeHt6NstkF0JCoi5erC0vb6qpEdZX20BTUq0s+EylJAsHVnPphRVjShJT1tSjna8B+NXuhPPF+vWLFi3KSk4WdsIhuYuU5xqAUHk6tlEBRhRAp5KRQItOE2ssiaSsqUc7X/j4ISCEgIEkK5maS5lT2Vhd7eHuLjhlz5qanjc3N9XUXImK4t/R5k/du3076uJFvn03PT0mMjI9OTkuJqalri4sONj9xInKoiLB2ax5+FBYsN0Gyy93tysOPlMpvdqB1RxjKj0FSBixlhG089URv9qdcGxsbLTshENyFynP1RGh8hRsowIMKoBOJYNBF4Uy1lgSGVlTj3a+8PFDQAgBA0lWMjWXMqdSznGHDx3ivykpGGdZt27FXr7sefo0/8Y3/6TkGQ8POcc119SEBgXdSU3lHj3y9/WNDA+vr6ysq6hQWUFYSmgID06iNSlo0m4DnUrp1Q6s5hhT6SlAwoi1jKCdrxb8AZ6eOx0cZk6f3rlz5+HDhi1btOgnF5fYixd13AmH5C5SnqsFofIwbKMCjCuATiXjN4DB9LHGGixdq0zGmnq084WPHwJCCBhIspKpufQ5lX7e3hWFhYJr9rSx8Xlzs5zjUhISUhIShP5Dv/zi6+UV8v/YOxPoms91/5+17v2LaiKiDlWqVDkOVdpqDVVDqaJVqqVNtUcPbU9bLTXVPNZQUjWrOYQQhKiZIBFEEpkMEQlbIjJvkUg20pKb/2Lfu88+mbqT9907z/s+X+usdX/Z+T3v/n4/j+fJut/+Yu/YEX/hguXFMi6QSJYBx8ZvIanUb3dgm6On+hEQccRtIlT3a63/6rlzO7y8xn3/fbcuXdxq1GjWrFm3bt0+/fTTDINB5K+EYK21QsGjUA4CGhNAUqlxc+1qDTtWBC83eqr7pa+fgkIKGkSmklWtekll0LFj4cHBluwswN//4N69FyMjN6xbl5GUZHn9j9u3LddlXFienSzjHnzLRgJIKvXbHdjm6Kl+BEQccZsIpf2mxsevW7du8g8/NG3a1NnZ2dXVtd877/w4efLBnTsrN520/huoNGFrI7gGAbsSQFJpV7waH44dK9JcbvRU90tfPwWFFDSITCWrWvWSyqsxMVs2bQo5edJvx45D+/Y9yMuLPXfufHh4ntFYdqCGULJsPuLfRVKp3+7ANkdP9SMg4ojbRKjl15iQcGT37jnTpr3ft2/DZ56p9cQTnR/92bl5843YWJG+269WLcL244CTaRIIDQhYs3Tp5B9+OPLbb+lXr1aiSCSVlQhf6bfGjhVpHzd6qvulr5+CQgoaRKaSVa16SeXdrKxAf/+4Cxf+NJoUj95wQrkIIKnUb3dgm6On+hEQccRtIoj7vREbu8vbe9KYMW91716tWjVXV9e///3v3bt3P7RrlzEhQYl/Y4s4YZFhQa26BOIiIt7t3fsvxf4806DBz7NnV4ovJJWVgl2DN8WOFWkiN3qq+6Wvn4JCChpEppJVrXpJ5Z9mZ3h28k8R2ekGJJX67Q5sc/RUPwIijrhNBDW/xoSEQ7t2zZoy5b0+fVxdXWs98cRb3btPGjNml7d3iU9NUtNf/O8efYXFNeMVvQmsWbKkhqtrsZTy3y90eu21uIgIB0NAUulg4Nq8HXasSCu50VPdL339FBRS0CAylaxqlU8qzbmknaI3HFsuAkgq9dsd2OboqX4ERBxxm4hK93s7OfnEwYO/zJ07aODAps895+Ls3LBhww4dOgwYMOByePiftrLS9Wug8E8t4AadCHz75Zf/jiT/8pcW1Zw+fKL62KdqdnB5rPp//ZflWzVcXUMDAhxpHEmlI2nr9F70fwpQps2Nnup+6eunoJCCBspTT0qbwkklMspyxYgOuBlJJanZliIG21wKRlKHoKci7eBGz/F+76Snnw0MXLlo0eeDB9etW7dKlSr16tV75ZVX1ixZEnny5N2MjHK1z/H6yyVPid9PL68j3K8uge0bN1qyyBbVnI43b5D58nPW/xv7VE3LDa1atnSkUySVjqSt03vR/ylAmTY3eqr7pa+fgkIKGihPPSltCiSVlt/mnj59ugPiNrxFhQkgqSQ121LEYJtLwUjqEPRUpB3c6DnGb0xY2MZVq4Z/9VWHtm2dnZ2bN2v2qbv74nnzTh05kpuSone/HENYhCFqmRBIv3rV8kvfHz5R3TqgtL4+3ryB5eHKyWPHOgwOkkqHodbsjbBjRRrKjZ7qfunrp6CQggaRqWRVq0BSWeHgDIUOJoCkUr/dgW2OnupHQMQRt4mwk9/EmJgdXl7jR47s1qWLW40abm5uLVq06NGjx2effZaVmCjSoCK1dtJf5F1EvqSvUMQdahUiYPm976ed/t+V1s9ap5NFrn98+q+WJysd9oHgSCoV+rtESip2rEg7uNFT3S99/RQUUtAgMpWsapFUmhwc52n8dkgq9dsd2OboqX4ERBxxmwhZfo0JCQd37vxx8uR+77zj6uparVq1Ht26TRw92nfTpsSYGJGOlF0rS3/Z7yLyXfoKRdyhViECnTp0MOePGxrXLRJNFv+yRTUn881Hdu92jEcklY7hrN+7YMeK9JQbPdX90tdPQSEFDSJTyaoWSSWSSmkEkFTqtzuwzdFT/QiIOOI2ERX2ezs5OfDAgQVz5nw8YEDT555zrV69c8eOr7322sCBAx35qcEV1i/yl6RctfQVlssOblaXgOUxyeK5ZPFXLP9gpcN+ARxJpbp/tSpXOXasCH9u9FT3S18/BYUUNIhMJataJJXScjqNH5a00RqSSv12B7Y5eqofARFH3CaiXH5T4+P3+Ph8Pnjwk08+af4knLZt25o/CUeEuUhtufSLvFGFa+krrLA1FCpEIDQgwJxUtqjmVDyXLP7KhsZ1zff36dXLMTaRVDqGs37vgh0r0lNu9FT3S18/BYUUNIhMJataJJVIKqURQFKp3+7ANkdP9SMg4ojbRJTtNysx0X/PnrnTp3/Qt2/DZ56p9cQTb3XvvnzBgpDjx0UgS6wtW7/EN6rwUfQVVtgaChUiEBcRYU4eGzj9v+K5ZPFXkFQq1FzmUrFjRf4CcKOnul/6+ikopKBBZCpZ1SKplJbT2fjgoca3IanUb3dgm6On+hEQccRtIor4zU1JOe3vv3jevE/d3Zs3a+bk5NSwYcMOHToMGDDgcni4CFg71RbRb6d3ETmWvkIRd6hViAB++zvfaMQ8KvQ31kap6KmNoEq8jRs91f3S109BIQUNJY4bXixOAEklkkppBJBUFh8w1V/BNle9g8X1o6fFmdj+Cjd6V65ciTp1as2SJf8aMqRevXpVqlRp80zunOoAACAASURBVOKL/xoyZM2SJVGnTt3NyLAdXaXcSb9f9BVWSuPwpo4ngE/UQVLp+L91DnhH7FgRyNzoqe6Xvn4KCiloEJlKVrVIKqXldBo/LGmjNSSV+u0ObHP0VD8CIo44TMTl8PDNa9eOHDasU4cOLi4uzZs1a9269dtvv33a3z83JUWEnuNr6feLvkLHdw3vWCkEvv3yS8svgF9p/Wzx3/i2vPLj03+1PICZfvWqY9Ti36l0DGf93gU7VqSn3Oip7pe+fgoKKWgQmUpWtUgqkVRKI4CkUr/dgW2OnupHQMSRlhNxIzZ2l7f3pDFjmjRpUq1aNTc3txYtWvTo0cN/z54LFy6I4Kr0Wvr9oq+w0psIAY4hkH71qmv16uYI8qNa1S25ZJGL480buP73f5lvc9gHf+cbjUgqHfPXQL93wY4V6Sk3eqr7pa+fgkIKGkSmklUtkkppOZ2NDx5qfBuSSv12B7Y5eqofARFHekyEMSHh0K5ds6ZMad68uaura53atXv36DFl3Lg9Pj6p8fHWfFT3S18/fYXWfx9wrTeBI7t3Wx6WfL6a0/HmDYrElGOfqmm54YXnn3ckDSSVjqSt03thx4p0kxs91f3S109BIQUNIlPJqhZJJZJKaQSQVOq3O7DN0VP9CIg4UnQibicnnzh48Je5cwcNHNj0uedcq1dv1KhRx44dP/zwwyvR0WUAUdSvxRF9/fQVWmDiggMBy++AmxPJ56s5fVSr+tinar7m8pjlUcq//OUvrtWrx0VEOBIIkkpH0tbpvbBjRbrJjZ7qfunrp6CQggaRqWRVi6RSWk6n8cOSNlpDUqnf7sA2R0/1IyDiSJWJuJOefjYwcOWiRZ8PHly3bl0nJ6f69et/88UX61esOH/mzL3MTBshqOK3NDv09dNXWBpbvK4rge0bN1p+DdzyBKX1RacOHRz2z1NaICOptKDARbkIYMeWC1eRm7nRU90vff0UFFLQUGTQ8GVpBJBUIqmURgBJZWljpu7r2Obq9q405ehpaWRseZ0yvZiwsI2rVg3/6qsObdu6ODu3bNHis0GD+vTpE3L8uCktzRZ3xe+h7Le42uKv0NdPX2FxqnhFewJxERF9evWyTifN1888/bTHrFmVYh9JZaVg1+BNsWNFmsiNnup+6eunoJCCBpGpZFWLpFJaTmfjg4ca34akUr/dgW2OnupHQMQRqYm4ERu7w8tr/MiR3bp0eeyxx2rWrNmyZcuePXse37cvOylJxKallpRfiyrbL+jrp6/Qdtq4Uz8CoQEBa5YsmTx27JHdux3/HKU1TySV1jRwbTsB7FjbWRW/kxs91f3S109BIQUNxWcNr5RIAEklkkppBJBUljhjSr+Iba50+0oUj56WiMXGFyuXXhmfhJNhMNhooVy3Va7fckkt8Wb6+ukrLBEsXgQBBxNAUulg4Nq8HXasSCu50VPdL339FBRS0CAylaxqkVRKy+k0fljSRmtIKvXbHdjm6Kl+BEQcOXgiKvxJOCIerWsd7Nf6raVc09dPX6GURuAQEBAkgKRSECDbcuxYkdZzo6e6X/r6KSikoEFkKlnVIqlEUimNAJJK/XYHtjl6qh8BEUf2nghZn4Qj4tG61t5+rd/LHtf09dNXaI++4EwQKC8BJJXlJYb7zQSwY0X+JnCjp7pf+vopKKSgQWQqWdUiqZSW09n44KHGtyGp1G93YJujp/oREHFkj4mwxyfhiHi0rrWHX+vz7X1NXz99hfbuEc4HAVsIIKm0hRLuKU4AO7Y4E9tf4UZPdb/09VNQSEGD7TPI/E4klUgqpRFAUqnfNsE2R0/1IyDiSMpEJMbEWD4Jx61GDXt8Eo6IR+taKX6tD3TwNX399BU6uGV4OxAokQCSyhKx4MU/JYAd+6eIyriBGz3V/dLXT0EhBQ1lDB2+ZU3AvknljRs3hg8fPm7cuIkTJ967d6/wP//4+voOHDjwP18r+tX06TM0fghRM2tIKq1HS49rbHM9+mjtAj21plHe64rRyzAY9u/YMWPSpGbNmrk8+tOnV68Zkybt37HDTp+EU15fpd1fMb+lneb41+nrp6/Q8V3DO4JAcQJIKoszwSu2EMCOtYVSafdwo6e6X/r6KSikoKG0icPrRQjYN6mcPHnyxYsXCwsLt2zZsn37dusYMiEhYcaMGYMHD7Z+sfg1kkqF0kwklUWmS4Mvsc01aGIRC+hpESDl+tJGetlJScf37fOYNevD/v0bP/usW40a3bp06dSp00cffZQYE1Oud6zcm230W7kiy3h3+vrpKywDL74FAg4jgKTSYag1eyPsWJGGcqOnul/6+ikopKBBZCpZ1do3qfzoo48ePHhQWFgYHR09a9YsSxB5//79kSNH5uTkFE8qA//zD5JKJJWUCeTfvKn3vsA216+/6KlIT0ujZ0pLCzl+fPmCBZ8NGlSnTh0nJ6cGDRq0b99+46pVMWFhIu9YubWl+a1cVba/O3399BXaTht3goD9CCCptB9bvU/GjhXpLzd6qvulr5+CQgoaRKaSVa19k0p3d3dzUhkVFTV79mxLUrl06dLQ0NDCwkJbkkoD/oAACIAACIAAJQJXr1719/dfsGDB4MGD69ev7+zs3KJFC3d397lz5+7fvz8+Pp6SWGgBARAAARAAARAAARAAARAAAWUI2DepnDZt2rlz5woLC728vHbu3GlOKu/fvz9kyJBpj/5069bN09PTkmAWv8AzlZSfKCyiDb/9rd9/5cB/d0JP9SNQYUdXoqNXrFgxZvjwLq+/7lq9eq1atVq1atWrV68TBw/eTk6u8LGUC1XfAPT101dI+e8ntPEhgGcq+fRarlPsWBGe3Oip7pe+fgoKKWgQmUpWtfZNKlNSUoYPHz527NgpU6bk5+cnJSUNGTLEOo4s/kyl9XcLCwuRVBZJAyl/iaRSv92BbY6e6kfAdkep8fF7fHymjBvXtGlTZ2dnV1fXnj17zpoy5dCuXcaEBNvPUfdO1TcAff30Far7txfKdSKApFKnbjrSC3asCG1u9FT3S18/BYUUNIhMJata+yaVRWLHCnyJpJJyNFlEG5JK/XYHtjl6qh+BMhxlJSb679kzd/r0D/r2bfjMM7WeeOKt7t07d+788ccf34iNzTcauU2E6n7p66evsIx5wbdAwGEEkFQ6DLVmb4QdK9JQbvRU90tfPwWFFDSITCWrWiSVpiJxG76sMAEklfrtDmxz9FQ/AtaOTGlpp/39F8+b96m7e+3atZ2cnBo2bNihQ4fNa9deDg+3vtN8zW0iVPdLXz99hcWnAK+AgOMJIKl0PHM93hE7VqSP3Oip7pe+fgoKKWgQmUpWtUgqkVRKI4CkUr/dgW2OnmpG4F5m5vkzZ9avWPHNF1/Ur1/fxdm5dcuWnw8evHLRorOBgXczMsr2y20iVPdLXz99hWVPBL4LAo4hgKTSMZz1exfsWJGecqOnul/6+ikopKBBZCpZ1SKplJbTVfhRRG0KkVTqtzuwzdFTDQhciY728fS0fBJO0+eeq/An4XCbCNX90tdPX6EGGwAWNCCApFKDJlaKBexYEezc6Knul75+CgopaBCZSla1SCqRVEojgKRSv92BbY6eqkig+CfhNG/eXMon4XCbCNX90tdPX6GKGwCa9SOApFK/njrGEXasCGdu9FT3S18/BYUUNIhMJataJJXScjptHo2ssBEklfrtDmxz9FQJAiV+Es6kMWN2eXubPwlHlgtuE6G6X/r66SuUNTs4BwRECCCpFKHHuRY7VqT73Oip7pe+fgoKKWgQmUpWtUgqkVRKI4CkUr/dgW2OntIkkJuSYvkknObNmlk+CWfAgAElfhKOLBfcJkJ1v/T101coa3ZwDgiIEEBSKUKPcy12rEj3udFT3S99/RQUUtAgMpWsapFUSsvpKvwoojaFSCr12x3Y5ugpEQJ3MzKiTp1as2TJv4YMqVevXpUqVdq8+OK/hgxZs2RJ1KlTf/pJOLJccJsI1f3S109foazZwTkgIEIASaUIPc612LEi3edGT3W/9PVTUEhBg8hUsqpFUomkUhoBJJX67Q5sc/S0EglcDg/fvHbtyGHDOnXoUN3FpXmzZq1bt3777bdP+/vnpqRUijBuE6G6X/r66SuslEHDm4JAEQJIKosAwZc2EsCOtRFUibdxo6e6X/r6KSikoKHEccOLxQkgqZSW02nzaGSFjSCpLD5gqr+Cba56B4vrp9zTG7Gxu7y9J40Z06RJk2rVqrm5ubVo0WLu9On+e/ZkJSYW9+L4VyjTswcN1f3S109foT3+XuFMECgvASSV5SWG+80EsGNF/iZwo6e6X/r6KSikoEFkKlnVIqlEUimNAJJK/XYHtjl6alcCxoSEQ7t2zZoy5b0+fZ6uV69O7dq9e/SYMm7cHh+f1Ph4u751xQ7nNhGq+6Wvn77Cik0KqkBALgEklXJ58jkNO1ak19zoqe6Xvn4KCiloEJlKVrVIKqXldBV+FFGbQiSV+u0ObHP0VC6B28nJJw4e/GXu3EEDBzZ97rmqVas2atSoY8eOH3744ZXoaLnvZY/TuE2E6n7p66ev0B5zhDNBoLwEkFSWlxjuNxPAjhX5m8CNnup+6eunoJCCBpGpZFWLpBJJpTQCSCr12x3Y5uipIIE76elnAwNXLlr0+eDBdevWdXJyatumzTdffLF+xYrzZ87cy8wUPN/B5dwmQnW/9PXTV+jgEcPbgUCJBJBUlogFL/4pAezYP0VUxg3c6Knul75+CgopaChj6PAtawJIKqXldNo8GllhI0gqrUdLj2tscz36aO3CAT2NCQvbuGrV8K++6tC2rYuzc8sWLT4bNKhPnz4hx4+b0tKsxSh37QB6pJio7pe+fvoKSf2FhBi2BJBUsm29oHHsWBGA3Oip7pe+fgoKKWgQmUpWtUgqkVRKI4CkUr/dgW2OntpCwPJJOG917275JJwePXr479mTnZRkywmq3MNtIlT3S18/fYWqzCZ06k0ASaXe/bWfO+xYEbbc6Knul75+CgopaBCZSla1SCql5XQVfhRRm0IklfrtDmxz9LREApZPwmnevLmrqyv9T8Ip0UUFXuQ2Ear7pa+fvsIKjAlKQEA6ASSV0pEyORA7VqTR3Oip7pe+fgoKKWgQmUpWtUgqkVRKI4CkUr/dgW2OnpoJFPkkHNfq1dX6JBxZfeQ2Ear7pa+fvkJZs4NzQECEAJJKEXqca7FjRbrPjZ7qfunrp6CQggaRqWRVi6RSWk6nzaORFTaCpFK/3YFtzranxT8Jp379+up+Eo6sPnKbCNX90tdPX6Gs2cE5ICBCAEmlCD3OtdixIt3nRk91v/T1U1BIQYPIVLKqRVKJpFIaASSV+u0ObHNWPdX4k3Bk9ZHbRKjul75++gplzQ7OAQERAkgqRehxrsWOFek+N3qq+6Wvn4JCChpEppJVLZJKaTldhR9F1KYQSaV+uwPbXO+ehgYE7PDyGj9yZLcuXR577LGaNWu2bNmyZ8+ex/ft0+yTcGT1kdtEqO6Xvn76CmXNDs4BARECSCpF6HGuxY4V6T43eqr7pa+fgkIKGkSmklUtkkokldIIIKnUb3dgm2vW0wshIQsWLPjuX/9q0KBBlSpVnm/evE+vXjMmTdq/Y0eGwaCZWXvY4TYRqvulr5++QnvMEc4EgfISQFJZXmK430wAO1bkbwI3eqr7pa+fgkIKGkSmklUtkkppOZ02j0ZW2AiSSv12B7a56j29ERvru2nT+JEju3ft6lajRuNnnzU/NTl06FA8NVmB5nKbCNX90tdPX2EFxgQlICCdAJJK6UiZHIgdK9JobvRU90tfPwWFFDSITCWrWiSVSCqlEUBSqd/uwDZXrqfGhITDfn6zp059r08fV1dXZ2fnpk2bdu3adY+Pj/mpSfRUpKfc6Knul75++gpF5gW1ICCLAJJKWSS5nYMdK9JxbvRU90tfPwWFFDSITCWrWiSV0nK6Cj+KqE0hkkr9dge2Of2e3k5ODjp0aOHcuYMGDqxVq1YNV9cur78+dsQIH0/Pq+fOFdePnhZnYvsr3Oip7pe+fvoKbZ8O3AkC9iOApNJ+bPU+GTtWpL/c6Knul75+CgopaBCZSla1SCqRVEojgKRSv92BbU6wp3czMsJPnFi1ePHngwe/+MILLs7O9evXb9u2bf/+/S+EhNzLzCxbM3paNp+yv8uNnup+6eunr7DsicB3QcAxBJBUOoazfu+CHSvSU270VPdLXz8FhRQ0iEwlq1okldJyOm0ejaywESSV+u0ObHMiPY2LjPRet27Ut982bNjQycmpdu3an7q7L5k//7S/vyktrVwi0dNy4SpyMzd6qvulr5++wiIjgC9BoFIIIKmsFOwavCl2rEgTudFT3S99/RQUUtAgMpWsapFUIqmURgBJpX67A9u8snqaGh/vt2XL5LFj3+revdYTTzR85pkP+vbt0aPHP//5z6zERBFV6Cno2U5A9b8t9PXTV2j73xbcCQL2I4Ck0n5s9T4ZO1akv9zoqe6Xvn4KCiloEJlKVrVIKqXldBV+FFGbQiSV+u0ObHOH9TQrMdF/z56fZsz4oG9fNze3atWqNWnSpEuXLn5btqTGx0uUgZ6KwORGT3W/9PXTVygyL6gFAVkEkFTKIsntHOxYkY5zo6e6X/r6KSikoEFkKlnVIqlEUimNAJJK/XYHtrn9empKSzvt779k/vxP3d1r165d3cWlU4cOI4cN8163Li4iwn7vi56KsOVGT3W/9PXTVygyL6gFAVkEkFTKIsntHOxYkY5zo6e6X/r6KSikoEFkKlnVIqmUltNp82hkhY0gqdRvd2CbS+zpvczMCyEh61esGPbFF23btKnu4lKvXr1XXnmlX79+UadO3c3IkPheZRyFnpYB50+/xY2e6n7p66ev8E+HAjeAgAMIIKl0AGQt3wI7VqSt3Oip7pe+fgoKKWgQmUpWtUgqkVRKI4CkUr/dgW0u2NPEmBgfT8+xI0Y0atSoatWqtWrVGjRw4MK5c4MOHcpNSRE8vGLl6GnFuJmruNFT3S99/fQViswLakFAFgEklbJIcjsHO1ak49zoqe6Xvn4KCiloEJlKVrVIKqXldBV+FFGbQiSV+u0ObPPy9jTDYDjg6ztj0qR3e/d+6sknG9Sv/16fPm+++ebgwYONCQnlPc0e96OnIlS50VPdL3399BWKzAtqQUAWASSVskhyOwc7VqTj3Oip7pe+fgoKKWgQmUpWtUgqkVRKI4CkUr/dgW3+pz3NTkoK2L/fY9asj95/v2bNmo899ljjxo07derk7u5+Izb2T8sdfwN6KsKcGz3V/dLXT1+hyLygFgRkEUBSKYskt3OwY0U6zo2e6n7p66egkIIGkalkVYukUlpOp82jkRU2gqRSv92BbV68p3fS00MDApYvWPDPTz6pU6eOk5PTa+3aDf/qK6/Vqy+FhRW/n9or6KlIR7jRU90vff30FYrMC2pBQBYBJJWySHI7BztWpOPc6Knul75+CgopaBCZSla1SCqRVEojgKRSv92BbW7u6aWwMK/Vq4d/9dVr7dq5ODu3bNHipZde6tOnT2hAwJ30dLX6jp6K9IsbPdX90tdPX6HIvKAWBGQRQFIpiyS3c7BjRTrOjZ7qfunrp6CQggaRqWRVi6RSWk5X4UcRtSlEUqnf7mC7zW/Exvpu2jR+5MjGjRs/9thjNWvWbNmypcesWQH792cnJSndaLY9ldI1bvRU90tfP32FUgYHh4CAIAEklYIA2ZZjx4q0nhs91f3S109BIQUNIlPJqhZJJZJKaQSQVOq3O/hsc2NCwmE/v9lTp77Xp0+D+vWfevLJd3v3njFp0gFf3wyDQafO8umpPbrGjZ7qfunrp6/QHnOEM0GgvASQVJaXGO43E8COFfmbwI2e6n7p66egkIIGkalkVYukUlpOp82jkRU2gqRSv92h8TbPTUkJOnRo4dy5gwYO/FuTJlWrVm3UqFHHjh0//PDDxJgY/VppcaRxTy0e7XfBjZ7qfunrp6/QftOEk0HAdgJIKm1nhTutCWDHWtMo7zU3eqr7pa+fgkIKGso7iWzvR1KJpFIaASSV+u0Rnbb53YyM6NOn1yxd+tXQofXq1XNycmrbps2wL75Yv2LFhZCQe5mZ+rWvREc69bREg3Z9kRs91f3S109foV0HCoeDgI0EkFTaCAq3FSGAHVsESLm+5EZPdb/09VNQSEFDucaQ881IKqXldBV+FFGbQiSV+q0S1bd5XGSk97p1o779tlOHDtVdXJo3a9a6deu33377tL+/KS1Nv37Z4kj1ntri0X73cKOnul/6+ukrtN804WQQsJ0AkkrbWeFOawLYsdY0ynvNjZ7qfunrp6CQgobyTiLb+5FUIqmURgBJpX57RLltnhofv8fHZ+r48U2bNnV2dnZzc2vRosVPM2b479mTlZioX4Mq4Ei5nlbAo/1KuNFT3S99/fQV2m+acDII2E4ASaXtrHCnNQHsWGsa5b3mRk91v/T1U1BIQUN5J5Ht/UgqpeV02jwaWWEjSCr12yP0t3lWYqL/nj0/zZjxQd++DZ95pk7t2r179Jg6fvweH5/U+Hj9OiLuiH5PxT3a7wRu9FT3S18/fYX2myacDAK2E0BSaTsr3GlNADvWmkZ5r7nRU90vff0UFFLQUN5JZHs/kkokldIIIKnUb48Q3OamtLTT/v5L5s//1N29ebNm1V1cGjZs2KFDhwEDBsRFROjXAumOCPZUukf7HciNnup+6eunr9B+04STQcB2AkgqbWeFO60JYMda0yjvNTd6qvulr5+CQgoayjuJbO9HUiktp6vwo4jaFCKp1G+PUNjm9zIzL4SErF+xYtgXX9SvX9/JyalevXr/GjJkzdKlUadO3c3I0A+7XR1R6KldDdr1cG70VPdLXz99hXYdKBwOAjYSQFJpIyjcVoQAdmwRIOX6khs91f3S109BIQUN5RpDzjcjqURSKY0Akkr9VkllbfPEmBgfT8+xI0Z0ef31Gq6uf2vSZNDAgb179w46dCg3JUU/zo50VFk9daRH+70XN3qq+6Wvn75C+00TTgYB2wkgqbSdFe60JoAda02jvNfc6Knul75+CgopaCjvJLK9H0mltJxOm0cjK2wESaV+e8Rh2zzDYDjg6ztj0qR3e/d2cXFxdXVt3rz5m2++edjPz5iQoB/YSnTksJ5Wokf7vTU3eqr7pa+fvkL7TRNOBgHbCSCptJ0V7rQmgB1rTaO819zoqe6Xvn4KCiloKO8ksr0fSSWSSmkEkFTqt0fst81vJycH7N/vMWtWy5Yta9asWeuJJ97q3n3y2LF+W7bciI3VjyQdR/brKR2P9lPCjZ7qfunrp6/QftOEk0HAdgJIKm1nhTutCWDHWtMo7zU3eqr7pa+fgkIKGso7iWzvR1IpLaer8KOI2hQiqdRvj0jc5nfS08NPnFi1ePHngwe/+MILrtWrN2jQoH379h988MGlsDD90JF1JLGnZD3aTxg3eqr7pa+fvkL7TRNOBgHbCSCptJ0V7rQmgB1rTaO819zoqe6Xvn4KCiloKO8ksr0fSSWSSmkEkFTqt0cEt/mlsDCv1auHf/VVgwYNqlatWrdu3c8HD161eHH4iRN30tP1w6WEI8GeKuHRfiK50VPdL3399BXab5pwMgjYTgBJpe2scKc1AexYaxrlveZGT3W/9PVTUEhBQ3knke39SCql5XTaPBpZYSNIKvXbI+Xd5jdiY303bRo/cmT3rl3datRo/OyzH73/fs+ePQP277+dnKwfHxUdlbenKnq0n2Zu9FT3S18/fYX2myacDAK2E0BSaTsr3GlNADvWmkZ5r7nRU90vff0UFFLQUN5JZHs/kkokldIIIKnUb4/86TY3JiQc9vObPXXqe336uLq6uri4NGvWrFu3bgd8fTMMBv2AaODoT3uqgUf7WeBGT3W/9PXTV2i/acLJIGA7ASSVtrPCndYEsGOtaZT3mhs91f3S109BIQUN5Z1EtvcjqZSW01X4UURtCpFU6rdHim/z3JSUoEOHFs6d26pVq1q1atVwde3y+utjR4zw8fRMjInRj4B+jor3VD+P9nPEjZ7qfunrp6/QftOEk0HAdgJIKm1nhTutCWDHWtMo7zU3eqr7pa+fgkIKGso7iWzvR1KJpFIaASSV+u0Rg8FwNyMj+vTpNUuXfjV0aJsXX6zu4tK2TZu2bdv279//QkjIvcxM/Vzr7Qg/oUX6y42e6n7p66evUGReUAsCsgggqZRFkts52LEiHedGT3W/9PVTUEhBg8hUsqpFUiktp9Pm0cgKG0FSqc3uiIuM9F63btS33zZs2LBq1ap16tR56aWXli9YEBoQYEpL08YmTyP4CS3Sd270VPdLXz99hSLzgloQkEUASaUsktzOwY4V6Tg3eqr7pa+fgkIKGkSmklUtkkokldIIIKlUd3ekxsfv8fGZOn5806ZN69Su3fCZZz7o2/enGTO2bt2anZSkri8oL04AP6GLM7H9FW70VPdLXz99hbZPB+4EAfsRQFJpP7Z6n4wdK9JfbvRU90tfPwWFFDSITCWrWiSV0nK6Cj+KqE0hkkqFdkd2UpL/nj0/zZjxQd++DZ95xtnZuWnTpl27dt3j45MaH28xgm1uQaHNBXoq0kpu9FT3S18/fYUi84JaEJBFAEmlLJLczsGOFek4N3qq+6Wvn4JCChpEppJVLZJKJJXSCCCppLw7TGlpoQEByxcseOmll+rUqVO1atVOHTqMHDbMe926uIiI0pRjm5dGRt3X0VOR3nGjp7pf+vrpKxSZF9SCgCwCSCplkeR2DnasSMe50VPdL339FBRS0CAylaxqkVRKy+m0eTSywkaQVJLaHfcyMy+EhKxfsWLYF1+0bdOmuotLmxdffOWVV/r16xd16tTdjAxb1GKb20JJrXvQU5F+caOnul/6+ukrFJkX1IKALAJIKmWRcboQ7wAAIABJREFU5HYOdqxIx7nRU90vff0UFFLQIDKVrGqRVCKplEYASWWl747EmBgfT8+xI0Y0atToscceq127duvWrZfMn3/a3z83JaUC8rDNKwCNeAl6KtIgbvRU90tfP32FIvOCWhCQRQBJpSyS3M7BjhXpODd6qvulr5+CQgoaRKaSVS2SSmk5XYUfRdSmEEml43dHhsFwwNd3xqRJzZo1e+rJJxvUr/9enz6zp0497OeXlZgorgfbXJwhtRPQU5GOcKOnul/6+ukrFJkX1IKALAJIKmWR5HYOdqxIx7nRU90vff0UFFLQIDKVrGqRVCKplEYASaUDdsft5OSA/fs9Zs366P33Gz/7bLVq1Zo0adKlSxe/LVtuxMZKF4BtLh1ppR+Inoq0gBs91f3S109foci8oBYEZBFAUimLJLdzsGNFOs6Nnup+6eunoJCCBpGpZFWLpFJaTqfNo5EVNoKk0h674056eviJE6sWL27Tpk3dunWrVq36Wrt2w7/6ymv16kthYfZ4R+szsc2taehxjZ6K9JEbPdX90tdPX6HIvKAWBGQRQFIpiyS3c7BjRTrOjZ7qfunrp6CQggaRqWRVi6QSSaU0AkgqZe2OS2FhXqtXD//qq9fatXOtXv3FF174fPDgvn37hp84cSc9Xda72HIOtrktlNS6Bz0V6Rc3eqr7pa+fvkKReUEtCMgigKRSFklu52DHinScGz3V/dLXT0EhBQ0iU8mqFkmltJyuwo8ialOIpLLCu+NGbKzfli2Tx459q3v3atWq1axZs2XLlj179gzYv/92cnKFjxUvxDYXZ0jtBPRUpCPc6Knul75++gpF5gW1ICCLAJJKWSS5nYMdK9JxbvRU90tfPwWFFDSITCWrWiSVSCqlEUBSafvuMCYkHPbzmz11avPmzV1dXZ968sl3e/eeMWnSAV/fDIPB9nPsfSe2ub0JO/589FSEOTd6qvulr5++QpF5QS0IyCKApFIWSW7nYMeKdJwbPdX90tdPQSEFDSJTyaoWSaW0nE6bRyMrbARJZRm7IzclJejQoYVz5w4aOPBvTZrUdHNr3Lhxp06dfDdtSoyJKaOwcr+FbV65/O3x7uipCFVu9FT3S18/fYUi84JaEJBFAEmlLJLczsGOFek4N3qq+6Wvn4JCChpEppJVLZJKJJXSCCCptN4ddzMyok+fXrN06auvvlqvXj0nJ6f69esP++KL9StWXAgJsb6T8jW2OeXuVEwbeloxbuYqbvRU90tfP32FIvOCWhCQRQBJpSyS3M7BjhXpODd6qvulr5+CQgoaRKaSVS2SSmk5XYUfRdSmEEllXGSk97p1o779tlOHDq7Vq7ds0eKfn3zSp0+f0IAAU1qaipsF21zFrpWtGT0tm0/Z3+VGT3W/9PXTV1j2ROC7IOAYAkgqHcNZv3fBjhXpKTd6qvulr5+CQgoaRKaSVS2SSiSV0ggwTCpTr1zZ4+Mzdfz43j16ODs7u7m5tWjRokePHv579mQnJWmwSrDNNWhiEQvoaREg5fqSGz3V/dLXT19huQYEN4OAnQggqbQTWO2PxY4VaTE3eqr7pa+fgkIKGkSmklUtkkppOZ02j0ZW2AiHpNJkNAYcOuQxZ06LFi3c3Nzq1K7du0ePqePH7/HxSY2P1293YJujp/oREHHEbSJU90tfP32FIvOCWhCQRQBJpSyS3M7BjhXpODd6qvulr5+CQgoaRKaSVS2SSiSV0ghomVT+npMTERy8csmSoZ999sLzz9esWbNRo0YdO3bc4e19PS4u/+ZNvfcFtrl+/UVPRXrKjZ7qfunrp69QZF5QCwKyCCCplEWS2znYsSId50ZPdb/09VNQSEGDyFSyqkVSKS2nq/CjiNoUapNUxkZFea1d27Zt2/r16zs5OdWrV+/rL7/0XLXqQnj4g7w8634hqWS1LvUwi5/QIn3kRk91v/T101coMi+oBQFZBJBUyiLJ7RzsWJGOc6Onul/6+ikopKBBZCpZ1SKp5JtU5mZk3M3Kss7dBK/VTSojgoN3eHv/MGpUw4YNXVxcmv3tb5+4uy9ZsOBMYOC9W7fKwIKkktW61MMsfkKL9JEbPdX90tdPX6HIvKAWBGQRQFIpiyS3c7BjRTrOjZ7qfunrp6CQggaRqWRVi6SSY1KZm5HR+6236j31lJubW8ChQ2UkceX6lkJJpfmpyRHDhr3Wvr2zs3OdOnWaNWvWrVu3w3v35qSl2e4aSSWrdamHWfyEFukjN3qq+6Wvn75CkXlBLQjIIoCkUhZJbudgx4p0nBs91f3S109BIQUNIlPJqhZJJcekcv3Kld26dLmfmztk8OCxI0faHsyVfSflpDLFYNjl4zPxhx8aN2782GOP1axZ033gwF/mzTt59KjJaCzbVxnfRVLJal3qYRY/oUX6yI2e6n7p66evUGReUAsCsgggqZRFkts52LEiHedGT3W/9PVTUEhBg8hUsqpFUskxqTT/Y4tJ8fFNnnsu7ty5MpK4cn2LVFKZk5Z2eO/eWdOm9evT56m6dZ+qW7dfnz7mpyZvpaSUy1cZNyOpZLUu9TCLn9AifeRGT3W/9PXTVygyL6gFAVkEkFTKIsntHOxYkY5zo6e6X/r6KSikoEFkKlnVIqnkmFSao7epEyeuWrq0jBiuvN+q3KTyblZWcEDA4p9//sTdvVatWlWrVrV8SHeKwVBeLzbej6SS1brUwyx+Qov0kRs91f3S109foci8oBYEZBFAUimLJLdzsGNFOs6Nnup+6eunoJCCBpGpZFWLpJJvUnn6+PG1K1bYGMnZcpuDk8o/bt+ODg1ds3z5l0OH1q1b18XFpd2rr3739ddea9fGRkUV+ZBuW/RX4B4klazWpR5m8RNapI/c6Knul75++gpF5gW1ICCLAJJKWSS5nYMdK9JxbvRU90tfPwWFFDSITCWrWiSVfJPKU8eOrfv11wrEc6WVOCCpjD9/3tvT8/tvv+3YoYOzs3Pt2rVbt2799ttvhwYF/Z6TU5ow+72OpJLVutTDLH5Ci/SRGz3V/dLXT1+hyLygFgRkEUBSKYskt3OwY0U6zo2e6n7p66egkIIGkalkVYukkm9SKT2/s0dSmZ6YuMfXd8qECU2aNKlWrZqbm9uA/v095swJOHQoNyNDuoXyHoikktW61MMsfkKL9JEbPdX90tdPX6HIvKAWBGQRQFIpiyS3c7BjRTrOjZ7qfunrp6CQggaRqWRVi6QSSaU0AlKSypy0tKMHDsydOfP9fv0aPP10ndq13+nVq2vXrvv9/IxJSeVNEu19P5JKVutSD7P4CS3SR270VPdLXz99hSLzgloQkEUASaUsktzOwY4V6Tg3eqr7pa+fgkIKGkSmklUtkkppOZ29QzH651csqbx365b1J+E4OTk1bNiwQ4cO2zZtMsTEEHeNpJLVutTDLH5Ci/SRGz3V/dLXT1+hyLygFgRkEUBSKYskt3OwY0U6zo2e6n7p66egkIIGkalkVYukEkmlNAI2JpX3c3MvhId7rlr19Zdf1qtXr0qVKq+8/PLXX37puWrVhfDw+7m5xNNJa3lIKlmtSz3M4ie0SB+50VPdL3399BWKzAtqQUAWASSVskhyOwc7VqTj3Oip7pe+fgoKKWgQmUpWtUgqpeV01gEWz+sykkpDTMy2TZtGjxjR+fXXXVxcmv3tb61aterdu3dwQMC9W7fUxYWkktW61MMsfkKL9JEbPdX90tdPX6HIvKAWBGQRQFIpiyS3c7BjRTrOjZ7qfunrp6CQggaRqWRVi6SSXVIZcuLE9EmTjh88KD0ftE4qjUlJ+/38Zkye3LRpU2dnZ1dX1+bNm8+dOfPogQM5aWnS37qyDkRSyWpd6mEWP6FF+siNnup+6eunr1BkXlALArIIIKmURZLbOdixIh3nRk91v/T1U1BIQYPIVLKqRVKpVVK5c+vWrOTkIrFdRHDwtIkTN65ZU2AyhZ086T5wYExExBdDhty5ebPInSJf5mZkbN261WPOnBYtWjRq2LBWrVq9evSYMmHCHl/f9MREkZMp1yKpZLUu9TCLn9AifeRGT3W/9PXTVygyL6gFAVkEkFTKIsntHOxYkY5zo6e6X/r6KSikoEFkKlnVIqlUO6m8cuFC4OHDlg/F/uc//pGdmpp67dqvixf/Mm/e7fT0yDNn3AcOTE9MHD1ixJrlyxd5eGxYvVpK9vd7Tk5oUNDyhQsHf/JJi7//vUqVKg0aNGjfvv2WDRviz5+X8hb0D0FSyWpd6mEWP6FF+siNnup+6eunr1BkXlALArIIIKmURZLbOdixIh3nRk91v/T1U1BIQYPIVLKqRVKpUlJ5PS7u7KlT5mchN6xe/Vr79qOGD//pxx+b//3vd7OyCkymAf3752dnd3799TOBgTu3bj0XFrb4559HDBv249SpH37wwZjvv/fbtm30iBEFJlN6YuKB3bvLFQU+yMuLjYryWru2bdu29evXd3Jyeql16y+HDl27YkV0aOgft29b//Z3uU5W92YklazWpR5m8RNapI/c6Knul75++gpF5gW1ICCLAJJKWSS5nYMdK9JxbvRU90tfPwWFFDSITCWrWiSVaiSViZcvv92z55DBg0d+992LrVqlJybu8fX99quvzBnfm2+8YX6ssn/fvn/cvv1qmzaTxo1bOH/+xfDw33bseLtnzysXLhSYTJciI+/cvPnKyy9v37z5H4MGbdmw4U8jwutxcTu8vceNHv1G5841atSw/iQcczZqfQKSSv12B7Y5eqofARFH3CZCdb/09dNXKDIvqAUBWQSQVMoiye0c7FiRjnOjp7pf+vopKKSgQWQqWdUiqaSVVJqMxpNHjy6cP/8Td/f87GxLDtjl9dejQkLMX5qMxgKTKS0h4fnmzT3mzHm7Z88O7dqFnz5dYDK99+67BSaTyWgMDQra5ePzfPPm2amp7du23eHtveCnn/71+ecFJlPm9evenp6hQUGWw60vbqWkWH8SzsPP6W7WbNa0aYf37v3TT8JBUqnf7sA2R0/1IyDiiNtEqO6Xvn76CkXmBbUgIIsAkkpZJLmdgx0r0nFu9FT3S18/BYUUNIhMJata+yaVN27cGD58+Lhx4yZOnHjv3r3C//tz586dJUuWvPHGG//3Qqn/d/r0GdY5mt7X93NzP3F3nzdr1rGDB9/q3t1i9kFe3t+aNjV/mfHoacpFHh4FJlPDZ54JPHz4zs2bt1JS/t6s2b1bt/q+806BybRt06a9O3ce/O237l27/p6Tk5Wc7OPlFXj4sOVA6wtzNvrLvHktW7Z8rnFjNze3Ht26TfzhB79t21IMBus7//QaSaV+uwPbHD3Vj4CII24Tobpf+vrpKxSZF9SCgCwCSCplkeR2DnasSMe50VPdL339FBRS0CAylaxq7ZtUTp48+eLFi4WFhVu2bNm+fbslj4yNjb169erAgQMtr5R2oV9SefLo0dyMjLJTv9CgoCkTJljf06hhwz9u3y4wmX5dvHjpL7+0e/XV3IyMD957z/woZU5aWssWLe5mZb379tsFJlPqtWuLPDw2rVuXnZpqfYj5+vecnIjg4JVLlgz97LMXnn++SpUq9evXb9u2rdfatbFRUcXvt/0VJJX67Q5sc/RUPwIijrhNhOp+6eunr1BkXlALArIIIKmURZLbOdixIh3nRk91v/T1U1BIQYPIVLKqtW9S+dFHHz148KCwsDA6OnrWrFlF4sgSk8rA//yjQVL5IC/vUmSkJe8b/s03xw4e/D0nJ/P69QKTKTs1ddK4cZbvmi+mT5p08uhR6xf/MWjQxjVrzK/cuXmzU8eOhpiYebNmvdOr1/v9+vXv2/fEkSMFJlNEcLB1leXa+pNwqlSpUqdOnaGffbZyyZKI4ODfc3IstwleIKnUb3dgm6On+hEQccRtIlT3S18/fYUi84JaEJBFAEmlLJLczsGOFek4N3qq+6Wvn4JCChpEppJVrX2TSnd3d3NSGRUVNXv27IollQYF/2zatMladfPmzQ0Gw6BBg86fP//LL78MHjz4448/bteunYeHh8Fg2LNnj/XNBoPhjTfeiIiIsH4xLCzs1Vdfff/99z/99NOuXbuuWbPGYDAEBwfv3bs3Li7O+k7zdUhIyMqVK4cNG/b666+7uro2bNjw3Xff7dmz544dO2JiYorfj1dAAARAAARAAARAAARAAARAAARAAARAAARAoHIJ2DepnDZt2rlz5woLC728vHbu3GlLUlnkHkWfqdy+ebP5+cRbKSmXo6N7v/VWwKFDDZ5+euR338VGRZn/0cnUa9e6delS4mOM7V599d6tW8W/dTk6+urFi8VfLzCZbqWkHN67d9a0af369HFxcXF2dm7atGnXrl33+/ndSkkpsUT6i3imUr//yoH/7oSe6kdAxBG3iVDdL3399BWKzAtqQUAWATxTKYskt3OwY0U6zo2e6n7p66egkIIGkalkVWvfpDIlJWX48OFjx46dMmVKfn5+UlLSkCFDCgsL9+3bN2rUqE6dOo0aNWr37t1F0knrLyknlTeuXPHfv79I3nc/N/fGlStbN26MO3fu/NmzPbp127B69YutWu3y8Rk/ZszenTsf5OW1fuEFc1XrF154kJdX5IQCk+mzTz/NSEws/rr1K3ezsk4ePWr+JJyaNWu6urq+0bnzuNGjd3h7X4+Ls77TYddIKvXbHdjm6Kl+BEQccZsI1f3S109foci8oBYEZBFAUimLJLdzsGNFOs6Nnup+6eunoJCCBpGpZFVr36TSOnOs2DXlpDIhNrZP796WqHH0iBF5mZmGmJgvhgxZvnDh2hUrPObM8Vq7tsBk8vHymjB2rO+WLdMmTiwwmbp37Zr+KIgc0L//pcjIYwcPTn30etmR4h+3b0eHhq5ZvvzLoUNfat368ccfr1ev3iuvvOK5atWF8HCLjLIPset3kVTqtzuwzdFT/QiIOOI2Ear7pa+fvkKReUEtCMgigKRSFklu52DHinScGz3V/dLXT0EhBQ0iU8mqFkmlqQLhXX529pYNG7w9PV94/vmpEyfu3r7d/KTkz3PnRoeGjhs9OjQo6MuhQz1XrZo9fXqByXQpMvLNN95Iio9/8403fs/JGT9mzL5duwpMpsDDh6/Hxf1x+3ZpOWP8+fPenp7t27dv0KBBlSpVateuPfiTT5YvXBgaFFTir4dXwIvEEiSV+u0ObHP0VD8CIo64TYTqfunrp69QZF5QCwKyCCCplEWS2znYsSId50ZPdb/09VNQSEGDyFSyqkVSaVNSmZ6YeDE8fMSwYWtXrCgwmSaMHbtyyZKL4eFP169/LjT0zTfeyElLG/7NNx+8996Rffvmz55979at9m3b3rhy5eUXX8zLzNy4Zk2T5557kJf35dCh48eMuXPzZmn5YHpi4i4fn4k//NCjWzc3N7dGDRsO6N/fY86cgEOHcjMySqsi8jqSSv12B7Y5eqofARFH3CZCdb/09dNXKDIvqAUBWQSQVMoiye0c7FiRjnOjp7pf+vopKKSgQWQqWdUiqXyYVAb5+/84deqHH3zwTq9eu7dvNwd/p44dmzRu3JYNGwpMpjc6d54+aVKKwfDKyy8nxce/3bNn4uXL5shyh7f3tIkT169cOfGHH/b7+b3Tq5c5zXytffu7WVnbNm36+MMPd27devXixRIfnMxJSzt64MDcmTPf79fP1dW1WrVqTZo06dy58x5fX2NSEpEI0kYZSCr12x3Y5uipfgREHHGbCNX90tdPX6HIvKAWBGQRQFIpiyS3c7BjRTrOjZ7qfunrp6CQggaRqWRVyzSpDDlx4mJ4uCWA+2jAgPUrV+ZnZ2dev96qZUvz72W/369fQmxsvz59zgQGjho+fOfWrQUm0+zp07ds2PDd11/v9/MrMJl+Xbx43OjROWlpr7ZpY/5F777vvHPiyJECkykvM9NyvvXF3ays4ICAxT//3KpVq1q1arm4uHR+/fXRI0Zs27TJEBNjfady10gq9dsd2OboqX4ERBxxmwjV/dLXT1+hyLygFgRkEUBSKYskt3OwY0U6zo2e6n7p66egkIIGkalkVcslqYw7d+7w3r2W7K9927Yjv/vO8uUv8+YtWbDgblaWj5fXD6NGFZhMt9PTI4KDx40e3aNbt3mzZvl4ef04dWqByXR4795Rw4cHBwR06tjx2MGDY77//v1+/cyvx0ZFWQ60vrifm1vkk3Beefllyyfh3M/Ntb5Z6WsklfrtDmxz9FQ/AiKOuE2E6n7p66evUGReUAsCsgggqZRFkts52LEiHedGT3W/9PVTUEhBg8hUsqrVOancvnnzubAwc/a3csmSv/71rxcePUf5IC+v7zvvdO3UyRILBvn7P9Ogwccffjh90qRBH320bOHCjMTEDu3aZSUn++/f/8F77129eLHvO+8UmExZycnvvv12gcl09MABz1WrctLSLIdYXxhiYrZt2jR6xIiGDRs6OTnVqlWrVatWSxYsCA4IIPhJONbKRa6RVOq3O7DN0VP9CIg44jYRqvulr5++QpF5QS0IyCKApFIWSW7nYMeKdJwbPdX90tdPQSEFDSJTyapWk6QyPzs7/PTprRs3BgcEWLK2Th07dn799fzs7AKTKSI4+IP33uvVo8eDvDxDTMyo4cM7tGv3x+3b5ptNRuPzzZubr2+np7/YqlWKwdCqZcvQoKCR333Xq0eP7Zs3/zJvnuXk4hfpiYl7fH2nTJjQpEmTWrVqNXj66ff79Zs7c+bRAwdKSzOLH6L6K0gq9dsd2OboqX4ERBxxmwjV/dLXT1+hyLygFgRkEUBSKYskt3OwY0U6zo2e6n7p66egkIIGkalkVatDUvn1l1/2fuutGZMnb924seebb27btKnAZEqKjx/8ySerly2bMmFCgcn0e05O106dVixatGzhwv1+fquWLh362WdRISGWcPDFVq0SL18+sm/fJ+7uizw8Ckwmv23bFnl4lPaxNrkZGZZPwmnw9NOPPfZY48aNO3Xq5LdtW3piouVYVhdIKvXbHdjm6Kl+BEQccZsI1f3S109foci8oBYEZBFAUimLJLdzsGNFOs6Nnup+6eunoJCCBpGpZFWrWFJ57dKlwZ980r9v3w/ee69rp04+Xl4FJtPoESO2b95szgT37dr1/bffFphMe3fu/OnHHwtMpp5vvhl++rT587vv3br1ds+e40aPDjx8eNXSpWuWL7ckidMnTTJnlKX9c5P3bt0KDQpavnBh69ata9euXaVKlY4dOnz/7bdbNmyIP3/ecg7nCySV+u0ObHP0VD8CIo64TYTqfunrp69QZF5QCwKyCCCplEWS2znYsSId50ZPdb/09VNQSEGDyFSyqlUsqUwxGDq0a2dOA+/cvPla+/ZRISE+Xl6jhg8/Fxa2etmyNzp3jg4NLTCZZk2b1vn11wf07/+Ju3uHdu3ys7OHf/NN2MmTlyIjXV1d0xISLoaHr162rIxg8UFe3oXwcM9Vq77+8stXXn758ccff6l16zZt2qxdsSI6NNTym+NlnMDtW0gq9dsd2OboqX4ERBxxmwjV/dLXT1+hyLygFgRkEUBSKYskt3OwY0U6zo2e6n7p66egkIIGkalkVatYUllgMjVt0uT3nBxzCOjj5TV+zBhDTMwTTzwxY/Jkr7Vr27dtm2IwFJhMA/r3t3yczoKffpoyYYLftm37du0qMJnOnz1bWoZ4PS5uh7f3uNGjGzVqVLVq1Zo1a7Zs2fKXefNOHj16NyurtCq8biaApFK/3YFtjp7qR0DEEbeJUN0vff30FYrMC2pBQBYBJJWySHI7BztWpOPc6Knul75+CgopaBCZSla16iWV7737buSZM+Zo7MSRI18OHVpgMjV57rkHeXkFJlNwQMCrbdqkGAwvtmplfqXAZLqfm5t89WqJeaIxKWm/n9+MyZObNm1ap3btp+rW7denz6xp0w7v3XsrJaXEErxYGgEklfrtDmxz9FQ/AiKOuE2E6n7p66evUGReUAsCsgggqZRFkts52LEiHedGT3W/9PVTUEhBg8hUsqpVL6mcM2OG5be2h3/zzeb16wtMpt5vvXUpMtKcoIUGBYWdPHn14sUSAzWT0Rhw6JDHnDkD+vdv1LBh1apVGzVq1LFjxx3e3uaHMUuswou2EEBSqd/uwDZHT/UjIOKI20So7pe+fvoKReYFtSAgiwCSSlkkuZ2DHSvScW70VPdLXz8FhRQ0iEwlq1r1ksoj+/b1feedFYsWvfnGG6NHjDAnaBfCw7NTU0tM037PyYkIDl65ZMlLL71Up06dKlWqtHv11e++/tpr7drYqCjLc5cl1uLFchFAUqnf7sA2R0/1IyDiiNtEqO6Xvn76CkXmBbUgIIsAkkpZJLmdgx0r0nFu9FT3S18/BYUUNIhMJata9ZLK7NTUmVOmHNi9u7Tfzn6QlxcbFeW1du13X3/d7tVXH3/88Reef37oZ5+tXLIkIjjY8m9cliuDw822EEBSqd/uwDZHT/UjIOKI20So7pe+fvoKReYFtSAgiwCSSlkkuZ2DHSvScW70VPdLXz8FhRQ0iEwlq1r1ksoSI7MUg8H8SThvdO5ctWpVNze3Fi1aeMyZE3DokMloLLEEL0ongKRSv92BbY6e6kdAxBG3iVDdL3399BWKzAtqQUAWASSVskhyOwc7VqTj3Oip7pe+fgoKKWgQmUpWtaomlbdSUg7v3Ttr2rRmzZq5uLjUqV37nV69ZkyevN/Pz5iUJD2Dw4G2EEBSqd/uwDZHT/UjIOKI20So7pe+fvoKReYFtSAgiwCSSlkkuZ2DHSvScW70VPdLXz8FhRQ0iEwlq1rJSeWpU6e+/fbbMWPG/Prrr4VWf4q8vmzZslGP/gwaNGjlypVWNxa9nD59hjkjMxmNJ48e/WXePPeBA59r3NjV1dXySTjX4+JsydFwj70JIKnUb3dgm6On+hEQccRtIlT3S18/fYUi84I4gFLlAAAgAElEQVRaEJBFAEmlLJLczsGOFek4N3qq+6Wvn4JCChpEppJVreSk0t3dPT8/v7CwcPTo0VevXrXkjiW+fv/+/ZEjR96+fdtyW/GL6dNntGnTpk6dOv/93//91FNPffvVV56rVl0ID7d36IbzK0AASaV+uwPbHD3Vj4CII24Tobpf+vrpKxSZF9SCgCwCSCplkeR2DnasSMe50VPdL339FBRS0CAylaxqZSaV2dnZX3zxhTltXLdu3cGDB83Xpb2+ceNGf3//Iulk4H/+mT59xuply4IDAioQnKHEwQSQVOq3O7DN0VP9CIg44jYRqvulr5++QpF5QS0IyCKApFIWSW7nYMeKdJwbPdX90tdPQSEFDSJTyapWZlKZk5NjSSrXrl176NAhcwpZ4uv37t37xz/+8T//8z9/mlQa8AcEQAAEQAAEQAAEQAAEQAAEQAAEQAAEQAAEQEB3AjKTysLCwo8//vju3buFhYXff/99QkKCJYUs/vqxY8eWLVtmuaG0C8u/U+ngxwPxdhUggGcq9fuvHPjvTuipfgREHHGbCNX90tdPX6HIvKAWBGQRwDOVskhyOwc7VqTj3Oip7pe+fgoKKWgQmUpWtZKTyjNnznzzzTcjR45ct25dYWGhn5/f8uXLCwsLi7xeWFi4cuXKPXv2lBZQWl5HUlmBxLCySpBU6rc7sM3RU/0IiDjiNhGq+6Wvn75CkXlBLQjIIoCkUhZJbudgx4p0nBs91f3S109BIQUNIlPJqlZyUmlJGGVdIKmsrNixAu+LpFK/3YFtjp7qR0DEEbeJUN0vff30FYrMC2pBQBYBJJWySHI7BztWpOPc6Knul75+CgopaBCZSla1SCpNFYjkUFKEQERwsOeqVVOmTIkIDi7yLb2/zL95U+99gW2uX3/RU5GecqOnul/6+ukrFJkX1IKALAJIKmWR5HYOdqxIx7nRU90vff0UFFLQIDKVrGqRVCKpFCKQlZzc572etZ6u0aDDX+t3dqv1dI2OXdtlJSfrHVBa3CGpZLUu9TCLn9AifeRGT3W/9PXTVygyL6gFAVkEkFTKIsntHOxYkY5zo6e6X/r6KSikoEFkKlnVIqkUyuksiRXbC/dP32/ct3bbqc9a/tf0wydf69KWCRAklazWpR5m8RNapI/c6Knul75++gpF5gW1ICCLAJJKWSS5nYMdK9JxbvRU90tfPwWFFDSITCWrWiSVSCorTiAiOLjW0zUsGaXlotbTNZj8GjiSSlbrUg+z+Akt0kdu9FT3S18/fYUi84JaEJBFAEmlLJLczsGOFek4N3qq+6Wvn4JCChpEppJVLZLKiud0TB4bLMPm+pUrG3T4qyWgtFzU7+z2y7x5ZRRq8y0klazWpR5m8RNapI/c6Knul75++gpF5gW1ICCLAJJKWSS5nYMdK9JxbvRU90tfPwWFFDSITCWrWiSVSCorTgBJJZJKVutSD7P4CS3SR270VPdLXz99hSLzgloQkEUASaUsktzOwY4V6Tg3eqr7pa+fgkIKGkSmklUtksqK53TaPBhYYSP47W8klazWpR5m8RNapI/c6Knul75++gpF5gW1ICCLAJJKWSS5nYMdK9JxbvRU90tfPwWFFDSITCWrWiSVSCqFCOATdfTeF9jm+vUXPRXpKTd6qvulr5++QpF5QS0IyCKApFIWSW7nYMeKdJwbPdX90tdPQSEFDSJTyaoWSaVQTlfhpxG1KcxKTn6n31u1Grg1eO2v9Tu71Wrg9lqXtlnJydoYLNsInqlktS71MIuf0CJ95EZPdb/09dNXKDIvqAUBWQSQVMoiye0c7FiRjnOjp7pf+vopKKSgQWQqWdUiqURSKYFARHDw+pUrJ0+ezOQjvy3xJZJKVutSD7P4CS3SR270VPdLXz99hSLzgloQkEUASaUsktzOwY4V6Tg3eqr7pa+fgkIKGkSmklUtkkoJOZ0lt2J+YTAYuBFAUslqXephFj+hRfrIjZ7qfunrp69QZF5QCwKyCCCplEWS2znYsSId50ZPdb/09VNQSEGDyFSyqkVSiaRSGgEklfrtDmxz9FQ/AiKOuE2E6n7p66evUGReUAsCsgggqZRFkts52LEiHedGT3W/9PVTUEhBg8hUsqpFUiktp+P2OGFxv0gq9dsd2OboqX4ERBxxmwjV/dLXT1+hyLygFgRkEUBSKYskt3OwY0U6zo2e6n7p66egkIIGkalkVYukEkmlNAJIKvXbHdjm6Kl+BEQccZsI1f3S109foci8oBYEZBFAUimLJLdzsGNFOs6Nnup+6eunoJCCBpGpZFWLpFJaTlf8GUNuryCp1G93YJujp/oREHHEbSJU90tfP32FIvOCWhCQRQBJpSyS3M7BjhXpODd6qvulr5+CQgoaRKaSVS2SSiSV0gggqdRvd2Cbo6f6ERBxxG0iVPdLXz99hSLzgloQkEUASaUsktzOwY4V6Tg3eqr7pa+fgkIKGkSmklUtkkppOR23JyiL+0VSqd/uwDZHT/UjIOKI20So7pe+fvoKReYFtSAgiwCSSlkkuZ2DHSvScW70VPdLXz8FhRQ0iEwlq1oklUgqpRFAUqnf7sA2R0/1IyDiiNtEqO6Xvn76CkXmBbUgIIsAkkpZJLmdgx0r0nFu9FT3S18/BYUUNIhMJataJJXScrrizxhyewVJpX67A9scPdWPgIgjbhOhul/6+ukrFJkX1IKALAJIKmWR5HYOdqxIx7nRU90vff0UFFLQIDKVrGqRVCKplEYASaV+uwPbHD3Vj4CII24Tobpf+vrpKxSZF9SCgCwCSCplkeR2DnasSMe50VPdL339FBRS0CAylaxqkVRKy+m4PUFZ3C+SSv12B7Y5eqofARFH3CZCdb/09dNXKDIvqAUBWQSQVMoiye0c7FiRjnOjp7pf+vopKKSgQWQqWdUiqURSKY0Akkr9dge2OXqqHwERR9wmQnW/9PXTVygyL6gFAVkEkFTKIsntHOxYkY5zo6e6X/r6KSikoEFkKlnVIqmUltMVf8aQ2ytIKvXbHdjm6Kl+BEQccZsI1f3S109foci8oBYEZBFAUimLJLdzsGNFOs6Nnup+6eunoJCCBpGpZFWLpBJJpTQCSCr12x3Y5uipfgREHHGbCNX90tdPX6HIvKAWBGQRQFIpiyS3c7BjRTrOjZ7qfunrp6CQggaRqWRVK5pUrlmzZvTo0d99911gYGCh1Z8SX584ceK8efMKCwtXrlz5z3/+c9SjP1euXLGqK3o5ffoMbk8mqusXSaV+uwPbHD3Vj4CII24Tobpf+vrpKxSZF9SCgCwCSCplkeR2DnasSMe50VPdL339FBRS0CAylaxqhZLK69evjxgxorCw8Pfff3d3dy8oKDAHjSW+vm/fvpkzZ5qTyvnz50dGRhZNJUv6GkmlQsElkkr9dge2OXqqHwERR9wmQnW/9PXTVygyL6gFAVkEkFTKIsntHOxYkY5zo6e6X/r6KSikoEFkKlnVCiWVR48eXblypTlg/OabbzIzM83XxV9PSUmZMGFCTEyMOamcMmXK+PHjJ0yYMHv2bJPJZB1RBv7nHySVSCopE8i/eVPvfYFtrl9/0VORnnKjp7pf+vrpKxSZF9SCgCwCSCplkeR2DnasSMe50VPdL339FBRS0CAyleK1hsuXw0JCaP6viDuhpPLYsWOWpPLrr782Go3mzLHI6+np6aNHj75586YlqUxISLh161ZhYeGWLVssJ5hr/zOoDJw+fYYBf0AABEAABEAABEAABEAABEAABEAABEAABEAABCpEIDg42MvL6x+P/gwbNmz5//1JSkqyTgYdf33w4MEihqw1mKPCdu3aXU9KM//vL9ZPOxa/vnHjxnfffVdYWHjv3r2PP/7Y8tvfRV4/f/78N998M23atO+///79998PCAjYt29fdnZ2YWHhvn37li9fXvxkyyt4ppLyE4VFtOG3v4v8dwANvsR/d9KgiUUsoKdFgJTrS270VPdLXz99heUaENwMAnYigGcq7QRW+2OxY0VazI2e6n7p66egkIIGkakUrw0LCRk4cOBf/vOPp6enJX+rrAt/f/8i7oSSysLCQk9PzxEjRgwbNuz06dOFhYWTJ08OCQkp/rrZsOWZysDAwKFDh44ZM+b77783P1xZGhEklUXSQMpfIqksMl0afIltrkETi1hAT4sAKdeX3Oip7pe+fvoKyzUguBkE7EQASaWdwGp/LHasSIu50VPdL339FBRS0CAyleK15qTy8ccfd/m/P2vXrs2t7D+FhYXyk8rSEkZZryOppBxNFtGGpFJ8d1A7AducWkfE9aCnIgy50VPdL3399BWKzAtqQUAWASSVskhyOwc7VqTj3Oip7pe+fgoKKWgQmUrx2rCQkM8//9z8SGWNGjUq62nKgkd/7t+/b4kNkVSaioRr+FIiASSV4ruD2gnY5tQ6Iq4HPRVhyI2e6n7p66evUGReUAsCsgggqZRFkts52LEiHedGT3W/9PVTUEhBg8hUiteGhYQsXLjQnFQ6IKZ88OBBTEzM+fPnMzIyoh79uXLlSmRkpNFovHLlSnR0dFhYWFpaGp6pRExpXwJIKsV3B7UTsM2pdURcD3oqwpAbPdX90tdPX6HIvKAWBGQRQFIpiyS3c7BjRTrOjZ7qfunrp6CQggaRqRSvtSSVDogpLc9L2nKBZyrtG9VJfD5RxaOQVIrvDmonYJtT64i4HvRUhCE3eqr7pa+fvkKReUEtCMgigKRSFklu52DHinScGz3V/dLXT0EhBQ0iUylea04qqcWUeKYSMaV9CSCpFN8d1E7ANqfWEXE96KkIQ270VPdLXz99hSLzgloQkEUASaUsktzOwY4V6Tg3eqr7pa+fgkIKGkSmUrw2LCTk+vXrtjzk6OB78EylfaM6FR+ElKgZSaX47qB2ArY5tY6I60FPRRhyo6e6X/r66SsUmRfUgoAsAkgqZZHkdg52rEjHudFT3S99/RQUUtAgMpXitWEhIbdu3XJwCmnL2yGpRFJpRwJIKsV3B7UTsM2pdURcD3oqwpAbPdX90tdPX6HIvKAWBGQRQFIpiyS3c7BjRTrOjZ7qfunrp6CQggaRqRSvRVJpS2xq0z3Tp8+Q+NAfjrIrASSV4ruD2gnY5tQ6Iq4HPRVhyI2e6n7p66evUGReUAsCsgggqZRFkts52LEiHedGT3W/9PVTUEhBg8hUitciqbQphbTlJiSVds0W5R6OpFJ8d1A7AducWkfE9aCnIgy50VPdL3399BWKzAtqQUAWASSVskhyOwc7VqTj3Oip7pe+fgoKKWgQmUrxWiSVtoSQNt2DpFJumGjX05BUiu8Oaidgm1PriLge9FSEITd6qvulr5++QpF5QS0IyCKApFIWSW7nYMeKdJwbPdX90tdPQSEFDSJTKV6LpNKmFNKWm5BU2jVblHs4kkrx3UHtBGxzah0R14OeijDkRk91v/T101coMi+oBQFZBJBUyiLJ7RzsWJGOc6Onul/6+ikopKBBZCrFa5FU2hJC2nQPkkq5YaJdT0NSKb47qJ2AbU6tI+J60FMRhtzoqe6Xvn76CkXmBbUgIIsAkkpZJLmdgx0r0nFu9FT3S18/BYUUNIhMpXgtkkqbUkhbbkJSaddsUe7hSCrFdwe1E7DNqXVEXA96KsKQGz3V/dLXT1+hyLygFgRkEUBSKYskt3OwY0U6zo2e6n7p66egkIIGkakUr0VSaUsIadM9SCrlhol2PQ1JpfjuoHYCtjm1jojrQU9FGHKjp7pf+vrpKxSZF9SCgCwCSCplkeR2DnasSMe50VPdL339FBRS0CAyleK1SCptSiFtuQlJpV2zRbmHI6kU3x3UTsA2p9YRcT3oqQhDbvRU90tfP32FIvOCWhCQRQBJpSyS3M7BjhXpODd6qvulr5+CQgoaRKZSvNacVJ68fDQiIcSWOM5h9/j7+xdxd8vqj1lGu3btrielmf/3F4cpK+2NkFTKDRPtehqSyiLTpcGX2OYaNLGIBfS0CJByfcmNnup+6eunr7BcA4KbQcBOBJBU2gms9sdix4q0mBs91f3S109BIQUNIlMpXmtOKuf+NnHN8UWlRXCV8jqSSpNdozrmhyOpFN8d1E7ANqfWEXE96KkIQ270VPdLXz99hSLzgloQkEUASaUsktzOwY4V6Tg3eqr7pa+fgkIKGkSmUrzWnFTO+W1Cu6nPfrX+o0oJJUt8UySVSCrtSABJpfjuoHYCtjm1jojrQU9FGHKjp7pf+vrpKxSZF9SCgCwCSCplkeR2DnasSMe50VPdL339FBRS0CAyleK1lqSy7dRnv17vbg4N49JiUrNvlBggFhbGFBaaSvmWzJeRVNoxp2P+QGWByYSkUnx3UDsB25xaR8T1oKciDLnRU90vff30FYrMC2pBQBYBJJWySHI7BztWpOPc6Knul75+CgopaBCZSvFaS1Jp/Uzl1+vdS/9l8AGFhRdlRpKlnIWkEkmlHQkgqRTfHdROwDan1hFxPeipCENu9FT3S18/fYUi84JaEJBFAEmlLJLczsGOFek4N3qq+6Wvn4JCChpEplK81vLvVLad+mz3Oa3Nj1V+vf6jSkkq78ddyv5ykDm6RFJpx5wOz1QiqRTfHdROwDan1hFxPeipCENu9FT3S18/fYUi84JaEJBFAEmlLJLczsGOFek4N3qq+6Wvn4JCChpEplK81vqZyrZTn2037dnCwsLKeqbyj/CQzJefQ1KJjNLuBAwGQ/LJE+fWrjy/blXi4YMcotv8mzfF9wXlE7DNKXenYtrQ04pxM1dxo6e6X/r66SsUmRfUgoAsAkgqZZHkdg52bBkdj9niFb361/ClC9PCQku8jRs91f3S109BIQUNJY6bw140J5VGozHV6k9sbOzBgwcvXbpkfq3I72ffuXPn9OnTaWlpRV6X+yWeqbR7WlexeO624erRUd9mX461lAfPnn5l907Ll/a4iPXxzgg/K+vkUzMnGwyGlNNBD/LyCkymyOWLZZ1M+RwklQ7bqngjWQTwE1qEJDd6qvulr5++QpF5QS0IyCKApFIWydLOMRzYe3z8qJMzJp+cMfns4gV516+XdqeNr5+YMt76zlM/TjUlJ1u/4phry47NuXrFeP6crDct4k7WsXY659bly0HTJlw7uN/6fFNKcnJQYL7RmB0ff2HjOutvWa4t9Cyv6H2hul/6+ikopKChcufInFQWCRl9fHx27dq1bdu2Iq+bv/T19d21a5evr29SUlKJN4i8GBoaevTo0cLCQiSVdJPK0z9Ojd+53ZzK3TZcPTVzspSk8kFubmlJnz2SygKT6fdbt+J3bs+MiiztfXV6HUll5a5avHsFCOAndAWgWUq40VPdL3399BVa/vLjAgQqkQCSSnvDNxzYG+e7zfwuFzauv7rvN8F3LJLlVXpSef2Yf8KRg4KmLOVF3Flel35xLyOj7DP/9IZ8ozEp4NilLZtKPMccU2bHx5f4XW4/oVT3S18/BYUUNJQ4bg57scSkUiRqlFWLpJJuUnlu7aoQjznmFO/q3t0xmzaYk8rkk4HhS38JX/qLYd9vBSbT5e1bY7dtifH2OrvI48aJgEveXqELfrqXkV5gMiUFHD27yCN8yYJrB/YWmEyx27wveXtF/ro0dMFPedevF5hMd1KSQz3mWoLCWJ+HN0StXBYyb1Z23OUCkynr0sWzi3+OXL74vOfqP7KzU4NPx+/aUWAy3b99+9TMyQUmU8i8WdcO7rvotf7sIo98Y+bvt25FrVwW9evSK7/tMj9TWWAyZUZFWD8cank7LS+QVDpsq+KNZBHAT2gRktzoqe6Xvn76CkXmBbUgIIsAkkpZJEs7x5JU3svIiF69IvnkiXyjMSMyPPTnuWcX/Ry1avmd1NSHgZePd77ReDc93RzVnZ497cpvu8z/L0zejaQ7KSkP/3+WJb9c3uFTJMs79ePUy9u3hi30MP9/JWd+evj/euQbjTmGq8FzZ1pU3b52LXzxgpD5cyJ/XXo3Le3hl0t+CVvkEbZwfnZ8XF7S9eC5M2O8vcIWecTv3vnwYqHHlT1++UbjhY3rz3uufahk/hzjuejb166dmTcr32g0GAwhHnNuXjx/csbk07OnpYWGGM9Fhy2cH754QdSqZXdSUy1vfSc1NXLFkrBf5ofMn50efjbfaLTRXRmqchMTI5YvDl+8IGyRx63Ll8u4swjqvOuJZ+bNili++JKPd/SaX80iz69fnXw6yHxtuSEp8HiR2nyj8drB/aEec0MX/BTv55t3PTF49oyT0yYlHDkc7+cb+vPcM3N/jN+1w3zO1X2/lfGsK7efUKr7pa+fgkIKGixrp1IuSksqfX19S8sc09PTg4KCzp07V9oNUl5HUkk3qTy/fvWFDeuy4x8mhmcXeaQGn7yye+fdtLSzizzMz0VGLFuUe81wefvWq3t3PwwifbzjfH0KTKb4XTtSTgfdTU0Nnjvzfk7Og9zc0AU/5SZeu7x96+XtWwtMputHj5izy4f/OfHwAUtiGOvjHePt9ShbjIxetdwcROYlPcw043x9bgQcKyGpnD87MzLcfEPqmdPJJ4NifbwLTKab56NPTp9k/kSdGycCcq8ZLO+i9wWSykrZsHhTEQL4CQ16thNQ/W8Lff30Fdr+twV3goD9CCCptB9b88mGA3sDJ4wJnj09cNLY0AXz7qalmaO67Pi4fKMxZotXwuEDxZPK4NnTU4JPm29ICjx+/diRi16e+UZjWljoick/WGs+9ePUpICj+UZj7LYtV/f+ZjiwN97P91Gmts8cNZpvvrh5g/m2yzt80s+GXtzkmXj0cL7RmHL6ZNSqFXk3ko6NGWFKTs5LTPT/flje9cQ7KSknp03KNxovenle2rr5YboaER6xbFGRpDLnSnzcrh3mZyrPzJuVm5iQbzTG7dph/QvROVfirx87km80Gi+cD1+8IN9otNFdGapiNm9MOX3SrCpq5bIy7jw9e5o16rwbSUdHfXv72rW7GRknp0+6k5p6LyPj1Mwp5r7kG42WG4q36fY1w6mZU++mpd3LyDjz06xbsbHXjx29vH1rvtEYNHWCmbPFeMwWL+s2Fbnm9hNKdb/09VNQSEFDkUFz8JclJpUPHjwoI20s+7uFhYUPHv0p8YQ/rbVUIakknVRmhIfF++3IS0y8sGFdWmjwld07jdFRQVMnhC9ZEL5kQci8WRkRZy9v35oWeqbAZLq6d/eNEwEFJlPC4QPXjx3JjIq8uHGdORaM3bYlLST48vatKadPFphM+ZkZ5kcpI1csuZOSbIkOY328U8+cfnRDZvDsGfdzsk/OePjgZIHJlBYaErt1U4lJ5d20tAKT6dqBfUkBx+J37Ug+GfjwocucHEtSaTmfwwWSSgfvVrydOAH8hBZhyI2e6n7p66evUGReUAsCsgggqZRFsrRzLM9UmtPD8+tX301LszwXmRwUeGHj+hKTytsJ1/KNxiu7d147dOCSj7c5WHxYWyypNN/56Kh1Dx/0e/QoZfjiBTmGqxZVIfNn51z5928ih8yfbc7v8q5fPzVzSt6NpFOzpplvtpxvFnnRy/PGo391Me9G0skZk0tLKu+mpR0b/V3ogp9CF/x05qdZl3f4WN7alJJ8wWt95K9LI5YtMj+PGTx7ui3uylAVMn/OmfmzzW8XttCjtDuLo37o4lEC+zAF9vZKDgrMjIy4sGGtRa3lhuK1aSHB0Wv/9zHMh8lvYIAlqTy3dlXYIo+EwwdMN25YjirjgttPKNX90tdPQSEFDWUMnQO+ZZ1UpqamxsfHR0VFXbp0KT09PTo6OjY2NiUl5fLly+Hh4XFxcdHR0VFRUenp6SEhIRcvXszJyUlISLh8+fKlS5ciIiIuXboU++iPwWC4cOHCmTNncnNzL126dObMmWvXrp07d+7Koz8XLlyIjIxMTk7OyspKTEy8cuVKbGxsVlbW1atXrf/hSySVpJPK+znZoT/PvXZwX/rZUEtSed5zjXXkd3n71vSzoeak0pwSPkwqjxZJKr3TQh8mlWmhweba6NUrsi/HRq74j0+5ifXxTgt5eEN+ZmbwnIdJpflXvB8llWfMOab5t7//yP7fb4XMn30vI+P/ksqjlqTyj+xsJJUO2CyOfwtsc8czt/c7oqcihLnRU90vff30FYrMC2pBQBYBJJWySJZ2jnVSmZuYeHLGZOsI7EZQ4EUvz6TA4+bf/r6TmmrOB4NnT89LTPzfpPLg/ks+m81J5cMbiiWVuY/uTD554sLG9flGY8TyxZnnos4+enrRosoSTZpfsXyZdz3x1I9T824kBc+ebv6WJUX9d1J5IuDhw4YPM83JtxP+/dvfZ+bNsjxTeTctLXDSWMvbWV88/Ke3vDfmG423Yi9Zkkpb3JWhKmT+nFuXYy3vUtqdxVE/zDR/nGouNF44H7VqxSUf7/TwMOujzDcUr/2PpHKT542gfyeV+UZjVszFON9tDx/PTE+3nFbaBbefUKr7pa+fgkIKGkqbOMe8HhYScvDgQX96f3bu3FmEwC2rP+ZHL9u1a3c9Kc38v79YnsasrIvp02dY53S6Xt82XD2/fnWByXRhw9pQj7l/ZGebk8q76WmnZk75Peum+be8f795s7Sk8m5a2pmffryfk3M/Nzf057l51xOtk8q00JBQj7k3Ao9bA4z18b684+Gvhxujo86t+fXhb397zDHdePjb35e3b00OCsiMiojx3vjw36+8eOHUzCkPb/jPpDI5KCDWZ3OByZQRcRZJZZHR0uNLbHM9+mjtAj21plHea270VPdLXz99heWdEdwPAvYggKTSHlStz7ROKpMCj0csW/Tw15/nzDB/1krM5o0JRw6nngk+77km32hMDz9r/j3iIkllwpHDF7weppApwaeKJ5XJpx7+G4uXt2817N+TbzQmBwUGz51Z5FNuLm7ekHD44efexD38ta2gmM0brx99+BvZyQdCa88AACAASURBVCeDotf+WlrSZ/7t75jND3PGtNAzESsW30lNPTn94W+Fx1+6dPyH73OuxMf7+V47sM9synguOt9oTDhyOPNclAVCrI+3Yf9e81sHz5lh/u1v66SyNHdlqIrx9jL/bntmdFSi/+Ey7iyC2jqpzDcaQ3+eG/bL/HuZmRa11jcUqb2dcO3UrGl309PuZmScmfvjrcuXzc9U5iVdv7J7l/mE4LkzzcGx5cASL7j9hFLdL339FBRS0FDiuOHF4gSsgspbSCor7YlLS1KZfjb0/LpVj55qfPjb3wUmU/LJwNAFP51d6GH+srSkssBkuhF47Ozin8MXLzD/Y5TWSeX9nJyH/wkxM9M6qby0ddOlrZvOrf011GNuzpX4ApMpO/ZS+OIFkcsXXfRadz8n5/dbt8IXLzjvudqw77fgOQ8j4yJJ5e9ZWZHLF51d/HP8rh2nZ08z/zuV1m+h/TV++7v4TsErxAngJ7RIg7jRU90vff30FYrMC2pBQBYBJJWySJZ2juHA3oD/396ZQEVxbP+fPE18RPNO8jwm0ZcYtyQGA7gbFYTnEhPXJy6ocXmK+sIuIIIossm+RFBERAVURFlEEAVXVFRWJTgoRgREZABbBNkGGJj6n1C/f51ODyBjD9IzffvkeGpqqqrv/dy6BflS1W1rdctl9y2X3Rm+nvjM9Yucexm+Hpl7vX8/fLCxvLyhrCzD1yMnOPCPM9G3nHdJa3n1z59n7vXO8HF/eCoCC4Xkdrecdz2KPpUd4Jf5mxc+etxYXn5tu0XdsxLSpomiXhcVZe71TvNwuXvAv7G8vPZpcfY+v6y9Pll7fWoKHneh9OUdC70fGpId4HfH3ZkS3Mfv2Mn2971xcH+Gj3v148f40ZmlN1Oo3N/TvdwyfD3vHvCvL3tO7l6VJ7jt6pC9z6/0Rsotl93Fly4ydNjOvOvCqtqnT7P3+WX6eWV4u7/Kf9hFSwZquhCJxdOHp/58Cif5j96A0fdPEfZiUobPn2/UeXLubBNFkdPfgmNH//Td2z2//c1IZLTOCnz7CaXo/nLffi5YyAUbOss4qGcQAKWy19TJd6niUbk5grD/e4plz90XlEpGdinBR1jNlSCIDBcgpgwgMn3kGz1F95f79nPfQpkSBBoDgR4iAEplD4HtxWHLM9LJW63Zm5F3LBS/u4YxlBKssaLKygxfT/opcoaPPfdRCejJBEfR/eW+/VywkAs2yDQt+dwYlErlVyoL4s9k+Xk1CoU9p1HikUGpVL6lBFZziKnyEWDjEd8yQtH95b793LeQTb5AXyAgLwKgVMqLJEfGeRR9Kt3L9XVRobzsUValsqbg8R1354L4/zu1LS9c3RyHbz+hFN1f7tvPBQu5YEM3ExCagVKp/EplTwuUZHxQKpVvQYHVHGKqfATYeMS3jFB0f7lvP/ctZJMv0BcIyIsAKJXyIsm3cWCNZRNxvtFTdH+5bz8XLOSCDWyykld9QakEpVJuBECpVL61A1ZziKnyEWDjEd8yQtH95b793LeQTb5AXyAgLwKgVMqLJN/GgTWWTcT5Rk/R/eW+/VywkAs2sMlKXvUFpVJuOh3ZWsjbAiiVyrd2wGoOMVU+Amw84ltGKLq/3Lef+xayyRfoCwTkRQCUSnmR5Ns4sMayiTjf6Cm6v9y3nwsWcsEGNlnJq76gVIJSKTcCoFQq39oBqznEVPkIsPGIbxmh6P5y337uW8gmX6AvEJAXAVAq5UWSb+PAGssm4nyjp+j+ct9+LljIBRvYZCWv+oJSKTedjrdbKYnjoFQq39oBqznEVPkIsPGIbxmh6P5y337uW8gmX6AvEJAXAVAq5UWSb+PAGssm4nyjp+j+ct9+LljIBRvYZCWv+oJSCUql3AiAUql8awes5hBT5SPAxiO+ZYSi+8t9+7lvIZt8gb5AQF4EQKmUF0m+jQNrLJuI842eovvLffu5YCEXbGiiKHcXFza5ifv6+/g8y89nPw5HRqgTCt1dXKqfPSP2gFIpN52ObC3kbQGUSpJXSlPgyGquNDy54AjElE0U+EZP0f3lvv3ct5BNvkBfICAvAqBUyosk38aBNZZNxPlGT9H95b79XLBQVhue5OZ6ubk1UdROW9uwQ4dwQp0+diw7NfVwUJCrk9MmAwP7HTtcnZweZmdXFBb6eXq6Ojk52tv7enhUFBbijnscHd1dXHbv3Hn53LkminpRVLT/t9+yU1ONDA099uxxc3b2dnOrr6hgZKufpyejhv4x4/r1iNBQeo0SlLNTU48fOUIcAaUSlEq5EQClkuSV0hRkXc2VxnEldgRiyia4fKOn6P5y337uW8gmX6AvEJAXAVAq5UWSb+PAGssm4nyjp+j+ct9+Llgoqw1EqXTctcvX0/NhdnYTRWGlEieXl5vbk9xcXN7j5JR5/Toup6ekuDg4YKWSKi5uoqj6igpTY2PRixc3kpOvnj+fnZoavH8/brxrx46KJ0/sbGxePn3aRFHHQkLiTp0y2LAh4ujRqpISb3f3/b/95ufpWV1aits3UZSPhwfZUHntwgU/Hx/RixfkW9GLFynJyQ0VFWejo5so6khwMPnqjQXSKyU5ucPGSfHx+ffuMb6KPXWKUdPFRzxyh122b9tGOoJSKTedjrdbKYnjoFSSvFKagqyrudI4rsSOQEzZBJdv9BTdX+7bz30L2eQL9AUC8iIASqW8SPJtHFhj2UScb/QU3V/u288FC2W1gSiV9nZ2lYWF9nZ29RUVHSqV9RUVW83M6BlnZmJSX1Gx09YWK5VVJSUW5uZNFBUUECB8/Dg7NdXU2NjXw2Onre2h/ftFL16ci44+1y4s2tnY1FdUbLeyaqKomIiISwkJTRR1KSEBf4tvgb9toqjGysrAgIDk+Pjf09KaKCrs8OGk+PiS/PwjwcHp16/v9/cvefhw39691y5cCA0JeXL//rWkpMQzZy4mJESfPHnrypXQkJDXZWX3bt8+Fxt7Nirq1pUrpNeR4OBaofDU8ePxMTF0VRErldeSks7FxqYkJZ0+caLk4UMvD4/7GRn0cYry8sIOH755+TK+ReKZM+diYyPCw7FtuEtWaipWUUsfPYqJjMTn4ssLCrCPoFSCUik3AqBU0tcm5SjLuporh9fK7QXElE18+UZP0f3lvv3ct5BNvkBfICAvAqBUyosk38aBNZZNxPlGT9H95b79XLBQVhvoSmUTRV0+dy4yPLxDpbJOKDQ1NqZnnJmJSUO7UolPf7u7uOS2i4l7nJyaKIq+pzIyLOxKYuLLp0932to+zskJCQxsoiisRQYFBOxxdAzw9fV2c4uJiCDjE6Uy88aNy+19Dx040ERRoSEhr9of9XgkOLjs8WOsMAa1b97Mv3v36oULKcnJuenpTRR1sL3ywtmzxXl5gQEBSfHxSfHxp0+cIL2OBAffvXXr1pUrTRQlLCggezaxUknGOdy+YTMkKKiJoujjFD94gHd0JsXHFwoEURERKUlJJe0P1sTqJO4SERb2/I8/EmJjCwWCJory9/EpvH8fuwlKpdx0OrK1kLcFUCrJ2qE0BVlXc6VxXIkdgZiyCS7f6Cm6v9y3n/sWsskX6AsE5EUAlEp5keTbOLDGsok43+gpur/ct58LFspqA0OpbKIoN2fnvT4+2ampOLn+cvrb0fHO1au4Pj0lxWPPHvrpb1wvfPz4gL8/Q6lMiI4+076j0NvNze//nzHfbmUlevEiJiLi2oUL+OmW+Gw4Hocolfv9/WMiI8/Fxvp6excKBKEhIY2VlfjEN11zbKKoP3JyLicmpiQnP2g/w47lQiwjBgYE4F6VhYX0Xndv3bp5+XITRZU8fCitVNLHIUolGaf4wYPzcXFNFHUxIaEgN7e+vLz00aO4qKjMmzfpSmX+vXtxp0/j7nhPpRD2VPJWT+w5x0GpxAuHMv0r62quTL4rqy8QUzaR5Rs9RfeX+/Zz30I2+QJ9gYC8CIBSKS+SfBsH1lg2EecbPUX3l/v2c8FCWW2QViqfP3q0du3aDpXKF0VF3u7ujvb2jvb2fp6e+NA3Of2Nk/HyuXMpSUlYqTQyNHR3cXF3cfF0dcUbIdOuXTMzMcEt9/n57fX2riop8fHwCPD13ePkVPLwIcloHw+P0vz8h3fvno2KwpWljx5FhIfTlcpaofBgYGChQICVwS6Uyru3b586fjwqIiItJYXeq1YoPBkenhATc+b0aXJrsqeSrlSeCA3NTk2lj8NQKqNPnkw8c+b0iRMFubnYHtzlz2duenlhJn/uJIXnVPacWsfnkUGpJAmsNAVZV3OlcVyJHYGYsgku3+gpur/ct5/7FrLJF+gLBORFAJRKeZHk2ziwxrKJON/oKbq/3LefCxZywYYusvL2lSt4c2UXbfBX6SkpkWFhb2ymEA0iwsKq2k+sZ6emHjt8mNgMp7/h9LfcCIBSSfJKaQocX82VhvO7dARiyoY23+gpur/ct5/7FrLJF+gLBORFAJRKeZHk2ziwxrKJON/oKbq/3LefCxZywYbOsvLs6dPebm61ZWWdNWDUB/j6ktd/M75SoI9no6JuXLzYRFF1QqG7iwveW4rtB6VSbjodn3dTYt9BqVSgRaGbpnJ5Ne+mC9CMQQBiygAi00e+0VN0f7lvP/ctlClBoDEQ6CECoFT2EFilHxbWWDYh5hs9RfeX+/ZzwUIu2MAmK3nVF5RKUCrlRgCUSuVbO2A1h5gqHwE2HvEtIxTdX+7bz30L2eQL9AUC8iIASqW8SPJtHFhj2UScb/QU3V/u288FC7lgA5us5FVfBVAqHeECAkAACAABIAAEgAAQAAJAAAgAASAABIAAEAACQEDZCXBdqURwKQ4BR0dHxTEWLO0WAYhptzApVCOIKZtw8Y2eovvLffu5byGbfIG+QEBeBPbu3WtjY5OdnS2vATscB/KxQywKXQkxZRM+vtFTdH+5bz8XLOSCDWyykld9QankVbh71lnI/J7l2xujQ0x7g3rP3hNiyoYv3+gpur/ct5/7FrLJF+gLBORCIKr9Kisr8/DwKCsrk8uYHQ4C+dghFoWuhJiyCR/f6Cm6v9y3nwsWcsEGNlnJq76gVPIq3D3rLGR+z/LtjdEhpr1BvWfvCTFlw5dv9BTdX+7bz30L2eQL9AUC7Amkpqbu3bu3sbERIZSXl+fg4IDL7EeWHgHyUZqJotdATNlEkG/0FN1f7tvPBQu5YAObrORVX1AqeRXunnUWMr9n+fbG6BDT3qDes/eEmLLhyzd6iu4v9+3nvoVs8gX6AgGWBKSlydTUVH9//x4SKyEfWcaLg90hpmyCwjd6iu4v9+3ngoVcsIFNVvKqLyiVvAp3zzoLmd+zfHtjdIhpb1Dv2XtCTNnw5Rs9RfeX+/Zz30I2+QJ9gQAbAp0d98aHwdmM3FlfyMfOyChuPcSUTez4Rk/R/eW+/VywkAs2sMlKXvUFpZJX4QZngQAQAAJAAAgAASAABIAA1wl4eHj4+/tf7uiysbHhuvVgHxAAAkAACAABIMCCACiVLOBBVyAABIAAEAACQAAIAAEgAASAABAAAkAACAABIAAE5ETgDUqlg+yXnAyDYYAAEAACQAAIAAEgAASAABAAAkAACAABIAAEgAAQ4BEBUCp5FGxwFQgAASAABIAAEAACQAAIAAEgAASAABAAAkAACHCWwBuUypRuX6GhoXj/JWddBcOAABAAAkAACAABIAAEgAAQAAJAAAgAASAABIAAEOAsgTcolQy7RSJRsdSVlpZWXV2dkpICSiUDF3wEAkAACAABIAAEgAAQAAJAAAgAASAABIAAEAACQKCbBGRTKouLizt8cGVaWhoold0kDs2AABAAAkAACAABIAAEgAAQAAJAAAgAASAABIAAEJAmIJtSyeifk5ODhcvi4mJQKhlwlO9jSEiIlZWVqanp9evXiXcikWjXrl22trZmZmZPnz5FCGVnZ69bt+7w4cO4TUNDg729vbW1tZGRUVVVFekIBS4Q6GZMk5KSjIyMLCwsnJyc2traDh48uGHDBsv2q6CggAuOgA0MAqWlpWZmZjY2NnZ2diKRiHzbYf3jx4+nTZtGURRpxttChxmBEGLUb9682cLCAqcAQkjRM0J6GccTgDFbHj9+jF22tLTU1dVtbGzs9XnCiAuxh1EfHh6+c+dOFxcXe3t7sVjci/G6deuWiYnJtm3bgoKCiLUIobKyMltbW0NDQ3ollIEAEOgJAp2teHV1ddu2bbO2tt6yZUtOTk5bW9vMmTPxohcYGNgTlsCYcifA+LHFGD8mJmbp0qWMSvjYWUZkZWUtWbIEp0BycrLyZURns2X//v3Y6zVr1nAz9xm/5OA5XF5ebmlp6ebmZmVldfv2ba7Fq6GhISAgQEdH551lHEORwPeVSCSxsbHz58/PycmhW2JnZ+fq6kqvgTIXCLy9UollSvwvKJVciGWP2lBSUmJubo4Qam5uXrVqVVtbG75dXFxceHg4QuiPP/6wsbFBCCUlJSUkJBClMjQ0ND4+HiFUWFj44sWLHjUSBpeJQPdjGhAQ0NLSghAyNDQsKSnx9va+d++eTPeCxu+YwK5du/Ly8hBCJ0+ejIqKIneXrm9qarKwsNiyZQsolZ1lhHT9L7/8IpFICFVFzwjpZRy7Jj1bcH1KSsrRo0eJ+71VkI4LtkS6fvny5c3NzXgFe/78eS/Ga9WqVU1NTQghKyurJ0+eEHSpqamPHz8GpZIAgQIQ6DkCna14OTk5165dQwjl5OTs3Lnz9evXv/76a8+ZASP3BIHOfmwhhIqLi52cnNasWdMT91XoMTvLiGvXroWEhBDXlC8jupgtCCGxWGxhYVFdXU0IcKQg/UsONuz8+fPBwcF4Bdu9ezfX4pWfn//kyRM9Pb13hpGhSOD71tXVXb9+3dnZma5UJiYmOjs7g1L5zkLT/Ru9pVJJZEqEkIODAyiV3SeuoC2vXLly8OBBbLyRkRHRHD09PbOysnD9ihUrcOH8+fNEqbSwsAgLC9vTftXV1Smo+0pptkwxRQiVl5dv3rxZLBbv3r17R/vl6uoKMeXm3Fi5cmVraytC6Pfff9+zZw8xUrre19c3NzfX3NwclMrOMkK6Xk9Pb8+ePdu2bcOCnaJnRIfLOEJIerYghBoaGgwNDcViMZlUvVWQjgu2RLo+JSVlxYoVpqam3t7eCKHeild1dfXmzZuxkUeOHElKSqKjq6ioAKWSDgTKQKCHCHS24pHb7d27Nykp6fnz53p6ert377awsLhx4wb5FgpcJtDhjy2iOtXU1IBSKR2+zjIiPj5+y5YtdnZ2NjY2RUVFypcRnc0WjOjYsWPJycnSuHq9RvqXHGxSc3Pzli1brKysVq9ezdl4vUulEiFEVyTogaMrlWVlZTt27Hjw4AEolXREHCm/QanEr9Bh2EqXKUGpZMBR1o9Xr14lSqWhoSERNby8vLpWKk1MTO7cuYMQiomJwX/qUVZECueXTDFNT0+3trbGcS8uLn716hVCKDIykpvHIhQuFnI3eNWqVVipzMnJof/oZdTfunULZyUolQihzjJCul4gEDQ3N0skEmtr6/T0dEXPiA6XcYQQY7bgWRoWFpaQkCD3GfsWA0rHBQ/CqC8vL1+xYgU+q75jx47c3NzeildNTQ1RKg8fPsz4XyBQKt9iDkAXIPAWBDpb8RBCjY2Nrq6ucXFxCCGRSPTw4UOEUH19/ZIlSxoaGt7iXtDlHRPo8McWQmjfvn0ZGRkIIVAqpSPSWUZQFPXs2TN8bG7jxo3KlxGdzRac/mvXrqWfnpHm1ls1jF9yyP+Snzhx4vjx4wihoqIiY2NjbsaLa0pla2urlZXVy5cvQansrfnc9X3foFTiV+jQh2DIlKBU0uEocbm0tNTU1BSv3atXryanvxMSEvCuogcPHtjZ2WEC9L9gBAQE4L9FJycng6rFqRnS/ZgmJyd7eHiQXVSJiYn4NERiYqK/vz+nnAJjMAEHB4fc3FyE0LFjx2JjYwkWRr2Tk5O9vb2Dg8O8efNsbW1JM34WOssIRn1zc/Pp06fx769OTk63bt1S9IzocBnHP9ylZ9Hq1avpTz7txanCiAv5qcSob2xs/M9//oPj5erqevPmzV6M1+rVq7FmunXr1uLiYjo9UCrpNKAMBHqOQGcrnkgkMjc3x+okfnosPgze2tq6dOnS+vr6njMJRpYXAcYvOXhYsVi8ceNG/GaFmTNnhoaGyut2yjFOZxlx9+5dnA5CoXDdunVlZWVKlhEdzhYc06tXr+7fv5+b8WX8kkN++QkMDMTPW6Moas2aNdyMF9eUSoFAYGRk5ODgsHXrVj09vZSUFG4GnbdWyaZUSsuUoFTyZ+qEhoaam5sbGxvfvn0bxz09Pb25uRm/MMfMzKy0tFQsFltaWq5Zs2bZsmWWlpaNjY3V1dXW1tY7duwwMzMjf/bhDzSOe9qdmLa1teno6JD3hwgEguvXrxsYGGzbtm3r1q3wliRuhrisrMzMzMza2tre3h4/F2/BggVisVi6HtsPeyoxhw4zAiHEqD906NCWLVssLCzc3d3b2toUPSMYyzhCqLPZIhaLFy1axJ05z4iLg4NDenq6dLxOnz69bds2BwcHJycnsVjci/FKS0vDbyc7cuQIlkI2btyIEPL39zcxMZk9e7alpaVAIOAOYbAECCgfgc5WvPDwcD09PfwmDV9fX5FItGPHDlNTUyMjozNnzigfB6X0iPFLTllZGV5jibOwp5KgIAXpjMA/TEtKSv73v/9ZWFgYGhrm5uYqX0Z0MVsOHjzIkeMjJEz0Qoe//FAUZWFh4ezsbGFhkZmZybV4JSYmWlpaamtrW1panj17lu5OT5SlFQk8q/Pz8y0tLRcsWLBp0yZfX19ya9hTSVBwqiCDUtmhTIkfUSwSieDd3yzj2tjY2Nx+wQGTLkgCpS7gwFdAAAgAASAABIAAEAACQAAIAAEgAASAABBQaALdVSo7kymJ86BUEhSyFkQiUW1t7dGjR33ar9DQ0Lq6Oo4cr5PVl55rD5R6ji2MDASAABAAAkAACAABIAAEgAAQAAJAAAgAAW4S+OGHH0qeleP/VPBzKt8oUyKEQKl863DW1tY6OjpGRkZWVVVVV1ffv3/fyckJHojD4FlbWxsQECAUCl+9elVaWurr6+vo6AiUGJTgIxAAAkAACAABIAAEgAAQAAJAAAgAASAABJSJQAdKpYODQ05OTtdOslEqBQKBqqrqt99++80336ipqZ07dw4hZG5uHh0d3fVNybdVVVW6urrkY2eF6OhoKysr+rdPnjyZO3fu4MGDR4wYsXXr1ubmZvq38irX1NQMGjTo22+/lR6woaHh6NGjjo6O58+fP3TokJubW1tbm6+vb1hYmKzHwCMiIvr27SvrsyBv3rw5sv3q06cPLsTGxmpqaso6jrRrLi4uISEh0vXSNW1tbY6Ojn/729+8vb2lv0UIYUonTpyIjo52dHR8/vx5bGyso6OjTJRSU1OnT5/+ww8/qKure3l5dXijMWPG1NXVFRQUjBgxIigoiLQZOHAghoP/vXbtmvRcIo3fuvDVV1+RvsuWLRs5cuSgQYM++eSTkSNH6ujoWFtbM94VSxp3v/D777+rqal9/PHH27Zto/fKy8ubMGGCqqqquro6fj1ibGzs8OHD+/fvv3DhwtevX7e0tKxevXrAgAHDhw/HGUrvLmu5w1nHGKSzh5jgGJHGS5cuHTJkCImOu7s7RVETJkwgDeRSoIfG29t75MiRQ4cO/fvf/47ve/To0V27drG8URdZ4Ovr+/HHHw8ZMiQhIaG6ulqFdq1fvx6/tHrYsGEfffSRo6MjSzOgOxAAAkAACAABIAAEgAAQAAJAAAgAAU4R+ItSmZaWht+VxviX8c5KlnsqBQKBjo4OplBUVDR48GCxWCyTUtlNggx1qa2tTV1dPTw8HCHU1NRkYGBgbW3d2VDk1VqdNeiifuvWrR9//HGHSmVzc7OPj49j++Xp6VlcXHz58mVHR0cfHx9ZZdP58+erqanR9bUuTJL+6rPPPiMvd+5MqZQJQveVSkdHx2nTpg0YMKAzpZJQcnJyyszMFAgErq6uslJSU1PD87axsVFLS+vZs2fSELAKdvLkSYaiPXDgQEZjxlxifPt2H+lyGB4hKCho586dbzdah710dHTmzZt39uzZvn37JiUlkTZ6enrq6up5eXna2tozZ85sbGz88MMPDQwMIiMj+/Tp4+PjExwcrKqqGhUVtXLlyk8//ZR0ZFmgzzrGUDNmzGDU4I/SSiXjTW09rVRiM/Lz86dPn96hhW9X2VkW5OTkqKioBAQErFq1SlNTUywWX26/Ll26NGTIEE9Pz+bm5s8++2zDhg1eXl4ffvjh8+fP384A6AUEgAAQAAJAAAgAASAABIAAEAACQICDBP6iVFZXV6elpRVLXdJPUWS5p5IolQghNTU1oVCIXzM9Z86c0aNHZ2RkWFtbHz58GPP67rvvysvLV6xYMXPmzAkTJly4cIFoE7dv3546derEiRNdXV0RQnFxcVOnTv33v/+9du1aiUTCUJcuXbr0888/kxg0NDTU1NQghIKCgrS0tHR0dPAgJiYmW7ZswS1DQ0P/3X45OzsjhC5cuDC9/Vq+fHlzc3NkZKSBgQEZEBfy8/M/++wza2vrNyqVwcHBkZGRWLWUVamsqqoaNGjQ+fPnCclff/118+bN69evnzZtWnZ2dkVFhaam5ubNm5csWbJ582aGkQghumakqanp4OCgpaU1efLk6urqmJiYFStWaGtrFxQUZGVlzZo166efftLX129sv/T09GbOnDl16tSbN28ihGJjY8eNG6evr798+fKQkJDi4mLd9mv69OnFxcXl5eUjR45k3D0zM1MsFg8cOPCNSqWXl9eFCxcwIlmVyi+++OLJkyf0W0skEhMTk7lz586YMSMxMREhNGbMmJKSkrFjx44aNQq/mxW370Kp3L17j7dKnQAADjJJREFUt5aW1tSpUwMCAhBCDOwtLS30iYpfSkufQg0NDfPnz583b96uXbu6ViqNjY3PnTt35syZZcuWGRoaTp06NSQkxMjIaOLEiTdu3EAIMUIjjbqlpeX9998/efIkQmjcuHF0Xf6XX37R1dVtaWlZuHDhggULJBKJSCRqbW0tKCj46KOPQkNDi4qK8MbqAwcOfPDBB62trYQkIwtIfXcKZNbdvn1bW1v7xx9/XLlypUgkCgwMVFVV3bhxY2NjI2OCdV+pZKT/qVOnFi9e/N///ldXVxfv9nV1ddXW1p44ceKePXukAXYdGrpSiReWV69eTZgwwcLCYs6cOW5ubhYWFrNnz8ZT+o2hQQh1lgUuLi546WD8nSAiImLw4MENDQ2pqakqKirl5eUIIUYbRvZ1JyLQBggAASAABIAAEAACQAAIAAEgAASAAKcI/EWpTOn2FRoaivddvoUz9D2VeXl5I0aMkEgkWKlECEVHR//66695eXlz5sxBCD148GD+/PkZGRnLly9HCFVXV0dGRhKlcuzYsc+ePZNIJIsWLXr16lVoaCjeOrd48eKMjAyGUrlv3z57e3uGwUKhUE1Nrbm5ua2tbfLkyY8ePTJvvxBCFRUV06dPx1rA7NmzHzx48PPPPz948ABLokKhsL6+/uXLl4wBf/rpp8DAQHd39w6VyoaGhtDQUCy93bx5MzMzE5dlOteM1dWNGze2trYOHjwYb6oyNjbGUlRqauqiRYsoiurXr19VVRVCaNasWffu3WPYSTQjhJCmpiY+em9sbHzq1Km4uLjx48djx6dMmVJZWYkQcnFxOXDgQHFxMd6UmpOTg8Xcr7/+ury8XCKR6OjohISEeHp6BgYGIoTu3buXlpbW2tra2Z6vLpRKQun48eOVlZVEqZSJUkRExKBBgxYvXhwUFFRdXY2jZmlpiRCqra0dPXq0RCLBKtjx48cZOxk7UypbW1vd3d3b2trEYvHQoUMlEgkDO2OiSk+h8PBwY2NjfID3iy++YASFvqcSK5VxcXFYjI6Ojh4/fjxCKCkpCevjjNBIo66srFRRUcFHyGfPnr127Vpyu6dPnw4ePLhv374DBw7Mz8/H9Q4ODioqKvr6+hKJBNdQFDV8+PCFCxeSjgghRhbQv3pjmcw6DQ2NwsJChJClpWVwcDBCCOu20hOs+0qldPpPnjwZIdTY2Dh06NDW1tZhw4ZhC/FOZAbArkMjrVRWV1cPGDCgrq6Ooqj333//5cuXDQ0No0aNQggxRpYODQElnQUGBgZjx46dMWPG4MGDyY5psVg8YsQIT09PhNDx48f79OljYGDw6aefGhgYkGAhhBjZR+4CBSAABIAAEAACQAAIAAEgAASAABAAAopC4C9KJePQd3c+voWfAoGgf//+mpqaGhoaWlpa6enp+DmVkZGRCKG0tLSVK1cihCZNmlRZWenm5nby5Mna2tpx48atW7fuzJkzra2tWKlsbm4m0gM2IykpafHixStWrBgxYkRSUhJDqfTz87Ozs2MYfPHiRaLgmJqanj592tzc/MSJEwihS5cuff755zrtl4aGRmJiYkhIiLq6upubGxZZGEMhhM6dO6epqYn1rA6VSoRQXV0dkd5IQdaHVGpra1++fBkhZGpq6ufnhxAyNjaOiYnBYu63335LUdT333+PLTQ3N8ds6QYTzQgrlXiLlru7+8GDB+Pi4jZt2oTPyH/44YeYwOTJk3ft2lVfX29kZLR06dJFixZNmTJFJBKRjYF2dnYhISH37t0bNWqUlZXVnTt36LeTLktrNPQ2cqFUW1sbHR29du3aIUOGPHv2zM7ObvTo0didb7755uXLl10olZq0Cwvo+IS4j4/P4sWL9fX1BwwYIBKJGNgZE1V6CtnY2ISGhiKEmpubu6lUmpiY4OctrFmzBu8EXLZsWVNTEyM0dHq4XFVVpaKicvHiRaxW0/f//vLLL1OmTBEIBHPmzJk7dy5uX1ZWFh0dPWDAACyQ1dTUjB07duTIkWVlZfTB35gF9MaMMp51TU1NQ4cOxV/FxsYaGhoSpZIxwfC+17q6OjLO0qVLR44cSYKTlZVF/m4hnf4YHZnh69evnzNnTnBwcE1NjTTArkPToVJJUoyE8quvvpIemRgvXZDOgk2bNqmqql6+fNnCwuKDDz7AIntsbGy/fv1w+cSJEyoqKn5+fhERESoqKhcuXCDDdj/7SBcoAAEgAASAABAAAkAACAABIAAEgAAQ4BSB3lEqyZllwoI8pzItLU1fXx8h9NtvvwUHB8+aNQureK2trSkpKWvWrFm/fj3WJuh6Bz4I+fnnnwuFQoSQvr6+tFJ58eJF+nt4RCJRamoqXak0MTGJjo4mlly6dGnVqlXEQlwQCoVBQUGjRo16+PAh4yt8FrhPnz79+vXr27fve++9N3PmTOk2IpGorq4uLCzMp/3C+wSlz9dLdyQ1z54969evn4aGhqam5tdffz1p0iSsVEZFRSGEqqqqRo8eTVGUmpoa7mJqanrq1CnSHRcYSiV+o467u3tQUFBcXBze99fc3DxkyBB6Rx8fn61btyKE8vPzp0yZ0tjYSJRKGxsbfMa2rq4uJiZm6tSpWJKjd6eXpTUa+rfsKb169YoMaGpqun//fjs7O7x9j9R3oVSSNriAVe/s7OxJkya1tLTg4/NYqaRjRwjRJ6r0FNq+fTvGIhKJiLxF7tXhnkpzc3OsVOK3qWRlZS1dulQ6NGQQUpBIJP369cOnv9XV1ekvgfn888/x/mIfHx9VVVX8JwGcO7NmzVq+fHlbW5uOjs7o0aOxhE3GxIWus4DRmP6RKJVk2sTExODJhmsYE6xDpbLD51S2tbVJp7+RkRG+u7q6ekVFBUJIIBA4ODh89913DQ0NjLnddWg6VCo1NTXx+MSdr776qjuhIUyks8De3v6bb77BkrSKigrexK2vr//jjz/iXlevXlVRUcHB6t+/P97CTAbsZvaR9lAAAkAACAABIAAEgAAQAAJAAAgAASDAKQJ/USrfjWX009/kjkQfJEplZWXl5MmTyT4yvGHw9evXY8aMIbuoNDQ0/vjjD3z6u6ioaNCgQRKJRCgUfvnll/Hx8Yw9lWKxWE1Nbf/+/RKJBL9Rx87OrqKi4vvvv29paWltbZ04cWJBQQGxpLKyctiwYbW1tQih7du3v3792tnZub6+Hh9ZjYqKkj79XVFRkd9+WVpaDh8+vKSkhDjIKDQ0NDS3X7LupsRnPPEpZoSQRCIZOXLkkydPjI2NzczM8FbQJUuWUBT1wQcfYHVm2rRpubm5DAO6o1Ti5xtmZWUhhI4cOZKZmWlra4ufz+ji4jJu3DiE0PDhw4VCYWtr65QpU0JCQiIiIu7fv48QSkhIMDIy6vDca2VlZUFBwSeffGJra1tQUEA/vsow8q0pPX36dNiwYVhla2lp+emnn86fPx8fH79gwQKEUE1Nzfbt24kK1v3T38nJyXp6ehiyqqrq69evGdizsrLoE1V6Ch05cgTLZ4mJiWyUSunQdIh64cKF8+bNi42N7dOnT1paWnp6ur6+fk1Njba2to6OTnFx8YIFC9TV1WtqalRVVdeuXRsdHf2Pf/xj586dBw8eVFFROXDgAH6dC32WMrKAEbKuP5JZN27cuKKiIryZGj8hdPDgwQgh6QnWzdPfjY2N0uk/bty41tbWmpqaoUOHvnz50sPDA5s3fvz4Fy9ejBs3jj63uw5N95XKboaGkQWvX7/W19e/c+dOZmbme++9d/LkSWNj448++giT/9e//uXg4ICNF4lE//znP62trY8ePaqiooIfF4u/YmRf17GAb4EAEAACQAAIAAEgAASAABAAAkAACHCQAHeVSnxkFZ9trKqqwi9CmTp1alRUFFEqb9++PWnSpLFjxzo5OSGEjIyMpk+fvmbNmoMHD2poaJw4cYLxTueSkpL58+cPGTJk1KhRdnZ2+FGMhw4d0tbWnjFjho+PD5ZO8EMb8etQJk+ePG3aNPwcw6NHj06ePFlXV3fx4sX19fUdvlEHx7iz51TKZQaMHTtWIBCQoZydnffs2WNsbLxp06Z58+aNHz8+JyeHoih1dfW1a9dOnz4dn64l7XGBaEb4bGyHeyrxxq5p06bp6uouWbKkvr7+/v37Ghoa8+fPj4qKGjNmzJEjRyIjI7/77ruff/55/fr1wcHBWVlZP/zwg66u7owZM/Ly8qRf84IQWr9+vQrtkmk/KcOLLj6eOnVqbPuloaHh4uKCVV0TExMtLa0pU6bExsZ2rVR+S7uCgoKw6t3Q0KClpTV37lwHB4fNmzdv2LCBgZ0xUaWnUF1d3Zw5c7S1tW1sbL7++muG/d3fUykdmg5RFxYWTpw4sX///ljajo6Oxi9jyc3NnThxoqqqqoaGBn78Qmxs7PDhw/v3779o0aLq6mp9fX1aiFTIsywRQowsYLjQ9Ucy69LT02fMmDFnzpx169bht97Pnj1bV1dXeoJJK5VffvklCc6GDRvIaiCd/osXL160aNH48ePDwsLw+jBt2jQtLS1bW1tpgF2HRialMisri541HYaGkQWlpaUqKir4KQ3u7u6ffvrpl19+iVVvsVj8t7/9jTyzEiF08eLFUaNGYa2fDpyRffSvoAwEgAAQAAJAAAgAASAABIAAEAACQEAhCPSCUtlNLi9evBg7diz9pcPd7MjPZvgFLMR3It+QGij0BAEG9p64BYz5dgQYW6rfbhDoBQSAABAAAkAACAABIAAEgAAQAAJAAAi8SwIcVSrj4uI0NDSuXr36Llko9L0Ykhkole8mmgzs7+amcJfuEAClsjuUoA0QAAJAAAgAASAABIAAEAACQAAIAAFOEaArlf8P86YA1811AT8AAAAASUVORK5CYII=;" vertex="1" parent="kbejniJzF6f3wX8Ywy3W-1">
                    <mxGeometry x="-590" y="190" width="1763" height="647" as="geometry"/>
                </mxCell>
                <mxCell id="kbejniJzF6f3wX8Ywy3W-3" value="" style="rounded=0;whiteSpace=wrap;html=1;fillColor=none;strokeColor=#FF0000;strokeWidth=3;" vertex="1" parent="kbejniJzF6f3wX8Ywy3W-1">
                    <mxGeometry x="380" y="550" width="120" height="70" as="geometry"/>
                </mxCell>
                <mxCell id="kbejniJzF6f3wX8Ywy3W-4" value="" style="rounded=0;whiteSpace=wrap;html=1;fillColor=none;strokeColor=#3333FF;strokeWidth=3;" vertex="1" parent="kbejniJzF6f3wX8Ywy3W-1">
                    <mxGeometry x="420" y="360" width="250" height="160" as="geometry"/>
                </mxCell>
                <mxCell id="kbejniJzF6f3wX8Ywy3W-5" value="" style="rounded=0;whiteSpace=wrap;html=1;fillColor=none;strokeColor=#3333FF;strokeWidth=3;" vertex="1" parent="kbejniJzF6f3wX8Ywy3W-1">
                    <mxGeometry y="320" width="110" height="140" as="geometry"/>
                </mxCell>
                <mxCell id="kbejniJzF6f3wX8Ywy3W-7" value="" style="rounded=0;whiteSpace=wrap;html=1;fillColor=none;strokeColor=#3333FF;strokeWidth=3;" vertex="1" parent="kbejniJzF6f3wX8Ywy3W-1">
                    <mxGeometry x="260" y="440" width="50" height="50" as="geometry"/>
                </mxCell>
                <mxCell id="kbejniJzF6f3wX8Ywy3W-8" value="" style="rounded=0;whiteSpace=wrap;html=1;fillColor=none;strokeColor=#FF0000;strokeWidth=3;" vertex="1" parent="kbejniJzF6f3wX8Ywy3W-1">
                    <mxGeometry x="-460" y="690" width="120" height="70" as="geometry"/>
                </mxCell>
                <mxCell id="kbejniJzF6f3wX8Ywy3W-9" value="" style="rounded=0;whiteSpace=wrap;html=1;fillColor=none;strokeColor=#FF0000;strokeWidth=3;" vertex="1" parent="kbejniJzF6f3wX8Ywy3W-1">
                    <mxGeometry x="510" y="210" width="120" height="70" as="geometry"/>
                </mxCell>
                <mxCell id="kbejniJzF6f3wX8Ywy3W-10" value="" style="rounded=0;whiteSpace=wrap;html=1;fillColor=none;strokeColor=#FF0000;strokeWidth=3;" vertex="1" parent="kbejniJzF6f3wX8Ywy3W-1">
                    <mxGeometry x="360" y="430" width="40" height="70" as="geometry"/>
                </mxCell>
                <mxCell id="kbejniJzF6f3wX8Ywy3W-11" value="1" style="text;html=1;strokeColor=#6F0000;fillColor=#a20025;align=center;verticalAlign=middle;whiteSpace=wrap;rounded=0;fontColor=#ffffff;" vertex="1" parent="kbejniJzF6f3wX8Ywy3W-1">
                    <mxGeometry x="380" y="590" width="30" height="30" as="geometry"/>
                </mxCell>
                <mxCell id="kbejniJzF6f3wX8Ywy3W-12" value="2" style="text;html=1;strokeColor=#6F0000;fillColor=#a20025;align=center;verticalAlign=middle;whiteSpace=wrap;rounded=0;fontColor=#ffffff;" vertex="1" parent="kbejniJzF6f3wX8Ywy3W-1">
                    <mxGeometry x="510" y="250" width="30" height="30" as="geometry"/>
                </mxCell>
                <mxCell id="kbejniJzF6f3wX8Ywy3W-13" value="3" style="text;html=1;strokeColor=#6F0000;fillColor=#a20025;align=center;verticalAlign=middle;whiteSpace=wrap;rounded=0;fontColor=#ffffff;" vertex="1" parent="kbejniJzF6f3wX8Ywy3W-1">
                    <mxGeometry x="360" y="470" width="30" height="30" as="geometry"/>
                </mxCell>
                <mxCell id="kbejniJzF6f3wX8Ywy3W-14" value="4" style="text;html=1;strokeColor=#6F0000;fillColor=#a20025;align=center;verticalAlign=middle;whiteSpace=wrap;rounded=0;fontColor=#ffffff;" vertex="1" parent="kbejniJzF6f3wX8Ywy3W-1">
                    <mxGeometry x="-460" y="730" width="30" height="30" as="geometry"/>
                </mxCell>
            </root>
        </mxGraphModel>
    </diagram>
</mxfile>